<?xml version="1.0" encoding="UTF-8" standalone="no"?>
<svg
   version="1.1"
   width="392.08701mm"
   height="398.517mm"
   viewBox="0 0 1481.9036 1506.2059"
   id="svg30"
   sodipodi:docname="Black logo - no background - no name.svg"
   inkscape:version="1.1 (c68e22c387, 2021-05-23)"
   inkscape:export-filename="C:\Users\Ricky\Downloads\70103297\Brand Assets Download (1ad244d9-fb00-445b-b50d-843dd2820e37)\Logo Files\For Web\png\Black logo - no background - no name.png"
   inkscape:export-xdpi="96"
   inkscape:export-ydpi="96"
   xmlns:inkscape="http://www.inkscape.org/namespaces/inkscape"
   xmlns:sodipodi="http://sodipodi.sourceforge.net/DTD/sodipodi-0.dtd"
   xmlns="http://www.w3.org/2000/svg"
   xmlns:svg="http://www.w3.org/2000/svg">
  <defs
     id="defs34" />
  <sodipodi:namedview
     id="namedview32"
     pagecolor="#505050"
     bordercolor="#eeeeee"
     borderopacity="1"
     inkscape:pageshadow="0"
     inkscape:pageopacity="0"
     inkscape:pagecheckerboard="0"
     showgrid="false"
     units="mm"
     width="392.087mm"
     inkscape:zoom="0.3511868"
     inkscape:cx="1567.5418"
     inkscape:cy="821.50012"
     inkscape:window-width="3440"
     inkscape:window-height="1377"
     inkscape:window-x="-8"
     inkscape:window-y="-8"
     inkscape:window-maximized="1"
     inkscape:current-layer="SvgjsG19526"
     inkscape:document-units="mm"
     showguides="false" />
  <g
     transform="matrix(6.8965517,0,0,6.8965517,68.965517,68.965517)"
     id="g28">
    <defs
       id="SvgjsDefs19525">
      <linearGradient
         id="SvgjsLinearGradient19532">
        <stop
           id="SvgjsStop19533"
           stop-color="#8f5e25"
           offset="0" />
        <stop
           id="SvgjsStop19534"
           stop-color="#fbf4a1"
           offset="0.5" />
        <stop
           id="SvgjsStop19535"
           stop-color="#8f5e25"
           offset="1" />
      </linearGradient>
      <linearGradient
         id="SvgjsLinearGradient19536">
        <stop
           id="SvgjsStop19537"
           stop-color="#b88746"
           offset="0" />
        <stop
           id="SvgjsStop19538"
           stop-color="#fdf5a6"
           offset="1" />
      </linearGradient>
      <linearGradient
         id="SvgjsLinearGradient19539">
        <stop
           id="SvgjsStop19540"
           stop-color="#b88746"
           offset="0" />
        <stop
           id="SvgjsStop19541"
           stop-color="#fdf5a6"
           offset="1" />
      </linearGradient>
    </defs>
    <g
       id="SvgjsG19526"
       featureKey="symbolGroupContainer"
       transform="matrix(1.1550717,0,0,1.1550717,-9.9995974,-9.9998005)"
       fill="#000000"
       inkscape:export-filename="C:\Users\Ricky\Downloads\Black logo - no background - no name.png"
       inkscape:export-xdpi="96"
       inkscape:export-ydpi="96">
      <path
         d="m 17.914,148.907 z m 4.743,6.033 a 90.586,90.586 0 0 0 5.861,6.251 c 6.914,6.805 15.159,12.525 24.004,16.851 3.259,1.526 6.265,3.107 9.787,4.468 0.88,0.338 1.779,0.7 2.724,1.026 0.953,0.302 1.941,0.604 2.974,0.903 1.027,0.321 2.122,0.549 3.267,0.786 1.146,0.23 2.336,0.493 3.614,0.624 a 91.24,91.24 0 0 1 -18.434,-5.99 93.833,93.833 0 0 1 -16.873,-9.842 c -10.548,-7.727 -19.57,-17.648 -26.16,-28.989 -0.272,-0.339 -0.685,-0.985 -1.18,-1.808 l -0.796,-1.348 -0.803,-1.551 c -0.534,-1.076 -1.149,-2.168 -1.62,-3.226 a 71.281,71.281 0 0 0 -1.326,-2.748 c 2.048,5.101 4.412,9.563 7.059,13.806 a 93.473,93.473 0 0 0 3.869,5.697 c -0.192,-0.259 -0.392,-0.511 -0.583,-0.771 a 95.012,95.012 0 0 0 4.6,5.841 z m -4.618,-5.862 -0.125,-0.17 z M 1.335,106.042 0.852,102.167 c 0.256,2.365 0.553,5.008 1.096,7.654 l -0.327,-1.879 a 23.961,23.961 0 0 1 -0.286,-1.9 z m 84.477,79.533 c 6.652,0.673 13.628,0.472 20.461,-0.609 6.837,-1.077 13.524,-2.987 19.741,-5.449 -11.45,4.503 -23.602,6.506 -35.49,6.171 -1.591,-0.025 -3.159,0 -4.712,-0.113 z"
         id="path13" />
      <path
         d="m 46.426,171.967 -0.259,-0.165 c 0.087,0.055 0.172,0.111 0.259,0.165 z m -0.259,-0.165 z m -2.514,-1.667 z m 12.424,7.149 A 83.837,83.837 0 0 0 73.2,183.1 c -9.688,-2.21 -18.805,-6.109 -26.774,-11.133 3.06,1.947 6.277,3.749 9.651,5.317 z m 120.925,-70.19 c 0.098,-1.58 0.296,-3.238 0.346,-4.027 0.594,-5.071 0.77,-9.401 0.745,-13.745 -0.11,-0.783 -0.425,-2.25 -0.55,-3.918 -0.153,-1.672 -0.378,-3.309 -0.568,-4.924 -0.289,-1.601 -0.538,-3.186 -0.854,-4.74 2.275,11.617 2.237,23.279 0.144,34.282 a 94.97,94.97 0 0 1 0.737,-2.928 z"
         id="path15" />
      <path
         d="M 5.586304,83.968278 C 6.3910484,77.420235 8.1039771,71.037318 9.7333947,66.784886 L 9.0738459,69.897579 C 9.480963,68.985598 10.138614,66.866499 11.03541,64.624033 l 0.647212,-1.710083 0.71459,-1.657889 c 0.474496,-1.073309 0.873072,-2.090628 1.293475,-2.8707 -0.287544,0.731673 -0.56465,1.520285 -0.898694,2.311744 -0.327402,0.794307 -0.694662,1.600949 -1.044839,2.412337 l 1.436772,-3.235113 A 106.15698,106.15705 0 0 0 9.4458504,70.984174 c -1.0752068,4.130012 -1.9255027,8.4707 -2.3829164,12.367258 -0.1328588,0.971769 -0.1793593,1.920761 -0.2657175,2.826098 -0.063582,0.905338 -0.1736653,1.768922 -0.1822062,2.585054 -0.039858,1.631316 -0.094899,3.059548 -0.067378,4.202135 0.099644,2.286121 0.2372478,3.425859 0.4355869,2.789086 0.3900352,-1.265006 0.3824434,-7.770343 1.7432964,-15.911743 0.7278761,-4.057888 1.7727154,-8.508659 3.1905074,-12.869276 1.407354,-4.364412 3.252192,-8.595966 5.162511,-12.329298 l -0.561802,1.226097 -0.5172,1.263108 -1.059074,2.553736 -0.971767,2.638197 -0.494424,1.330486 c -0.145197,0.45172 -0.29229,0.905338 -0.437486,1.360854 -1.252668,3.612811 -2.189322,7.417318 -3.005454,11.252194 l -0.5304862,2.896322 c -0.1945431,0.962278 -0.2771053,1.941637 -0.421352,2.910558 -0.3017791,1.936891 -0.411862,3.888018 -0.5798335,5.81637 -0.1888491,3.866191 -0.2268088,7.684934 0.1233689,11.336653 -0.014235,-0.867378 -0.02847,-1.637959 -0.016133,-2.383867 l 0.1091341,-2.234875 c 0.045552,-0.767734 0.03701,-1.581969 0.1091339,-2.514829 0.06643,-0.932857 0.1271648,-1.98434 0.1803082,-3.228468 0.3710561,-6.270937 1.4918136,-12.47924 3.2341616,-18.487306 1.660734,-6.033689 3.619451,-11.347093 6.537599,-16.161328 l 0.760142,-1.44816 c 0.514352,-0.971769 0.942348,-1.930251 1.48612,-2.907711 0.619691,-1.072361 1.212811,-1.875209 1.692999,-2.610676 0.494425,-0.727877 0.913879,-1.367497 1.394069,-1.988138 l 3.494184,-4.822776 c 0.07118,-0.0086 -0.02088,0.175564 -0.189798,0.448874 a 27.484677,27.484696 0 0 1 1.859074,-2.36299 c 0.716487,-0.830367 1.412098,-1.711031 2.001421,-2.437959 0.138553,-0.0066 0.27331,-0.01044 0.591222,-0.238197 8.208772,-8.727877 18.310781,-15.840569 29.694876,-20.324554 l 2.530959,-0.986002 2.562277,-0.853144 1.274495,-0.425148 1.290627,-0.360617 2.571766,-0.714591 c 1.470935,-0.353974 2.960852,-0.712692 4.480186,-1.03535 l 2.312691,-0.40427 c 0.777223,-0.133808 1.558243,-0.284697 2.357294,-0.358719 1.588611,-0.190747 2.974137,-0.5931196 3.720993,-0.6918147 4.146142,-0.236299 8.284692,-0.1888494 13.142577,0.2049821 0.376749,0.00664 0.963226,0.040806 1.643652,0.077818 0.680426,0.038908 1.458596,0.057888 2.213046,0.1271646 0.88446,0.199289 1.8287,0.396679 2.81946,0.589324 6.04412,0.937604 11.888,2.613523 17.44814,4.842703 l -0.007,-0.02658 2.12954,0.848399 2.1732,1.004033 c 1.49086,0.64911 2.95136,1.479479 4.46025,2.261447 0.75729,0.386239 1.47473,0.857888 2.21874,1.284935 0.73072,0.449822 1.49561,0.848399 2.20166,1.339976 1.43108,0.95089 2.88208,1.860973 4.21921,2.877342 a 94.815587,94.815651 0 0 1 6.26335,4.932859 c 0.0436,0.03986 0.0892,0.07686 0.13286,0.115777 l 0.0398,0.03606 1.38269,1.254568 1.32288,1.320047 1.32384,1.320996 c 0.43844,0.443179 0.8446,0.917676 1.2688,1.37509 -0.20498,-0.332148 -0.19738,-0.465955 -0.18979,-0.597865 -0.65385,-0.626335 -1.42729,-1.367497 -2.19123,-2.097272 1.2745,1.159668 2.38672,2.208304 3.29965,3.064294 0.35207,0.449821 0.73641,0.892052 1.10083,1.375089 l 1.1255,1.486121 1.19668,1.545907 1.19098,1.662633 c 2.11246,2.693239 3.97723,5.574377 5.74804,8.512456 0.81993,1.506998 1.72432,2.971293 2.45409,4.530485 l 1.15113,2.311745 1.03629,2.369631 c 0.298,0.505814 0.18222,0.02088 0.21922,-0.06453 1.16252,2.810913 2.09728,5.733807 2.94378,8.679478 a 83.712393,83.71245 0 0 1 3.23416,16.333094 c 0.21352,1.30771 0.30462,2.630605 0.49347,3.941163 l -0.11673,2.774851 c -9.4e-4,1.046738 0.0541,2.093475 0.01,3.142112 l -0.12148,3.156345 c -0.0152,0.711744 -0.11766,1.488968 -0.17746,2.333571 -0.0797,0.842704 -0.12146,1.751834 -0.24294,2.710324 l -0.39098,3.02918 c -0.12526,1.06192 -0.36726,2.15326 -0.55326,3.29395 a 86.011799,86.011858 0 0 1 -4.09205,14.69229 c -0.22966,0.78386 -0.40522,1.4102 -0.5618,1.76038 -0.59502,1.42443 -1.22989,2.80332 -1.84294,4.16132 -0.68612,1.32291 -1.3153,2.64579 -2.01851,3.89847 a 81.698634,81.69869 0 0 1 -7.54353,11.74757 c -0.31886,0.4166 -0.6159,0.83985 -0.93666,1.23084 l -0.94708,1.14448 c -0.62634,0.73926 -1.18624,1.47853 -1.78031,2.12005 -1.18719,1.28303 -2.18363,2.47306 -3.11839,3.36796 -1.07046,1.11792 -0.97461,1.17011 -0.23344,0.63108 a 33.281114,33.281137 0 0 0 1.52597,-1.19762 l 2.01376,-1.81637 c 0.73641,-0.64247 1.44151,-1.3675 2.12099,-2.05077 0.67189,-0.68802 1.34378,-1.3153 1.86192,-1.8828 1.04484,-1.13025 1.73096,-1.82776 1.58482,-1.51744 -1.68636,3.17438 -4.7573,7.08992 -9.24602,11.42111 -2.28992,2.11341 -4.86643,4.40998 -7.91363,6.62396 -1.48612,1.15872 -3.13832,2.21875 -4.82278,3.37652 -1.74044,1.06572 -3.51886,2.23297 -5.46334,3.26927 -4.25528,2.31744 3.19336,-1.39976 3.39454,-1.43487 a 21.703424,21.703439 0 0 1 -2.25575,1.55634 c -1.40261,0.74591 -2.79288,1.51554 -4.24579,2.15706 -0.84934,0.39003 -1.6835,0.81139 -2.54234,1.1758 l -2.5898,1.06478 1.37034,-0.53903 c 2.80142,-1.11318 5.4197,-2.42468 7.78362,-3.72195 -0.88824,0.53713 -1.86002,1.15871 -2.92478,1.71957 -1.14164,0.59027 -2.32313,1.23558 -3.50842,1.81162 l -3.44009,1.60001 c 12.30651,-4.47071 23.61564,-11.86904 32.56842,-21.51365 4.48208,-4.80758 8.47923,-10.08873 11.73807,-15.80166 a 89.11405,89.114111 0 0 0 7.86524,-18.02988 c -2.99312,9.42348 -7.65931,18.08018 -13.26785,25.39976 10.19596,-13.76702 16.27519,-30.64579 17.08089,-48.053146 -9.4e-4,0.959431 -0.0958,1.915065 -0.15943,2.870696 -0.0788,0.95564 -0.11673,1.91506 -0.22871,2.86786 -0.24388,1.90273 -0.4185,3.8159 -0.78482,5.70249 -0.59216,3.79597 -1.55254,7.52646 -2.64008,11.21234 2.14662,-6.66287 3.4287,-13.68826 3.93356,-20.753505 0.52574,-7.070937 0.0873,-14.184577 -1.00308,-21.078053 1.8733,9.131197 2.18362,19.477104 0.58742,29.701548 1.12172,-6.59455 1.40641,-13.392178 0.97556,-20.131917 -0.0968,-2.574613 -0.40046,-5.131197 -0.65006,-7.497983 -0.35776,-2.349702 -0.62822,-4.519098 -0.9746,-6.273783 1.37128,6.477816 1.91222,12.002845 2.17604,17.210913 -0.25339,-11.366073 -2.60784,-22.882088 -7.23132,-33.699642 2.52336,5.875207 4.59502,12.195491 5.86002,18.693237 1.27164,6.491102 1.80024,13.132146 1.4994,19.520758 -0.0142,-0.747807 0.017,-1.494663 -0.0266,-2.245315 l -0.10154,-2.269038 c 0.27236,10.29656 -1.31342,20.50201 -4.45647,30.09917 -1.57723,4.7981 -3.5255,9.4605 -5.88374,13.89703 a 90.648568,90.64863 0 0 1 -8.12336,12.63678 c 3.48564,-4.07118 7.16582,-9.82586 10.10295,-16.1471 2.92384,-6.33452 5.09418,-13.18528 6.58694,-19.16869 -2.19596,10.74449 -6.55467,21.34663 -12.87875,30.81471 -6.307,9.47569 -14.56796,17.80689 -24.12619,24.20119 -9.54686,6.41424 -20.37864,10.85362 -31.49417,13.04674 a 89.782139,89.7822 0 0 1 -16.756338,1.71672 89.643587,89.643648 0 0 1 -16.475432,-1.43772 l 2.851717,0.54188 c 0.950889,0.1803 1.915064,0.27995 2.871647,0.4223 1.913166,0.30747 3.848159,0.42324 5.776508,0.60071 3.865241,0.21731 7.751359,0.29039 11.62514,-0.005 3.880418,-0.20592 7.736178,-0.78481 11.573898,-1.4918 1.90368,-0.43274 3.83012,-0.78672 5.71008,-1.34188 0.9433,-0.26382 1.89798,-0.49442 2.83464,-0.78766 l 2.80426,-0.90914 c -1.41589,0.43844 -2.90581,1.01922 -4.49726,1.44532 l -1.99384,0.58648 a 87.090801,87.09086 0 0 0 12.25148,-4.26667 84.896734,84.896792 0 0 0 5.36275,-2.56703 91.722826,91.722888 0 0 1 -10.16749,4.62349 93.387356,93.38742 0 0 1 -20.55515,5.10747 c -1.05338,0.16702 -2.01376,0.21922 -2.874495,0.30938 l -2.304151,0.22776 c -1.356107,0.10723 -2.357293,0.15562 -3.057648,0.2325 -1.40166,0.1395 -1.600948,0.26951 -1.042942,0.37674 0.557058,0.10724 1.870461,0.19265 3.485644,0.2382 1.610438,-0.01 3.520757,-0.0958 5.258362,-0.25432 17.45859,-1.79076 33.48799,-8.64247 46.33354,-18.90012 12.85408,-10.25955 22.69891,-23.88803 28.18597,-39.35184 0.3445,-0.89775 0.60926,-1.82397 0.89586,-2.74259 0.27805,-0.92146 0.58552,-1.83344 0.837,-2.76346 0.46596,-1.86951 1.01732,-3.7172 1.37414,-5.61519 l 0.58743,-2.83274 0.46215,-2.85836 0.22872,-1.43013 0.16322,-1.43962 0.32456,-2.87924 c 0.6624,-7.700116 0.40047,-15.482798 -0.77058,-23.120282 -0.62634,-4.321708 -1.72716,-9.452906 -3.1459,-14.023249 l -1.09135,-3.306287 c -0.37959,-1.050534 -0.78291,-2.041281 -1.14163,-2.973191 l -0.5286,-1.342824 -0.54186,-1.206167 -0.93096,-2.015659 c -2.97417,-6.034522 -6.7113,-11.790156 -11.08615,-17.143418 -4.37011,-5.35516 -9.39121,-10.31364 -15.05194,-14.631552 l -2.12954,-1.616133 -2.2083,-1.525979 -1.10652,-0.764887 -1.14164,-0.717437 -2.29372,-1.43108 c -3.12692,-1.80688 -6.32976,-3.54828 -9.70627,-4.992645 -3.3414,-1.516489 -6.83843,-2.7473311 -10.3981,-3.8481616 -1.79834,-0.4934755 -3.58814,-1.0438907 -5.43202,-1.4225383 -0.91862,-0.1983393 -1.82966,-0.4393831 -2.75872,-0.6054568 l -2.79386,-0.494285 C 99.988132,4.7540478 93.038671,4.4740953 86.095852,4.9960407 79.156831,5.532221 72.18839,6.8494213 65.506544,9.1232053 l -2.500591,0.8664294 c -0.836061,0.2818503 -1.641754,0.6472123 -2.46453,0.9670223 -0.814233,0.340688 -1.646499,0.638672 -2.44555,1.014472 l -2.402845,1.113167 c -0.80854,0.356821 -1.589559,0.766786 -2.368681,1.181495 l -2.343059,1.230842 -2.279477,1.339976 c -0.759192,0.447925 -1.524079,0.88541 -2.251005,1.383631 l -2.205455,1.450058 c -0.742112,0.471649 -1.429181,1.023014 -2.145669,1.529775 -0.703203,0.525742 -1.432977,1.015422 -2.112455,1.569632 l -2.046973,1.648398 c -0.691814,0.536181 -1.34472,1.117913 -1.995728,1.700594 l -1.957768,1.736655 -1.870462,1.821115 c -0.622537,0.606405 -1.251719,1.206168 -1.831552,1.851482 -4.774374,5.027758 -8.968914,10.51293 -12.399517,16.316962 A 94.441685,94.441749 0 0 0 9.6603223,65.839691 C 5.5084867,78.100663 4.317503,90.5353 4.8717138,101.76662 4.7521409,97.143128 4.7322121,90.512524 5.586304,83.968278 Z M 139.51931,169.80078 a 91.86897,91.869032 0 0 0 8.3179,-6.06311 c -2.69514,2.21969 -5.46429,4.26951 -8.3179,6.06311 z m 38.16556,-51.51316 c -0.28374,0.85504 -0.52384,1.69964 -0.837,2.50628 l -0.90819,2.39431 -0.44223,1.18434 -0.48684,1.16821 a 103.00348,103.00355 0 0 0 -0.94614,2.37342 92.343466,92.343529 0 0 1 -6.251,12.66904 c -2.39241,4.05695 -5.16536,7.85861 -8.12811,11.42586 -1.46334,1.80214 -3.05764,3.47331 -4.62538,5.14448 l -2.44934,2.39431 c -0.8038,0.80476 -1.68352,1.52219 -2.51673,2.28138 -0.69846,0.60736 -1.40261,1.20142 -2.11151,1.786 a 86.069687,86.069746 0 0 0 7.49324,-6.93903 85.226983,85.227041 0 0 1 -11.09276,9.66833 c -0.98315,0.68517 -1.93309,1.41969 -2.95421,2.065 l -3.08137,1.96347 -3.25504,1.84958 c -1.10747,0.61495 -2.27663,1.16156 -3.44863,1.76039 a 70.420826,70.420874 0 0 1 2.54804,-1.43109 c 0.96892,-0.53808 1.98528,-1.1739 2.97794,-1.75563 1.00022,-0.57035 1.90936,-1.19668 2.66476,-1.72052 0.7554,-0.52385 1.34756,-0.95848 1.65599,-1.23938 -0.44033,0.29893 -0.88825,0.58552 -1.33429,0.87686 a 87.75984,87.7599 0 0 0 1.43014,-0.96322 c -0.02,0.0218 -0.0617,0.056 -0.0958,0.0864 10.37436,-7.08517 19.21232,-16.39572 25.83438,-27.0102 6.65147,-10.60497 10.97983,-22.56796 12.77341,-34.73403 -0.38908,4.8797 -1.28302,8.77626 -2.41328,12.19549 z m -6.31458,-62.01851 z m -8.01708,-12.050296 a 87.658298,87.658358 0 0 1 7.37651,13.619928 c 0.23725,0.520996 0.46121,1.049585 0.68232,1.579122 4.70985,11.534044 6.85267,23.906997 6.53855,36.095846 0.0798,-4.033214 -0.1879,-8.064531 -0.63488,-12.061683 -0.5058,-4.606406 -1.44056,-9.15777 -2.67994,-13.60949 -2.43132,-8.927164 -6.38007,-17.388374 -11.39264,-25.101777 0.46026,0.635824 0.94519,1.324792 1.44721,2.055516 a 31.151578,31.151599 0 0 1 1.5089,2.337365 l -0.60546,-1.052431 -0.65386,-1.023961 -1.3077,-2.046027 c -0.89016,-1.351365 -1.85528,-2.65338 -2.78434,-3.978172 -1.00784,-1.265955 -1.96346,-2.573666 -3.0121,-3.806406 -0.79336,-0.90439 -1.5535,-1.839146 -2.35824,-2.732147 2.83938,2.994069 5.5051,6.206405 7.87567,9.724317 z M 96.688491,5.8377963 c 1.392169,0.074022 2.787185,0.2097271 4.182199,0.3141162 1.14259,0.095848 2.27948,0.2647686 3.40499,0.3919335 0.33784,0.014234 0.69466,0.03701 1.14258,0.087308 0.44698,0.061684 0.98126,0.1765124 1.67876,0.3359429 5.19004,0.8654804 9.9255,2.166548 13.28683,3.5103201 6.45124,2.441756 12.4536,5.479477 17.89797,8.987899 5.44626,3.501779 10.33356,7.484698 14.46832,11.834875 1.90557,2.067852 1.34946,1.617082 0.29893,0.613048 l 1.57722,1.674023 c -0.69845,-0.696561 -1.38457,-1.40261 -2.09347,-2.083987 l -2.18363,-1.983392 c 0.53143,0.465006 1.82017,1.578172 2.69988,2.393356 -7.0121,-7.154447 -15.20854,-13.095134 -24.08065,-17.465242 -8.87876,-4.368208 -18.43984,-7.0661914 -27.99713,-8.143297 1.53547,0.1708186 2.28897,0.2087782 3.0064,0.227758 -1.02965,-0.1205219 -2.06216,-0.2856465 -3.107,-0.3805456 -1.403554,-0.092052 -2.804265,-0.2173191 -4.197383,-0.2856465 l -4.137602,-0.097746 c 1.370343,-9.49e-4 2.758717,0.03701 4.152786,0.069276 z"
         id="path17"
         style="stroke-width:0.948991" />
      <path
         d="m 115.942,184.69 0.426,-0.125 c -0.446,0.12 -0.885,0.252 -1.334,0.366 0.304,-0.076 0.609,-0.15 0.908,-0.241 z m 44.482,-38.539 c 4.235,-5.587 7.977,-12.263 10.366,-18.014 l -0.029,0.006 c -6.061,14.322 -15.892,26.66 -28.16,35.744 a 159.12,159.12 0 0 0 6.418,-4.703 c 2.698,-2.82 7.213,-7.406 11.405,-13.033 z M 35.35,162.846 c 7.172,6.412 15.821,11.992 25.448,15.751 3.754,1.413 7.585,2.651 11.503,3.523 1.944,0.502 3.929,0.812 5.899,1.181 0.987,0.175 1.987,0.272 2.979,0.412 0.994,0.129 1.986,0.275 2.987,0.333 -4.519,-0.501 -9.005,-1.251 -13.372,-2.44 -4.364,-1.185 -8.642,-2.65 -12.769,-4.449 a 97.4,97.4 0 0 1 -11.894,-6.314 c -3.786,-2.408 -7.376,-5.097 -10.781,-7.997 z m 88.527,11.431 -2.219,0.871 -2.266,0.756 c -1.5,0.54 -3.047,0.944 -4.59,1.373 1.551,-0.39 3.111,-0.754 4.624,-1.254 l 2.283,-0.698 2.23,-0.815 c -0.086,-0.044 -0.594,0.055 -0.062,-0.233 z m -26.194,5.688 c -1.16,0.099 -2.326,0.09 -3.494,0.102 -1.168,0.014 -2.338,0.039 -3.509,-0.038 l 1.576,0.148 c 0.482,0.031 0.916,0.068 1.295,0.113 1.381,-0.118 2.752,-0.151 4.132,-0.325 z M 51.441,169.209 c 1.341,0.787 2.765,1.48 4.178,2.244 0.354,0.194 0.996,0.415 1.801,0.709 -1.721,-0.739 -3.37,-1.655 -5.046,-2.505 -0.83,-0.441 -1.629,-0.935 -2.443,-1.395 -0.812,-0.464 -1.621,-0.927 -2.389,-1.445 l 0.937,0.626 0.977,0.584 z"
         id="path19" />
    </g>
    <g
       id="SvgjsG19527"
       featureKey="monogramFeature-0"
       transform="matrix(2.7650715,0,0,2.6426408,50.723044,-21.51404)"
       fill="#000000"
       inkscape:export-filename="C:\Users\Ricky\Downloads\70103297\Brand Assets Download (1ad244d9-fb00-445b-b50d-843dd2820e37)\Logo Files\For Web\png\Black logo - no background - no name.png"
       inkscape:export-xdpi="96"
       inkscape:export-ydpi="96">
      <path
         d="m -2.1056643,33.6 c -1.6799998,0.96 -1.9199998,-0.36 -0.1800001,-1.32 4.0200006,-2.22 10.200007,-5.4 16.3800124,-7.5 1.74,-5.82 2.82,-8.82 3.06,-9.36 0.36,-0.96 1.62,-1.08 1.14,0.18 -0.24,0.6 -1.38,4.02 -2.76,8.7 3.12,-0.96 6.18,-1.56 8.88,-1.56 8.58,0 13.32,1.8 13.32,6.84 0,5.88 -6.9,10.92 -13.68,14.28 -2.94,1.5 -10.2,5.1 -15.7800042,7.86 L 7.0743398,56.4 25.134348,55.62 c 1.74,-0.06 2.16,1.44 0.72,1.5 -0.96,0.06 -11.22,0.48 -19.1400098,0.72 -1.740002,6.96 -3.120002,12.66 -3.420002,14.22 -0.54,2.52 -0.54,2.76 -0.18,2.58 0.36,-0.18 0.6,0.12 -0.54,1.38 -1.08,1.2 -1.68000002,0.54 -1.14,-1.62 l 4.14,-16.5 c -3.9,0.12 -7.3200005,0.24 -7.8000005,0.18 -1.5599998,-0.06 -2.6999995,-1.44 -0.48,-2.4 1.14,-0.48 5.1000005,-2.46 10.0800049,-4.98 L 9.174347,43.2 C 10.854348,36.3 12.354348,30.78 13.554348,26.52 7.9143426,28.5 1.9743362,31.32 -2.1056643,33.6 Z M 10.314348,43.26 8.6943454,49.98 22.674348,42.84 c 9.42,-4.74 14.04,-9.48 14.04,-13.56 0,-3.3 -4.86,-5.16 -12.3,-5.16 -2.52,0 -5.88,0.78 -9.42,1.92 -1.5,5.1 -3.24,11.34 -4.68,17.22 z M 5.9343362,56.46 6.954339,52.32 c -2.5200028,1.26 -4.6200028,2.22 -5.5200028,2.58 -3.0600006,1.26 -3.4200005,1.74 -1.14000017,1.74 0.60000015,0 2.94000017,-0.06 5.64000017,-0.18 z"
         id="path22" />
    </g>
  </g>
</svg>
