<svg data-v-fde0c5aa="" xmlns="http://www.w3.org/2000/svg" viewBox="0 0 300 300" class="iconAboveSlogan"><!----><defs data-v-fde0c5aa=""><!----></defs><rect data-v-fde0c5aa="" fill="#EBEAF4" x="0" y="0" width="300px" height="300px" class="logo-background-square"></rect><defs data-v-fde0c5aa=""><!----></defs><g data-v-fde0c5aa="" id="2dc37f37-fa65-46a9-b253-c101b1e1f4b4" fill="#2F2849" transform="matrix(4.866180020867672,0,0,4.866180020867672,16.885644566209024,146.38362711192735)"><path d="M0.64 12.61L0.64 12.33L1.64 12.10L1.74 10.90L1.74 5.39L1.64 4.18L0.64 3.96L0.64 3.64L7.19 3.64L7.59 5.41L7.38 5.47L7.19 5.39L6.25 4.06L4.25 4.06L3.34 4.22L3.28 5.18L3.28 7.74L4.25 7.88L5.65 7.78L6.21 6.89L6.37 6.79L6.55 6.86L6.55 9.35L6.38 9.39L6.21 9.30L5.71 8.41L4.25 8.31L3.28 8.48L3.28 10.90L3.36 12.10L4.44 12.33L4.44 12.61L0.64 12.61ZM9.86 5.03L9.86 5.03Q9.50 5.03 9.26 4.81L9.26 4.81L9.26 4.81Q9.01 4.59 9.01 4.28L9.01 4.28L9.01 4.28Q9.01 3.96 9.26 3.73L9.26 3.73L9.26 3.73Q9.52 3.50 9.86 3.50L9.86 3.50L9.86 3.50Q10.21 3.50 10.47 3.73L10.47 3.73L10.47 3.73Q10.72 3.96 10.72 4.28L10.72 4.28L10.72 4.28Q10.72 4.59 10.47 4.81L10.47 4.81L10.47 4.81Q10.21 5.03 9.86 5.03L9.86 5.03ZM8.23 12.61L8.23 12.33L9.17 12.10L9.28 10.90L9.28 8.68L9.17 7.71L8.22 7.45L8.22 7.18L10.65 6.55L10.81 6.73L10.71 7.55L10.71 10.90L10.79 12.10L11.69 12.33L11.69 12.61L8.23 12.61ZM12.63 12.59L12.48 12.40L12.51 12.28L16.08 7.23L14.25 7.21L14.25 7.21Q13.85 7.21 13.60 7.40L13.60 7.40L13.60 7.40Q13.34 7.59 13.23 7.80L13.23 7.80L13.23 7.80Q13.13 8.01 12.99 8.34L12.99 8.34L12.69 8.44L12.62 8.41L12.87 6.77L17.84 6.77L17.88 6.93L17.88 6.93Q17.61 7.29 15.92 9.67L15.92 9.67L15.92 9.67Q14.23 12.04 14.23 12.11L14.23 12.11L14.23 12.18L16.06 12.18L16.06 12.18Q16.69 12.18 17.14 11.76L17.14 11.76L17.14 11.76Q17.58 11.33 17.73 10.84L17.73 10.84L17.83 10.80L18.10 10.90L17.50 12.59L12.63 12.59ZM19.14 12.59L18.99 12.40L19.02 12.28L22.59 7.23L20.75 7.21L20.75 7.21Q20.36 7.21 20.10 7.40L20.10 7.40L20.10 7.40Q19.85 7.59 19.74 7.80L19.74 7.80L19.74 7.80Q19.63 8.01 19.50 8.34L19.50 8.34L19.20 8.44L19.13 8.41L19.37 6.77L24.35 6.77L24.39 6.93L24.39 6.93Q24.12 7.29 22.43 9.67L22.43 9.67L22.43 9.67Q20.74 12.04 20.74 12.11L20.74 12.11L20.74 12.18L22.57 12.18L22.57 12.18Q23.20 12.18 23.65 11.76L23.65 11.76L23.65 11.76Q24.09 11.33 24.24 10.84L24.24 10.84L24.34 10.80L24.61 10.90L24.01 12.59L19.14 12.59ZM25.55 12.61L25.55 12.26L26.55 12.04L26.65 10.84L26.65 5.39L26.55 4.18L25.55 3.96L25.55 3.64L29.57 3.64L29.57 3.64Q30.28 3.64 30.95 3.85L30.95 3.85L30.95 3.85Q31.61 4.06 32.04 4.50L32.04 4.50L32.04 4.50Q32.47 4.95 32.47 5.62L32.47 5.62L32.47 5.62Q32.47 6.25 32.05 6.75L32.05 6.75L32.05 6.75Q31.62 7.26 30.86 7.53L30.86 7.53L30.86 7.74L30.86 7.74Q31.49 7.79 32.02 8.13L32.02 8.13L32.02 8.13Q32.55 8.48 32.86 9.01L32.86 9.01L32.86 9.01Q33.17 9.54 33.17 10.17L33.17 10.17L33.17 10.17Q33.17 11.51 31.97 12.06L31.97 12.06L31.97 12.06Q30.78 12.61 28.89 12.61L28.89 12.61L25.55 12.61ZM28.19 7.60L29.35 7.60L29.35 7.60Q30.05 7.60 30.44 7.13L30.44 7.13L30.44 7.13Q30.83 6.66 30.83 5.88L30.83 5.88L30.83 5.88Q30.83 5.00 30.34 4.52L30.34 4.52L30.34 4.52Q29.85 4.03 29.03 4.03L29.03 4.03L28.25 4.18L28.19 5.18L28.19 7.60ZM29.04 12.21L29.04 12.21Q30.13 12.21 30.76 11.75L30.76 11.75L30.76 11.75Q31.39 11.29 31.39 10.16L31.39 10.16L31.39 10.16Q31.39 9.20 30.86 8.60L30.86 8.60L30.86 8.60Q30.32 8.00 29.07 8.00L29.07 8.00L28.19 8.00L28.19 11.06L28.30 12.06L29.04 12.21ZM38.95 12.70L38.84 12.50L38.84 12.06L38.76 11.91L38.76 11.91Q38.36 12.25 37.78 12.47L37.78 12.47L37.78 12.47Q37.19 12.69 36.70 12.69L36.70 12.69L36.70 12.69Q35.68 12.69 35.30 12.18L35.30 12.18L35.30 12.18Q34.92 11.68 34.92 10.66L34.92 10.66L34.92 8.60L34.78 7.60L33.89 7.33L33.89 7.04L36.26 6.55L36.42 6.75L36.30 7.62L36.30 10.27L36.30 10.27Q36.30 11.01 36.42 11.38L36.42 11.38L36.42 11.38Q36.54 11.76 36.83 11.89L36.83 11.89L36.83 11.89Q37.11 12.03 37.65 12.03L37.65 12.03L38.84 11.32L38.84 8.60L38.72 7.60L37.86 7.33L37.88 7.04L40.21 6.55L40.37 6.75L40.24 7.60L40.24 10.95L40.36 11.77L41.15 11.98L41.18 12.09L41.10 12.28L38.95 12.70ZM42.10 12.59L41.95 12.40L41.97 12.28L45.54 7.23L43.71 7.21L43.71 7.21Q43.31 7.21 43.06 7.40L43.06 7.40L43.06 7.40Q42.81 7.59 42.70 7.80L42.70 7.80L42.70 7.80Q42.59 8.01 42.45 8.34L42.45 8.34L42.15 8.44L42.08 8.41L42.33 6.77L47.30 6.77L47.35 6.93L47.35 6.93Q47.07 7.29 45.38 9.67L45.38 9.67L45.38 9.67Q43.70 12.04 43.70 12.11L43.70 12.11L43.70 12.18L45.53 12.18L45.53 12.18Q46.16 12.18 46.60 11.76L46.60 11.76L46.60 11.76Q47.04 11.33 47.20 10.84L47.20 10.84L47.29 10.80L47.56 10.90L46.96 12.59L42.10 12.59ZM48.60 12.59L48.45 12.40L48.48 12.28L52.05 7.23L50.22 7.21L50.22 7.21Q49.82 7.21 49.57 7.40L49.57 7.40L49.57 7.40Q49.31 7.59 49.21 7.80L49.21 7.80L49.21 7.80Q49.10 8.01 48.96 8.34L48.96 8.34L48.66 8.44L48.59 8.41L48.84 6.77L53.81 6.77L53.85 6.93L53.85 6.93Q53.58 7.29 51.89 9.67L51.89 9.67L51.89 9.67Q50.20 12.04 50.20 12.11L50.20 12.11L50.20 12.18L52.04 12.18L52.04 12.18Q52.66 12.18 53.11 11.76L53.11 11.76L53.11 11.76Q53.55 11.33 53.70 10.84L53.70 10.84L53.80 10.80L54.07 10.90L53.47 12.59L48.60 12.59Z"></path></g><defs data-v-fde0c5aa=""><linearGradient data-v-fde0c5aa="" gradientTransform="rotate(25)" id="f96fc0de-5f06-4739-ac35-6ad91f58ad70" x1="0%" y1="0%" x2="100%" y2="0%"><stop data-v-fde0c5aa="" offset="0%" stop-color="#E98E0D" stop-opacity="1"></stop><stop data-v-fde0c5aa="" offset="100%" stop-color="#1536F1" stop-opacity="1"></stop></linearGradient></defs><g data-v-fde0c5aa="" id="c28534c4-4d87-4a27-9456-813eed6d40c3" stroke="none" fill="url(#f96fc0de-5f06-4739-ac35-6ad91f58ad70)" transform="matrix(0.8700792532740497,0,0,0.8700792532740497,106.4960348469808,67.10813102847762)"><path d="M57.01 48.108c-.176.006-1.677.072-3.864.547-4.305-3.678-9.549-3.72-12.925-2.07-1.59.778-2.452 1.792-2.368 2.782.028.33.215 1.13 1.355 1.465 1.66.487 2.976 1.533 3.73 2.249a24.09 24.09 0 0 0-5.079 4.835c-1.463-3.424-5.387-10.433-12.427-9.805a1 1 0 0 0-.91.976c-.007.324-.103 7.373 3.675 10.922-3.778 3.549-3.682 10.597-3.676 10.922a1 1 0 0 0 .91.975c.306.028.606.041.9.041 6.509 0 10.128-6.57 11.528-9.845a24.131 24.131 0 0 0 5.55 5.16c-.757.714-2.065 1.745-3.708 2.226-1.14.335-1.327 1.136-1.355 1.465-.084.991.779 2.005 2.368 2.782 1.345.658 2.986 1.048 4.746 1.048 2.724 0 5.731-.949 8.368-3.281 1.824.35 3.047.403 3.214.408h.087c14.69 0 18.396-11.491 18.433-11.607a1.003 1.003 0 0 0-.023-.653C70.51 46.57 57.057 48.1 57.011 48.108zM26.55 69.941c.116-2.104.722-7.124 3.805-9.088a1.001 1.001 0 0 0 0-1.688c-3.083-1.965-3.689-6.984-3.805-9.088 6.191.218 9.385 8.27 9.978 9.933-.591 1.664-3.773 9.716-9.978 9.931zm13.557-20.926c.437-.38 1.372-.93 2.78-1.247 1.337-.302 4.522-.663 7.815 1.528a28.002 28.002 0 0 0-6.051 2.669c-.781-.802-2.358-2.193-4.544-2.95zm-1.31 10.994c4.99-7.052 12.754-9.095 16.38-9.68-1.702 3.369-4.509 11.1.001 19.362-3.571-.572-11.373-2.603-16.381-9.682zm4.582 12.544c-1.41-.319-2.347-.87-2.781-1.25 2.182-.73 3.779-2.152 4.561-2.96a28.384 28.384 0 0 0 6.2 2.572c-3.35 2.313-6.619 1.947-7.98 1.638zm14.237-2.661c-5.939-9.329-1.183-17.978-.017-19.83 2.181-.146 11.83-.181 15.941 9.967-.657 1.731-4.314 9.654-15.924 9.863z"></path><path d="M63.626 54.092a3.653 3.653 0 0 0-3.644 3.654 1 1 0 1 0 2 0 1.65 1.65 0 0 1 1.644-1.654c.907 0 1.645.742 1.645 1.654a1 1 0 1 0 2 0 3.654 3.654 0 0 0-3.645-3.654z"></path><path d="M74.454 21.33a2.085 2.085 0 0 0 1.963-2.078v-7.17A2.084 2.084 0 0 0 74.335 10h-48.67a2.084 2.084 0 0 0-2.082 2.081v7.171c0 1.107.87 2.016 1.963 2.078A39.887 39.887 0 0 0 10 52.978c0 16.216 9.679 30.718 24.658 36.946.121.05.252.076.384.076h29.916c.132 0 .263-.026.384-.076C80.322 83.696 90 69.194 90 52.978A39.887 39.887 0 0 0 74.454 21.33zm-48.871-9.249c0-.045.037-.081.082-.081h48.67c.045 0 .082.036.082.081v7.171a.082.082 0 0 1-.082.081h-48.67a.082.082 0 0 1-.082-.081v-7.17zm3.402 9.252h42.03a38.15 38.15 0 0 1 9.852 9.48H19.133a38.15 38.15 0 0 1 9.852-9.48zM64.757 88H35.243C21.116 82.042 12 68.317 12 52.978a37.897 37.897 0 0 1 5.786-20.166h64.428A37.897 37.897 0 0 1 88 52.978C88 68.318 78.884 82.042 64.757 88z"></path><path d="M75.262 38.294c-2.93 0-5.313 2.383-5.313 5.312s2.383 5.313 5.313 5.313 5.312-2.383 5.312-5.313-2.383-5.312-5.312-5.312zm0 8.625c-1.826 0-3.313-1.486-3.313-3.313s1.487-3.312 3.313-3.312 3.312 1.486 3.312 3.312-1.486 3.313-3.312 3.313zM60.922 74.55c-2.707 0-4.91 2.203-4.91 4.91s2.203 4.91 4.91 4.91 4.91-2.203 4.91-4.91-2.203-4.91-4.91-4.91zm0 7.82c-1.605 0-2.91-1.306-2.91-2.91s1.305-2.91 2.91-2.91 2.91 1.305 2.91 2.91-1.306 2.91-2.91 2.91zM35.16 44.932c2.443 0 4.43-1.989 4.43-4.432s-1.987-4.432-4.43-4.432-4.432 1.989-4.432 4.432 1.988 4.432 4.431 4.432zm0-6.864c1.339 0 2.43 1.091 2.43 2.432s-1.091 2.432-2.43 2.432c-1.342 0-2.432-1.091-2.432-2.432s1.09-2.432 2.431-2.432z"></path></g><defs data-v-fde0c5aa=""><!----></defs><g data-v-fde0c5aa="" id="2ccd4cdc-2efa-423e-bbba-2e97bd32a10a" fill="#2F2849" transform="matrix(0.4715042110080519,0,0,0.4715042110080519,51.052482103681584,215.92560729605447)"><path d="M3.21 15.61L3.21 15.61L3.21 15.61Q3.14 15.04 3.10 14.36L3.10 14.36L3.10 14.36Q3.07 13.68 3.07 13.09L3.07 13.09L3.07 13.09Q3.07 12.15 3.13 11.29L3.13 11.29L3.13 11.29Q3.19 10.43 3.28 9.48L3.28 9.48L3.28 9.48Q3.37 8.54 3.49 7.43L3.49 7.43L3.49 7.43Q3.60 6.31 3.68 4.86L3.68 4.86L3.68 4.86Q3.86 4.86 4.21 4.96L4.21 4.96L4.21 4.96Q4.55 5.07 4.90 5.21L4.90 5.21L4.90 5.21Q5.25 5.35 5.52 5.49L5.52 5.49L5.52 5.49Q5.78 5.64 5.82 5.74L5.82 5.74L5.82 5.74Q5.59 6.29 5.40 7.18L5.40 7.18L5.40 7.18Q5.21 8.06 5.08 9.11L5.08 9.11L5.08 9.11Q4.96 10.16 4.89 11.27L4.89 11.27L4.89 11.27Q4.82 12.38 4.82 13.34L4.82 13.34L4.82 13.34Q4.82 13.79 4.83 14.22L4.83 14.22L4.83 14.22Q4.84 14.66 4.87 15.02L4.87 15.02L4.87 15.02Q5.17 14.59 5.55 13.78L5.55 13.78L5.55 13.78Q5.94 12.98 6.35 11.98L6.35 11.98L6.35 11.98Q6.76 10.99 7.17 9.91L7.17 9.91L7.17 9.91Q7.59 8.82 7.94 7.83L7.94 7.83L7.94 7.83Q8.29 6.85 8.53 6.05L8.53 6.05L8.53 6.05Q8.78 5.26 8.88 4.86L8.88 4.86L8.88 4.86Q9.06 4.86 9.42 4.96L9.42 4.96L9.42 4.96Q9.77 5.07 10.12 5.21L10.12 5.21L10.12 5.21Q10.46 5.35 10.72 5.49L10.72 5.49L10.72 5.49Q10.99 5.64 11.02 5.74L11.02 5.74L11.02 5.74Q10.78 6.29 10.59 7.18L10.59 7.18L10.59 7.18Q10.40 8.06 10.28 9.11L10.28 9.11L10.28 9.11Q10.15 10.16 10.08 11.27L10.08 11.27L10.08 11.27Q10.01 12.38 10.01 13.34L10.01 13.34L10.01 13.34Q10.01 13.75 10.02 14.15L10.02 14.15L10.02 14.15Q10.02 14.55 10.05 14.87L10.05 14.87L10.05 14.87Q10.50 13.71 10.98 12.56L10.98 12.56L10.98 12.56Q11.47 11.42 11.94 10.38L11.94 10.38L11.94 10.38Q12.42 9.34 12.87 8.43L12.87 8.43L12.87 8.43Q13.31 7.53 13.69 6.82L13.69 6.82L13.69 6.82Q14.07 6.12 14.35 5.66L14.35 5.66L14.35 5.66Q14.63 5.19 14.78 5.04L14.78 5.04L14.78 5.04Q15.11 5.08 15.45 5.27L15.45 5.27L15.45 5.27Q15.79 5.46 16.06 5.75L16.06 5.75L16.06 5.75Q15.65 6.08 15.13 6.81L15.13 6.81L15.13 6.81Q14.62 7.55 14.07 8.51L14.07 8.51L14.07 8.51Q13.52 9.48 12.97 10.57L12.97 10.57L12.97 10.57Q12.42 11.66 11.94 12.70L11.94 12.70L11.94 12.70Q11.47 13.73 11.10 14.63L11.10 14.63L11.10 14.63Q10.72 15.53 10.53 16.07L10.53 16.07L10.53 16.07Q10.16 16.24 9.81 16.24L9.81 16.24L9.81 16.24Q9.37 16.18 8.97 16.02L8.97 16.02L8.97 16.02Q8.57 15.85 8.40 15.61L8.40 15.61L8.40 15.61Q8.36 15.39 8.33 15.09L8.33 15.09L8.33 15.09Q8.30 14.78 8.29 14.49L8.29 14.49L8.29 14.49Q8.27 14.20 8.27 13.92L8.27 13.92L8.27 13.92Q8.26 13.65 8.26 13.45L8.26 13.45L8.26 13.45Q8.26 12.21 8.36 10.91L8.36 10.91L8.36 10.91Q8.46 9.62 8.60 8.13L8.60 8.13L8.60 8.13Q8.27 9.09 7.88 10.18L7.88 10.18L7.88 10.18Q7.49 11.27 7.06 12.34L7.06 12.34L7.06 12.34Q6.64 13.41 6.20 14.38L6.20 14.38L6.20 14.38Q5.75 15.36 5.33 16.07L5.33 16.07L5.33 16.07Q4.97 16.24 4.62 16.24L4.62 16.24L4.62 16.24Q4.17 16.18 3.77 16.02L3.77 16.02L3.77 16.02Q3.37 15.85 3.21 15.61ZM27.22 14.36L27.22 14.36L27.22 14.36Q27.22 13.78 27.41 12.85L27.41 12.85L27.41 12.85Q27.61 11.93 27.93 10.88L27.93 10.88L27.93 10.88Q27.01 10.95 26.07 11.06L26.07 11.06L26.07 11.06Q25.14 11.17 24.46 11.19L24.46 11.19L24.46 11.19Q23.83 12.66 23.46 13.89L23.46 13.89L23.46 13.89Q23.09 15.13 22.88 16.31L22.88 16.31L22.88 16.31Q22.34 16.18 21.99 15.87L21.99 15.87L21.99 15.87Q21.64 15.55 21.35 15.08L21.35 15.08L21.35 15.08Q21.46 14.85 21.61 14.50L21.61 14.50L21.61 14.50Q21.76 14.15 21.96 13.66L21.96 13.66L21.96 13.66Q22.16 13.16 22.42 12.50L22.42 12.50L22.42 12.50Q22.68 11.83 23.02 10.95L23.02 10.95L23.02 10.95Q22.55 10.75 22.40 10.40L22.40 10.40L22.40 10.40Q22.47 10.35 22.71 10.28L22.71 10.28L22.71 10.28Q22.96 10.22 23.32 10.15L23.32 10.15L23.51 9.70L23.51 9.70Q23.80 8.95 23.99 8.43L23.99 8.43L23.99 8.43Q24.18 7.91 24.31 7.41L24.31 7.41L24.31 7.41Q24.44 6.92 24.56 6.31L24.56 6.31L24.56 6.31Q24.68 5.71 24.85 4.79L24.85 4.79L24.85 4.79Q25.44 4.90 25.92 5.31L25.92 5.31L25.92 5.31Q26.40 5.71 26.75 6.29L26.75 6.29L26.75 6.29Q26.63 6.45 26.45 6.79L26.45 6.79L26.45 6.79Q26.26 7.13 26.05 7.59L26.05 7.59L26.05 7.59Q25.83 8.06 25.58 8.64L25.58 8.64L25.58 8.64Q25.33 9.23 25.03 9.87L25.03 9.87L25.03 9.87Q25.90 9.76 26.79 9.66L26.79 9.66L26.79 9.66Q27.68 9.56 28.36 9.52L28.36 9.52L28.36 9.52Q28.62 8.79 28.89 8.10L28.89 8.10L28.89 8.10Q29.16 7.41 29.43 6.83L29.43 6.83L29.43 6.83Q29.69 6.26 29.94 5.82L29.94 5.82L29.94 5.82Q30.18 5.39 30.38 5.18L30.38 5.18L30.38 5.18Q30.52 5.19 30.75 5.29L30.75 5.29L30.75 5.29Q30.98 5.38 31.22 5.50L31.22 5.50L31.22 5.50Q31.46 5.63 31.65 5.78L31.65 5.78L31.65 5.78Q31.85 5.92 31.92 6.05L31.92 6.05L31.92 6.05Q31.67 6.29 31.42 6.66L31.42 6.66L31.42 6.66Q31.16 7.04 30.92 7.53L30.92 7.53L30.92 7.53Q30.67 8.02 30.44 8.60L30.44 8.60L30.44 8.60Q30.20 9.17 29.99 9.79L29.99 9.79L29.99 9.79Q30.27 10.04 30.27 10.42L30.27 10.42L30.27 10.42Q30.27 10.68 30.16 10.91L30.16 10.91L30.16 10.91Q30.03 10.88 29.90 10.87L29.90 10.87L29.90 10.87Q29.78 10.86 29.64 10.85L29.64 10.85L29.64 10.85Q29.40 11.61 29.20 12.35L29.20 12.35L29.20 12.35Q29.01 13.09 28.88 13.76L28.88 13.76L28.88 13.76Q28.74 14.43 28.66 14.99L28.66 14.99L28.66 14.99Q28.59 15.55 28.59 15.93L28.59 15.93L28.59 15.93Q28.59 16.07 28.59 16.16L28.59 16.16L28.59 16.16Q28.60 16.24 28.62 16.30L28.62 16.30L28.62 16.30Q28.31 16.28 28.17 16.19L28.17 16.19L28.17 16.19Q28.03 16.10 27.96 16.00L27.96 16.00L27.96 16.00Q27.89 15.89 27.83 15.79L27.83 15.79L27.83 15.79Q27.78 15.68 27.65 15.62L27.65 15.62L27.65 15.62Q27.55 15.58 27.47 15.43L27.47 15.43L27.47 15.43Q27.38 15.27 27.33 15.08L27.33 15.08L27.33 15.08Q27.27 14.88 27.24 14.69L27.24 14.69L27.24 14.69Q27.22 14.49 27.22 14.36ZM43.99 9.21L43.99 9.21L43.99 9.21Q44.45 9.21 44.71 9.46L44.71 9.46L44.71 9.46Q44.97 9.72 44.97 10.16L44.97 10.16L44.97 10.16Q44.97 10.28 44.95 10.39L44.95 10.39L44.95 10.39Q44.93 10.51 44.90 10.60L44.90 10.60L44.90 10.60Q44.72 10.57 44.49 10.55L44.49 10.55L44.49 10.55Q44.27 10.53 43.96 10.53L43.96 10.53L43.96 10.53Q43.36 10.53 42.74 10.63L42.74 10.63L42.74 10.63Q42.13 10.74 41.57 10.81L41.57 10.81L41.57 10.81Q41.24 11.55 40.98 12.24L40.98 12.24L40.98 12.24Q40.71 12.94 40.52 13.51L40.52 13.51L40.52 13.51Q40.33 14.08 40.23 14.50L40.23 14.50L40.23 14.50Q40.12 14.92 40.11 15.13L40.11 15.13L40.11 15.13Q41.24 14.90 42.40 14.73L42.40 14.73L42.40 14.73Q43.55 14.56 44.83 14.48L44.83 14.48L44.83 14.48Q44.98 14.71 45.09 14.99L45.09 14.99L45.09 14.99Q45.19 15.27 45.19 15.60L45.19 15.60L45.19 15.60Q45.19 15.68 45.19 15.78L45.19 15.78L45.19 15.78Q45.19 15.88 45.16 15.97L45.16 15.97L45.16 15.97Q44.77 15.96 44.34 15.95L44.34 15.95L44.34 15.95Q43.90 15.95 43.20 15.95L43.20 15.95L43.20 15.95Q42.74 15.95 42.33 15.97L42.33 15.97L42.33 15.97Q41.92 15.99 41.50 16.03L41.50 16.03L41.50 16.03Q41.08 16.07 40.61 16.14L40.61 16.14L40.61 16.14Q40.14 16.21 39.55 16.31L39.55 16.31L39.55 16.31Q38.91 16.06 38.30 15.08L38.30 15.08L38.30 15.08Q38.54 14.57 38.97 13.54L38.97 13.54L38.97 13.54Q39.40 12.52 40.05 10.79L40.05 10.79L40.05 10.79Q39.42 10.60 39.23 10.09L39.23 10.09L39.23 10.09Q39.30 10.02 39.63 9.92L39.63 9.92L39.63 9.92Q39.97 9.81 40.46 9.70L40.46 9.70L40.46 9.70Q40.67 9.16 40.82 8.75L40.82 8.75L40.82 8.75Q40.96 8.34 41.08 7.99L41.08 7.99L41.08 7.99Q41.19 7.63 41.28 7.29L41.28 7.29L41.28 7.29Q41.37 6.94 41.45 6.54L41.45 6.54L41.45 6.54Q40.96 6.51 40.68 6.27L40.68 6.27L40.68 6.27Q40.40 6.02 40.40 5.63L40.40 5.63L40.40 5.63Q40.40 5.52 40.44 5.36L40.44 5.36L40.44 5.36Q40.47 5.21 40.52 5.10L40.52 5.10L40.52 5.10Q40.80 5.14 41.05 5.15L41.05 5.15L41.05 5.15Q41.31 5.17 41.73 5.17L41.73 5.17L41.73 5.17Q42.62 5.17 43.39 5.12L43.39 5.12L43.39 5.12Q44.16 5.07 44.78 5.01L44.78 5.01L44.78 5.01Q45.40 4.96 45.85 4.91L45.85 4.91L45.85 4.91Q46.30 4.86 46.54 4.86L46.54 4.86L46.54 4.86Q46.86 4.86 47.11 5.19L47.11 5.19L47.11 5.19Q47.36 5.53 47.49 6.15L47.49 6.15L47.49 6.15Q47.05 6.10 46.78 6.09L46.78 6.09L46.78 6.09Q46.51 6.08 46.30 6.08L46.30 6.08L46.30 6.08Q45.53 6.08 44.89 6.15L44.89 6.15L44.89 6.15Q44.25 6.23 43.67 6.31L43.67 6.31L43.67 6.31Q43.58 6.44 43.48 6.64L43.48 6.64L43.48 6.64Q43.37 6.83 43.20 7.18L43.20 7.18L43.20 7.18Q43.04 7.53 42.79 8.06L42.79 8.06L42.79 8.06Q42.55 8.60 42.20 9.39L42.20 9.39L42.20 9.39Q42.73 9.31 43.20 9.26L43.20 9.26L43.20 9.26Q43.67 9.21 43.99 9.21ZM54.98 16.24L54.98 16.24L54.98 16.24Q54.18 16.00 53.90 15.79L53.90 15.79L53.90 15.79Q53.62 15.57 53.62 15.19L53.62 15.19L53.62 15.19Q53.62 14.77 53.82 14.01L53.82 14.01L53.82 14.01Q54.01 13.24 54.33 12.31L54.33 12.31L54.33 12.31Q54.64 11.37 55.05 10.35L55.05 10.35L55.05 10.35Q55.45 9.32 55.87 8.39L55.87 8.39L55.87 8.39Q56.29 7.45 56.69 6.67L56.69 6.67L56.69 6.67Q57.09 5.89 57.40 5.46L57.40 5.46L57.30 4.87L57.30 4.87Q57.50 4.87 57.85 4.97L57.85 4.97L57.85 4.97Q58.20 5.07 58.55 5.21L58.55 5.21L58.55 5.21Q58.91 5.35 59.18 5.49L59.18 5.49L59.18 5.49Q59.46 5.64 59.49 5.74L59.49 5.74L59.49 5.74Q59.42 6.08 59.37 6.76L59.37 6.76L59.37 6.76Q59.33 7.43 59.33 8.20L59.33 8.20L59.33 8.20Q59.33 9.73 59.45 11.19L59.45 11.19L59.45 11.19Q59.57 12.66 60.00 14.17L60.00 14.17L60.00 14.17Q60.23 13.05 60.49 11.94L60.49 11.94L60.49 11.94Q60.75 10.82 61.03 9.81L61.03 9.81L61.03 9.81Q61.31 8.79 61.59 7.92L61.59 7.92L61.59 7.92Q61.87 7.06 62.13 6.40L62.13 6.40L62.13 6.40Q62.38 5.75 62.61 5.38L62.61 5.38L62.61 5.38Q62.83 5.01 63.01 4.98L63.01 4.98L63.01 4.98Q63.17 5.01 63.35 5.10L63.35 5.10L63.35 5.10Q63.53 5.19 63.70 5.32L63.70 5.32L63.70 5.32Q63.87 5.45 64.01 5.60L64.01 5.60L64.01 5.60Q64.15 5.75 64.23 5.91L64.23 5.91L64.23 5.91Q63.78 6.09 63.34 6.76L63.34 6.76L63.34 6.76Q62.90 7.43 62.50 8.39L62.50 8.39L62.50 8.39Q62.10 9.35 61.76 10.47L61.76 10.47L61.76 10.47Q61.42 11.59 61.16 12.68L61.16 12.68L61.16 12.68Q60.90 13.76 60.75 14.69L60.75 14.69L60.75 14.69Q60.61 15.61 60.59 16.17L60.59 16.17L60.59 16.17Q60.59 16.20 60.61 16.21L60.61 16.21L60.61 16.21Q60.56 16.23 60.52 16.23L60.52 16.23L60.52 16.23Q60.47 16.23 60.42 16.23L60.42 16.23L60.42 16.23Q59.78 16.23 59.28 16.07L59.28 16.07L59.28 16.07Q58.79 15.90 58.63 15.61L58.63 15.61L58.63 15.61Q58.34 14.43 58.14 13.34L58.14 13.34L58.14 13.34Q57.95 12.25 57.81 11.16L57.81 11.16L57.81 11.16Q57.68 10.07 57.60 8.95L57.60 8.95L57.60 8.95Q57.53 7.84 57.48 6.62L57.48 6.62L57.48 6.62Q57.22 7.04 56.92 7.72L56.92 7.72L56.92 7.72Q56.63 8.40 56.35 9.21L56.35 9.21L56.35 9.21Q56.07 10.02 55.81 10.92L55.81 10.92L55.81 10.92Q55.55 11.82 55.36 12.67L55.36 12.67L55.36 12.67Q55.16 13.52 55.05 14.29L55.05 14.29L55.05 14.29Q54.94 15.05 54.94 15.61L54.94 15.61L54.94 15.61Q54.94 15.90 54.94 16.03L54.94 16.03L54.94 16.03Q54.95 16.16 54.98 16.24ZM81.05 14.38L81.05 14.38L81.05 14.38Q81.05 13.87 81.21 13.07L81.21 13.07L81.21 13.07Q81.37 12.26 81.63 11.33L81.63 11.33L81.63 11.33Q81.89 10.40 82.22 9.43L82.22 9.43L82.22 9.43Q82.56 8.46 82.91 7.60L82.91 7.60L82.91 7.60Q83.26 6.75 83.59 6.10L83.59 6.10L83.59 6.10Q83.93 5.46 84.20 5.18L84.20 5.18L84.20 5.18Q84.34 5.19 84.57 5.29L84.57 5.29L84.57 5.29Q84.80 5.38 85.04 5.50L85.04 5.50L85.04 5.50Q85.27 5.63 85.47 5.78L85.47 5.78L85.47 5.78Q85.67 5.92 85.72 6.05L85.72 6.05L85.72 6.05Q85.32 6.41 84.92 7.15L84.92 7.15L84.92 7.15Q84.52 7.88 84.15 8.82L84.15 8.82L84.15 8.82Q83.78 9.76 83.45 10.80L83.45 10.80L83.45 10.80Q83.13 11.84 82.89 12.82L82.89 12.82L82.89 12.82Q82.66 13.80 82.52 14.64L82.52 14.64L82.52 14.64Q82.39 15.48 82.39 16.00L82.39 16.00L82.39 16.00Q82.39 16.24 82.43 16.30L82.43 16.30L82.43 16.30Q82.12 16.28 81.98 16.19L81.98 16.19L81.98 16.19Q81.84 16.10 81.77 16.00L81.77 16.00L81.77 16.00Q81.69 15.89 81.63 15.79L81.63 15.79L81.63 15.79Q81.56 15.68 81.44 15.62L81.44 15.62L81.44 15.62Q81.34 15.58 81.27 15.43L81.27 15.43L81.27 15.43Q81.20 15.27 81.15 15.09L81.15 15.09L81.15 15.09Q81.10 14.90 81.07 14.70L81.07 14.70L81.07 14.70Q81.05 14.50 81.05 14.38ZM94.81 6.69L94.81 6.69L94.81 6.69Q94.25 6.69 93.95 6.38L93.95 6.38L93.95 6.38Q93.65 6.06 93.65 5.61L93.65 5.61L93.65 5.61Q93.65 5.50 93.68 5.35L93.68 5.35L93.68 5.35Q93.72 5.19 93.77 5.08L93.77 5.08L93.77 5.08Q93.95 5.17 94.31 5.20L94.31 5.20L94.31 5.20Q94.67 5.24 95.14 5.24L95.14 5.24L95.14 5.24Q95.86 5.24 96.76 5.17L96.76 5.17L96.76 5.17Q97.66 5.11 98.49 5.04L98.49 5.04L98.49 5.04Q99.32 4.97 99.95 4.91L99.95 4.91L99.95 4.91Q100.58 4.84 100.76 4.84L100.76 4.84L100.76 4.84Q101.28 4.84 101.51 5.23L101.51 5.23L101.51 5.23Q101.74 5.61 101.85 6.26L101.85 6.26L101.85 6.26Q101.49 6.23 101.13 6.21L101.13 6.21L101.13 6.21Q100.77 6.19 100.52 6.19L100.52 6.19L100.52 6.19Q100.07 6.19 99.62 6.22L99.62 6.22L99.62 6.22Q99.16 6.24 98.70 6.30L98.70 6.30L98.70 6.30Q98.50 6.71 98.27 7.26L98.27 7.26L98.27 7.26Q98.03 7.81 97.80 8.41L97.80 8.41L97.80 8.41Q97.57 9.02 97.36 9.61L97.36 9.61L97.36 9.61Q97.15 10.21 96.99 10.68L96.99 10.68L96.99 10.68Q96.68 11.61 96.45 12.39L96.45 12.39L96.45 12.39Q96.22 13.17 96.05 13.85L96.05 13.85L96.05 13.85Q95.87 14.53 95.75 15.15L95.75 15.15L95.75 15.15Q95.62 15.76 95.52 16.35L95.52 16.35L95.52 16.35Q94.58 16.21 93.95 15.18L93.95 15.18L93.95 15.18Q94.07 14.74 94.23 14.23L94.23 14.23L94.23 14.23Q94.39 13.72 94.60 13.07L94.60 13.07L94.60 13.07Q94.82 12.42 95.12 11.59L95.12 11.59L95.12 11.59Q95.41 10.77 95.79 9.72L95.79 9.72L95.79 9.72Q95.93 9.32 96.08 8.90L96.08 8.90L96.08 8.90Q96.24 8.47 96.38 8.05L96.38 8.05L96.38 8.05Q96.53 7.63 96.65 7.24L96.65 7.24L96.65 7.24Q96.77 6.85 96.85 6.52L96.85 6.52L96.85 6.52Q96.26 6.59 95.74 6.64L95.74 6.64L95.74 6.64Q95.21 6.69 94.81 6.69ZM118.17 12.43L118.17 12.43L118.17 12.43Q118.17 11.45 118.40 10.51L118.40 10.51L118.40 10.51Q118.64 9.56 119.06 8.71L119.06 8.71L119.06 8.71Q119.48 7.87 120.06 7.16L120.06 7.16L120.06 7.16Q120.64 6.45 121.33 5.94L121.33 5.94L121.33 5.94Q122.02 5.42 122.81 5.13L122.81 5.13L122.81 5.13Q123.59 4.84 124.42 4.84L124.42 4.84L124.42 4.84Q125.38 4.84 125.92 5.25L125.92 5.25L125.92 5.25Q126.46 5.66 126.46 6.38L126.46 6.38L126.46 6.38Q126.46 6.66 126.38 6.96L126.38 6.96L126.38 6.96Q126.31 7.25 126.16 7.54L126.16 7.54L126.16 7.54Q126.01 7.83 125.82 8.09L125.82 8.09L125.82 8.09Q125.62 8.36 125.38 8.55L125.38 8.55L125.38 8.55Q125.02 8.50 124.75 8.22L124.75 8.22L124.75 8.22Q124.49 7.95 124.42 7.59L124.42 7.59L124.42 7.59Q124.91 7.18 125.19 6.74L125.19 6.74L125.19 6.74Q125.48 6.30 125.48 5.94L125.48 5.94L125.48 5.94Q125.48 5.32 124.71 5.32L124.71 5.32L124.71 5.32Q124.39 5.32 124.05 5.45L124.05 5.45L124.05 5.45Q123.70 5.59 123.35 5.82L123.35 5.82L123.35 5.82Q123.00 6.06 122.67 6.40L122.67 6.40L122.67 6.40Q122.35 6.73 122.07 7.14L122.07 7.14L122.07 7.14Q120.12 9.94 120.12 12.87L120.12 12.87L120.12 12.87Q120.12 13.90 120.44 14.53L120.44 14.53L120.44 14.53Q120.76 15.16 121.30 15.27L121.30 15.27L121.30 15.27Q121.90 15.13 122.82 14.50L122.82 14.50L122.82 14.50Q123.75 13.87 124.84 12.87L124.84 12.87L124.84 12.87Q124.98 13.01 125.01 13.16L125.01 13.16L125.01 13.16Q124.60 13.69 124.17 14.18L124.17 14.18L124.17 14.18Q123.73 14.67 123.30 15.08L123.30 15.08L123.30 15.08Q122.88 15.48 122.46 15.79L122.46 15.79L122.46 15.79Q122.05 16.10 121.70 16.27L121.70 16.27L121.70 16.27Q119.97 16.24 119.07 15.27L119.07 15.27L119.07 15.27Q118.17 14.31 118.17 12.43ZM139.51 4.98L139.51 4.98L139.51 4.98Q139.78 5.10 140.06 5.27L140.06 5.27L140.06 5.27Q140.34 5.45 140.57 5.63L140.57 5.63L140.57 5.63Q140.81 5.81 140.97 5.98L140.97 5.98L140.97 5.98Q141.13 6.16 141.15 6.27L141.15 6.27L141.15 6.27Q140.91 6.22 140.67 6.20L140.67 6.20L140.67 6.20Q140.43 6.17 140.24 6.17L140.24 6.17L140.24 6.17Q139.61 6.17 138.98 6.48L138.98 6.48L138.98 6.48Q138.36 6.79 137.80 7.32L137.80 7.32L137.80 7.32Q137.24 7.85 136.77 8.57L136.77 8.57L136.77 8.57Q136.29 9.28 135.95 10.09L135.95 10.09L135.95 10.09Q135.60 10.91 135.41 11.77L135.41 11.77L135.41 11.77Q135.21 12.64 135.21 13.48L135.21 13.48L135.21 13.48Q135.21 14.57 135.58 15.11L135.58 15.11L135.58 15.11Q135.94 15.64 136.64 15.64L136.64 15.64L136.64 15.64Q136.98 15.64 137.37 15.51L137.37 15.51L137.37 15.51Q137.76 15.37 138.17 15.13L138.17 15.13L138.17 15.13Q138.57 14.90 138.96 14.56L138.96 14.56L138.96 14.56Q139.36 14.22 139.69 13.82L139.69 13.82L139.69 13.82Q140.18 13.23 140.57 12.48L140.57 12.48L140.57 12.48Q140.97 11.73 141.24 10.89L141.24 10.89L141.24 10.89Q141.51 10.05 141.66 9.16L141.66 9.16L141.66 9.16Q141.81 8.27 141.81 7.42L141.81 7.42L141.81 7.42Q141.81 7.08 141.79 6.85L141.79 6.85L141.79 6.85Q141.78 6.62 141.76 6.46L141.76 6.46L141.76 6.46Q141.74 6.30 141.72 6.20L141.72 6.20L141.72 6.20Q141.71 6.10 141.69 6.03L141.69 6.03L141.69 6.03Q141.86 6.12 142.06 6.24L142.06 6.24L142.06 6.24Q142.27 6.36 142.44 6.59L142.44 6.59L142.44 6.59Q142.62 6.82 142.74 7.20L142.74 7.20L142.74 7.20Q142.86 7.57 142.86 8.18L142.86 8.18L142.86 8.18Q142.86 9.16 142.63 10.10L142.63 10.10L142.63 10.10Q142.39 11.05 141.98 11.90L141.98 11.90L141.98 11.90Q141.57 12.75 141.01 13.50L141.01 13.50L141.01 13.50Q140.45 14.24 139.80 14.80L139.80 14.80L139.80 14.80Q138.96 15.54 138.01 15.95L138.01 15.95L138.01 15.95Q137.06 16.35 136.18 16.35L136.18 16.35L136.18 16.35Q134.89 16.35 134.21 15.53L134.21 15.53L134.21 15.53Q133.53 14.71 133.53 13.12L133.53 13.12L133.53 13.12Q133.53 12.26 133.72 11.31L133.72 11.31L133.72 11.31Q133.91 10.36 134.25 9.44L134.25 9.44L134.25 9.44Q134.60 8.51 135.07 7.68L135.07 7.68L135.07 7.68Q135.55 6.85 136.12 6.21L136.12 6.21L136.12 6.21Q136.68 5.57 137.33 5.19L137.33 5.19L137.33 5.19Q137.98 4.82 138.67 4.82L138.67 4.82L138.67 4.82Q138.89 4.82 139.09 4.85L139.09 4.85L139.09 4.85Q139.29 4.89 139.51 4.98ZM155.55 5.75L155.55 5.75L155.55 5.75Q154.94 6.58 154.43 7.57L154.43 7.57L154.43 7.57Q153.93 8.57 153.57 9.61L153.57 9.61L153.57 9.61Q153.22 10.65 153.03 11.67L153.03 11.67L153.03 11.67Q152.84 12.68 152.84 13.57L152.84 13.57L152.84 13.57Q152.84 14.66 153.16 15.15L153.16 15.15L153.16 15.15Q153.48 15.64 154.27 15.64L154.27 15.64L154.27 15.64Q155.18 15.64 155.86 15.00L155.86 15.00L155.86 15.00Q156.55 14.36 157.15 13.24L157.15 13.24L157.15 13.24Q157.54 12.52 157.82 11.65L157.82 11.65L157.82 11.65Q158.10 10.78 158.28 9.86L158.28 9.86L158.28 9.86Q158.45 8.95 158.54 8.02L158.54 8.02L158.54 8.02Q158.62 7.08 158.62 6.23L158.62 6.23L158.62 6.23Q158.62 5.68 158.61 5.43L158.61 5.43L158.61 5.43Q158.59 5.18 158.56 5.03L158.56 5.03L158.56 5.03Q158.61 5.03 158.77 5.05L158.77 5.05L158.77 5.05Q158.94 5.08 159.16 5.12L159.16 5.12L159.16 5.12Q159.38 5.17 159.59 5.24L159.59 5.24L159.59 5.24Q159.81 5.31 159.96 5.39L159.96 5.39L159.96 5.39Q159.89 6.45 159.71 7.59L159.71 7.59L159.71 7.59Q159.52 8.72 159.21 9.83L159.21 9.83L159.21 9.83Q158.90 10.93 158.49 11.96L158.49 11.96L158.49 11.96Q158.09 12.98 157.58 13.79L157.58 13.79L157.58 13.79Q156.84 14.99 155.92 15.67L155.92 15.67L155.92 15.67Q154.99 16.35 153.73 16.35L153.73 16.35L153.73 16.35Q152.45 16.35 151.73 15.60L151.73 15.60L151.73 15.60Q151.02 14.85 151.02 13.33L151.02 13.33L151.02 13.33Q151.02 12.45 151.21 11.33L151.21 11.33L151.21 11.33Q151.41 10.22 151.74 9.07L151.74 9.07L151.74 9.07Q152.07 7.91 152.50 6.81L152.50 6.81L152.50 6.81Q152.94 5.71 153.41 4.84L153.41 4.84L153.41 4.84Q153.65 4.86 153.97 4.94L153.97 4.94L153.97 4.94Q154.29 5.03 154.60 5.16L154.60 5.16L154.60 5.16Q154.91 5.29 155.17 5.45L155.17 5.45L155.17 5.45Q155.43 5.61 155.55 5.75ZM168.18 16.24L168.18 16.24L168.18 16.24Q167.38 16.00 167.10 15.79L167.10 15.79L167.10 15.79Q166.82 15.57 166.82 15.19L166.82 15.19L166.82 15.19Q166.82 14.77 167.02 14.01L167.02 14.01L167.02 14.01Q167.22 13.24 167.53 12.31L167.53 12.31L167.53 12.31Q167.85 11.37 168.25 10.35L168.25 10.35L168.25 10.35Q168.66 9.32 169.08 8.39L169.08 8.39L169.08 8.39Q169.50 7.45 169.90 6.67L169.90 6.67L169.90 6.67Q170.30 5.89 170.60 5.46L170.60 5.46L170.51 4.87L170.51 4.87Q170.70 4.87 171.05 4.97L171.05 4.97L171.05 4.97Q171.40 5.07 171.76 5.21L171.76 5.21L171.76 5.21Q172.12 5.35 172.39 5.49L172.39 5.49L172.39 5.49Q172.66 5.64 172.69 5.74L172.69 5.74L172.69 5.74Q172.62 6.08 172.58 6.76L172.58 6.76L172.58 6.76Q172.54 7.43 172.54 8.20L172.54 8.20L172.54 8.20Q172.54 9.73 172.66 11.19L172.66 11.19L172.66 11.19Q172.77 12.66 173.21 14.17L173.21 14.17L173.21 14.17Q173.43 13.05 173.69 11.94L173.69 11.94L173.69 11.94Q173.95 10.82 174.23 9.81L174.23 9.81L174.23 9.81Q174.51 8.79 174.79 7.92L174.79 7.92L174.79 7.92Q175.07 7.06 175.33 6.40L175.33 6.40L175.33 6.40Q175.59 5.75 175.81 5.38L175.81 5.38L175.81 5.38Q176.04 5.01 176.22 4.98L176.22 4.98L176.22 4.98Q176.37 5.01 176.55 5.10L176.55 5.10L176.55 5.10Q176.74 5.19 176.90 5.32L176.90 5.32L176.90 5.32Q177.07 5.45 177.21 5.60L177.21 5.60L177.21 5.60Q177.35 5.75 177.44 5.91L177.44 5.91L177.44 5.91Q176.99 6.09 176.55 6.76L176.55 6.76L176.55 6.76Q176.11 7.43 175.71 8.39L175.71 8.39L175.71 8.39Q175.31 9.35 174.97 10.47L174.97 10.47L174.97 10.47Q174.62 11.59 174.36 12.68L174.36 12.68L174.36 12.68Q174.10 13.76 173.96 14.69L173.96 14.69L173.96 14.69Q173.81 15.61 173.80 16.17L173.80 16.17L173.80 16.17Q173.80 16.20 173.81 16.21L173.81 16.21L173.81 16.21Q173.77 16.23 173.72 16.23L173.72 16.23L173.72 16.23Q173.67 16.23 173.63 16.23L173.63 16.23L173.63 16.23Q172.98 16.23 172.49 16.07L172.49 16.07L172.49 16.07Q171.99 15.90 171.84 15.61L171.84 15.61L171.84 15.61Q171.54 14.43 171.35 13.34L171.35 13.34L171.35 13.34Q171.15 12.25 171.02 11.16L171.02 11.16L171.02 11.16Q170.88 10.07 170.81 8.95L170.81 8.95L170.81 8.95Q170.73 7.84 170.69 6.62L170.69 6.62L170.69 6.62Q170.42 7.04 170.13 7.72L170.13 7.72L170.13 7.72Q169.83 8.40 169.55 9.21L169.55 9.21L169.55 9.21Q169.27 10.02 169.02 10.92L169.02 10.92L169.02 10.92Q168.76 11.82 168.56 12.67L168.56 12.67L168.56 12.67Q168.36 13.52 168.25 14.29L168.25 14.29L168.25 14.29Q168.14 15.05 168.14 15.61L168.14 15.61L168.14 15.61Q168.14 15.90 168.15 16.03L168.15 16.03L168.15 16.03Q168.15 16.16 168.18 16.24ZM186.27 6.69L186.27 6.69L186.27 6.69Q185.71 6.69 185.41 6.38L185.41 6.38L185.41 6.38Q185.11 6.06 185.11 5.61L185.11 5.61L185.11 5.61Q185.11 5.50 185.14 5.35L185.14 5.35L185.14 5.35Q185.18 5.19 185.23 5.08L185.23 5.08L185.23 5.08Q185.42 5.17 185.77 5.20L185.77 5.20L185.77 5.20Q186.13 5.24 186.61 5.24L186.61 5.24L186.61 5.24Q187.32 5.24 188.22 5.17L188.22 5.17L188.22 5.17Q189.13 5.11 189.95 5.04L189.95 5.04L189.95 5.04Q190.78 4.97 191.41 4.91L191.41 4.91L191.41 4.91Q192.04 4.84 192.22 4.84L192.22 4.84L192.22 4.84Q192.74 4.84 192.97 5.23L192.97 5.23L192.97 5.23Q193.20 5.61 193.31 6.26L193.31 6.26L193.31 6.26Q192.95 6.23 192.59 6.21L192.59 6.21L192.59 6.21Q192.23 6.19 191.98 6.19L191.98 6.19L191.98 6.19Q191.53 6.19 191.08 6.22L191.08 6.22L191.08 6.22Q190.62 6.24 190.16 6.30L190.16 6.30L190.16 6.30Q189.97 6.71 189.73 7.26L189.73 7.26L189.73 7.26Q189.49 7.81 189.26 8.41L189.26 8.41L189.26 8.41Q189.03 9.02 188.82 9.61L188.82 9.61L188.82 9.61Q188.61 10.21 188.45 10.68L188.45 10.68L188.45 10.68Q188.15 11.61 187.92 12.39L187.92 12.39L187.92 12.39Q187.68 13.17 187.51 13.85L187.51 13.85L187.51 13.85Q187.33 14.53 187.21 15.15L187.21 15.15L187.21 15.15Q187.08 15.76 186.98 16.35L186.98 16.35L186.98 16.35Q186.05 16.21 185.42 15.18L185.42 15.18L185.42 15.18Q185.53 14.74 185.69 14.23L185.69 14.23L185.69 14.23Q185.85 13.72 186.07 13.07L186.07 13.07L186.07 13.07Q186.28 12.42 186.58 11.59L186.58 11.59L186.58 11.59Q186.87 10.77 187.25 9.72L187.25 9.72L187.25 9.72Q187.39 9.32 187.54 8.90L187.54 8.90L187.54 8.90Q187.70 8.47 187.85 8.05L187.85 8.05L187.85 8.05Q187.99 7.63 188.11 7.24L188.11 7.24L188.11 7.24Q188.23 6.85 188.31 6.52L188.31 6.52L188.31 6.52Q187.73 6.59 187.20 6.64L187.20 6.64L187.20 6.64Q186.68 6.69 186.27 6.69ZM207.86 5.74L207.86 5.74L207.86 5.74Q207.90 5.98 207.92 6.07L207.92 6.07L207.92 6.07Q207.94 6.16 207.94 6.31L207.94 6.31L207.94 6.31Q207.94 6.78 207.74 7.18L207.74 7.18L207.74 7.18Q207.54 7.57 207.19 7.74L207.19 7.74L207.19 7.74Q206.91 7.36 206.50 7.09L206.50 7.09L206.50 7.09Q206.09 6.82 205.61 6.64L205.61 6.64L205.61 6.64Q205.13 6.47 204.61 6.38L204.61 6.38L204.61 6.38Q204.09 6.30 203.60 6.30L203.60 6.30L203.60 6.30Q203.11 6.30 202.69 6.38L202.69 6.38L202.69 6.38Q202.26 6.45 201.93 6.59L201.93 6.59L201.93 6.59Q201.60 6.72 201.41 6.92L201.41 6.92L201.41 6.92Q201.22 7.11 201.22 7.36L201.22 7.36L201.22 7.36Q201.26 7.67 201.60 7.99L201.60 7.99L201.60 7.99Q201.94 8.30 202.43 8.60L202.43 8.60L202.43 8.60Q202.92 8.90 203.51 9.20L203.51 9.20L203.51 9.20Q204.11 9.49 204.68 9.76L204.68 9.76L204.68 9.76Q205.39 10.09 205.91 10.38L205.91 10.38L205.91 10.38Q206.43 10.67 206.77 11.01L206.77 11.01L206.77 11.01Q207.10 11.35 207.27 11.79L207.27 11.79L207.27 11.79Q207.44 12.22 207.44 12.84L207.44 12.84L207.44 12.84Q207.44 13.55 207.20 14.18L207.20 14.18L207.20 14.18Q206.96 14.80 206.51 15.26L206.51 15.26L206.51 15.26Q206.05 15.72 205.41 15.98L205.41 15.98L205.41 15.98Q204.76 16.24 203.97 16.24L203.97 16.24L203.97 16.24Q203.18 16.24 202.27 16.00L202.27 16.00L202.27 16.00Q201.36 15.76 200.57 15.35L200.57 15.35L200.57 15.35Q199.78 14.94 199.26 14.40L199.26 14.40L199.26 14.40Q198.73 13.86 198.73 13.26L198.73 13.26L198.73 13.26Q198.73 12.98 198.89 12.54L198.89 12.54L198.89 12.54Q199.05 12.11 199.47 11.63L199.47 11.63L199.47 11.63Q199.51 12.05 199.93 12.63L199.93 12.63L199.93 12.63Q200.34 13.20 201.17 13.69L201.17 13.69L201.17 13.69Q201.94 14.14 202.76 14.34L202.76 14.34L202.76 14.34Q203.57 14.55 204.29 14.55L204.29 14.55L204.29 14.55Q205.07 14.55 205.56 14.35L205.56 14.35L205.56 14.35Q206.05 14.15 206.33 13.88L206.33 13.88L206.33 13.88Q206.61 13.61 206.72 13.33L206.72 13.33L206.72 13.33Q206.84 13.05 206.85 12.88L206.85 12.88L206.85 12.88Q206.84 12.60 206.59 12.34L206.59 12.34L206.59 12.34Q206.35 12.08 205.93 11.84L205.93 11.84L205.93 11.84Q205.52 11.59 204.97 11.34L204.97 11.34L204.97 11.34Q204.43 11.09 203.84 10.84L203.84 10.84L203.84 10.84Q202.96 10.44 202.32 10.10L202.32 10.10L202.32 10.10Q201.68 9.76 201.27 9.40L201.27 9.40L201.27 9.40Q200.86 9.04 200.67 8.65L200.67 8.65L200.67 8.65Q200.48 8.26 200.48 7.76L200.48 7.76L200.48 7.76Q200.48 6.97 200.96 6.27L200.96 6.27L200.96 6.27Q201.43 5.57 202.33 5.21L202.33 5.21L202.33 5.21Q202.78 5.01 203.29 4.93L203.29 4.93L203.29 4.93Q203.80 4.84 204.29 4.84L204.29 4.84L204.29 4.84Q205.21 4.84 206.09 5.10L206.09 5.10L206.09 5.10Q206.98 5.35 207.86 5.74ZM231.06 10.35L231.06 10.35L231.06 10.35Q232.11 9.20 232.94 7.91L232.94 7.91L232.94 7.91Q233.77 6.62 234.49 5.01L234.49 5.01L234.49 5.01Q234.85 5.05 235.19 5.21L235.19 5.21L235.19 5.21Q235.52 5.36 235.72 5.56L235.72 5.56L235.72 5.56Q234.95 6.48 234.33 7.24L234.33 7.24L234.33 7.24Q233.70 7.99 233.18 8.66L233.18 8.66L233.18 8.66Q232.67 9.32 232.23 9.93L232.23 9.93L232.23 9.93Q231.78 10.54 231.36 11.16L231.36 11.16L231.36 11.16Q231.15 11.87 230.97 12.60L230.97 12.60L230.97 12.60Q230.79 13.33 230.65 13.99L230.65 13.99L230.65 13.99Q230.51 14.66 230.43 15.22L230.43 15.22L230.43 15.22Q230.36 15.79 230.36 16.20L230.36 16.20L230.36 16.20Q230.20 16.20 229.87 16.14L229.87 16.14L229.87 16.14Q229.53 16.07 229.18 15.99L229.18 15.99L229.18 15.99Q228.83 15.90 228.54 15.82L228.54 15.82L228.54 15.82Q228.26 15.74 228.20 15.68L228.20 15.68L228.20 15.68Q228.42 15.30 228.64 14.75L228.64 14.75L228.64 14.75Q228.86 14.20 229.07 13.59L229.07 13.59L229.07 13.59Q229.28 12.98 229.47 12.36L229.47 12.36L229.47 12.36Q229.67 11.73 229.84 11.20L229.84 11.20L229.84 11.20Q229.49 10.11 229.16 9.15L229.16 9.15L229.16 9.15Q228.83 8.19 228.52 7.41L228.52 7.41L228.52 7.41Q228.21 6.64 227.93 6.08L227.93 6.08L227.93 6.08Q227.65 5.52 227.40 5.22L227.40 5.22L227.40 5.22Q227.54 5.17 227.83 5.11L227.83 5.11L227.83 5.11Q228.12 5.05 228.46 5.00L228.46 5.00L228.46 5.00Q228.80 4.94 229.16 4.91L229.16 4.91L229.16 4.91Q229.52 4.87 229.80 4.86L229.80 4.86L229.80 4.86Q229.80 5.21 229.86 5.71L229.86 5.71L229.86 5.71Q229.92 6.22 230.03 6.79L230.03 6.79L230.03 6.79Q230.13 7.36 230.27 7.95L230.27 7.95L230.27 7.95Q230.41 8.54 230.55 9.03L230.55 9.03L230.55 9.03Q230.69 9.52 230.83 9.88L230.83 9.88L230.83 9.88Q230.96 10.23 231.06 10.35ZM247.70 4.98L247.70 4.98L247.70 4.98Q247.97 5.10 248.25 5.27L248.25 5.27L248.25 5.27Q248.53 5.45 248.77 5.63L248.77 5.63L248.77 5.63Q249.00 5.81 249.17 5.98L249.17 5.98L249.17 5.98Q249.33 6.16 249.34 6.27L249.34 6.27L249.34 6.27Q249.10 6.22 248.86 6.20L248.86 6.20L248.86 6.20Q248.63 6.17 248.43 6.17L248.43 6.17L248.43 6.17Q247.80 6.17 247.18 6.48L247.18 6.48L247.18 6.48Q246.55 6.79 245.99 7.32L245.99 7.32L245.99 7.32Q245.43 7.85 244.96 8.57L244.96 8.57L244.96 8.57Q244.48 9.28 244.14 10.09L244.14 10.09L244.14 10.09Q243.80 10.91 243.60 11.77L243.60 11.77L243.60 11.77Q243.40 12.64 243.40 13.48L243.40 13.48L243.40 13.48Q243.40 14.57 243.77 15.11L243.77 15.11L243.77 15.11Q244.13 15.64 244.83 15.64L244.83 15.64L244.83 15.64Q245.17 15.64 245.56 15.51L245.56 15.51L245.56 15.51Q245.95 15.37 246.36 15.13L246.36 15.13L246.36 15.13Q246.76 14.90 247.16 14.56L247.16 14.56L247.16 14.56Q247.55 14.22 247.88 13.82L247.88 13.82L247.88 13.82Q248.37 13.23 248.77 12.48L248.77 12.48L248.77 12.48Q249.16 11.73 249.43 10.89L249.43 10.89L249.43 10.89Q249.70 10.05 249.85 9.16L249.85 9.16L249.85 9.16Q250.00 8.27 250.00 7.42L250.00 7.42L250.00 7.42Q250.00 7.08 249.98 6.85L249.98 6.85L249.98 6.85Q249.97 6.62 249.95 6.46L249.95 6.46L249.95 6.46Q249.93 6.30 249.91 6.20L249.91 6.20L249.91 6.20Q249.90 6.10 249.89 6.03L249.89 6.03L249.89 6.03Q250.05 6.12 250.26 6.24L250.26 6.24L250.26 6.24Q250.46 6.36 250.64 6.59L250.64 6.59L250.64 6.59Q250.81 6.82 250.93 7.20L250.93 7.20L250.93 7.20Q251.05 7.57 251.05 8.18L251.05 8.18L251.05 8.18Q251.05 9.16 250.82 10.10L250.82 10.10L250.82 10.10Q250.59 11.05 250.17 11.90L250.17 11.90L250.17 11.90Q249.76 12.75 249.20 13.50L249.20 13.50L249.20 13.50Q248.64 14.24 248.00 14.80L248.00 14.80L248.00 14.80Q247.16 15.54 246.20 15.95L246.20 15.95L246.20 15.95Q245.25 16.35 244.37 16.35L244.37 16.35L244.37 16.35Q243.08 16.35 242.40 15.53L242.40 15.53L242.40 15.53Q241.72 14.71 241.72 13.12L241.72 13.12L241.72 13.12Q241.72 12.26 241.91 11.31L241.91 11.31L241.91 11.31Q242.10 10.36 242.45 9.44L242.45 9.44L242.45 9.44Q242.79 8.51 243.26 7.68L243.26 7.68L243.26 7.68Q243.74 6.85 244.31 6.21L244.31 6.21L244.31 6.21Q244.87 5.57 245.53 5.19L245.53 5.19L245.53 5.19Q246.18 4.82 246.86 4.82L246.86 4.82L246.86 4.82Q247.09 4.82 247.28 4.85L247.28 4.85L247.28 4.85Q247.48 4.89 247.70 4.98ZM263.75 5.75L263.75 5.75L263.75 5.75Q263.13 6.58 262.63 7.57L262.63 7.57L262.63 7.57Q262.12 8.57 261.77 9.61L261.77 9.61L261.77 9.61Q261.41 10.65 261.22 11.67L261.22 11.67L261.22 11.67Q261.03 12.68 261.03 13.57L261.03 13.57L261.03 13.57Q261.03 14.66 261.35 15.15L261.35 15.15L261.35 15.15Q261.67 15.64 262.46 15.64L262.46 15.64L262.46 15.64Q263.37 15.64 264.05 15.00L264.05 15.00L264.05 15.00Q264.74 14.36 265.34 13.24L265.34 13.24L265.34 13.24Q265.73 12.52 266.01 11.65L266.01 11.65L266.01 11.65Q266.29 10.78 266.47 9.86L266.47 9.86L266.47 9.86Q266.64 8.95 266.73 8.02L266.73 8.02L266.73 8.02Q266.81 7.08 266.81 6.23L266.81 6.23L266.81 6.23Q266.81 5.68 266.80 5.43L266.80 5.43L266.80 5.43Q266.78 5.18 266.76 5.03L266.76 5.03L266.76 5.03Q266.80 5.03 266.97 5.05L266.97 5.05L266.97 5.05Q267.13 5.08 267.35 5.12L267.35 5.12L267.35 5.12Q267.57 5.17 267.79 5.24L267.79 5.24L267.79 5.24Q268.00 5.31 268.16 5.39L268.16 5.39L268.16 5.39Q268.09 6.45 267.90 7.59L267.90 7.59L267.90 7.59Q267.71 8.72 267.40 9.83L267.40 9.83L267.40 9.83Q267.09 10.93 266.69 11.96L266.69 11.96L266.69 11.96Q266.28 12.98 265.78 13.79L265.78 13.79L265.78 13.79Q265.03 14.99 264.11 15.67L264.11 15.67L264.11 15.67Q263.19 16.35 261.93 16.35L261.93 16.35L261.93 16.35Q260.64 16.35 259.92 15.60L259.92 15.60L259.92 15.60Q259.21 14.85 259.21 13.33L259.21 13.33L259.21 13.33Q259.21 12.45 259.41 11.33L259.41 11.33L259.41 11.33Q259.60 10.22 259.93 9.07L259.93 9.07L259.93 9.07Q260.26 7.91 260.69 6.81L260.69 6.81L260.69 6.81Q261.13 5.71 261.60 4.84L261.60 4.84L261.60 4.84Q261.84 4.86 262.16 4.94L262.16 4.94L262.16 4.94Q262.49 5.03 262.79 5.16L262.79 5.16L262.79 5.16Q263.10 5.29 263.36 5.45L263.36 5.45L263.36 5.45Q263.62 5.61 263.75 5.75ZM291.33 9.34L291.33 9.34L291.33 9.34Q291.77 9.34 292.03 9.59L292.03 9.59L292.03 9.59Q292.29 9.84 292.29 10.29L292.29 10.29L292.29 10.29Q292.29 10.40 292.28 10.52L292.28 10.52L292.28 10.52Q292.26 10.64 292.22 10.72L292.22 10.72L292.22 10.72Q292.04 10.70 291.82 10.68L291.82 10.68L291.82 10.68Q291.59 10.65 291.28 10.65L291.28 10.65L291.28 10.65Q290.65 10.65 290.02 10.77L290.02 10.77L290.02 10.77Q289.39 10.88 288.82 10.95L288.82 10.95L288.82 10.95Q288.19 12.43 287.78 13.73L287.78 13.73L287.78 13.73Q287.38 15.04 287.15 16.31L287.15 16.31L287.15 16.31Q286.68 16.20 286.31 15.90L286.31 15.90L286.31 15.90Q285.95 15.61 285.63 15.08L285.63 15.08L285.63 15.08Q285.73 14.85 285.87 14.54L285.87 14.54L285.87 14.54Q286.01 14.22 286.20 13.74L286.20 13.74L286.20 13.74Q286.40 13.26 286.67 12.56L286.67 12.56L286.67 12.56Q286.94 11.87 287.32 10.91L287.32 10.91L287.32 10.91Q286.73 10.71 286.55 10.22L286.55 10.22L286.55 10.22Q286.62 10.15 286.94 10.06L286.94 10.06L286.94 10.06Q287.27 9.97 287.73 9.86L287.73 9.86L287.73 9.86Q287.94 9.31 288.09 8.88L288.09 8.88L288.09 8.88Q288.25 8.46 288.37 8.07L288.37 8.07L288.37 8.07Q288.50 7.69 288.60 7.32L288.60 7.32L288.60 7.32Q288.71 6.94 288.79 6.52L288.79 6.52L288.72 6.52L288.72 6.52Q288.19 6.52 287.86 6.27L287.86 6.27L287.86 6.27Q287.53 6.02 287.53 5.61L287.53 5.61L287.53 5.61Q287.53 5.50 287.57 5.35L287.57 5.35L287.57 5.35Q287.60 5.19 287.66 5.08L287.66 5.08L287.66 5.08Q287.92 5.12 288.18 5.14L288.18 5.14L288.18 5.14Q288.44 5.15 288.86 5.15L288.86 5.15L288.86 5.15Q289.74 5.15 290.51 5.10L290.51 5.10L290.51 5.10Q291.28 5.05 291.91 5.00L291.91 5.00L291.91 5.00Q292.53 4.94 292.98 4.89L292.98 4.89L292.98 4.89Q293.43 4.84 293.66 4.84L293.66 4.84L293.66 4.84Q293.99 4.84 294.24 5.18L294.24 5.18L294.24 5.18Q294.49 5.52 294.63 6.13L294.63 6.13L294.63 6.13Q294.18 6.09 293.91 6.08L293.91 6.08L293.91 6.08Q293.64 6.06 293.43 6.06L293.43 6.06L293.43 6.06Q292.71 6.06 292.12 6.13L292.12 6.13L292.12 6.13Q291.52 6.19 290.99 6.27L290.99 6.27L290.99 6.27Q290.91 6.40 290.80 6.59L290.80 6.59L290.80 6.59Q290.70 6.79 290.53 7.15L290.53 7.15L290.53 7.15Q290.36 7.50 290.10 8.08L290.10 8.08L290.10 8.08Q289.84 8.65 289.45 9.53L289.45 9.53L289.45 9.53Q290.00 9.45 290.49 9.39L290.49 9.39L290.49 9.39Q290.99 9.34 291.33 9.34ZM300.59 14.38L300.59 14.38L300.59 14.38Q300.59 13.87 300.75 13.07L300.75 13.07L300.75 13.07Q300.92 12.26 301.18 11.33L301.18 11.33L301.18 11.33Q301.43 10.40 301.77 9.43L301.77 9.43L301.77 9.43Q302.11 8.46 302.46 7.60L302.46 7.60L302.46 7.60Q302.81 6.75 303.14 6.10L303.14 6.10L303.14 6.10Q303.48 5.46 303.74 5.18L303.74 5.18L303.74 5.18Q303.88 5.19 304.12 5.29L304.12 5.29L304.12 5.29Q304.35 5.38 304.58 5.50L304.58 5.50L304.58 5.50Q304.82 5.63 305.02 5.78L305.02 5.78L305.02 5.78Q305.21 5.92 305.27 6.05L305.27 6.05L305.27 6.05Q304.86 6.41 304.46 7.15L304.46 7.15L304.46 7.15Q304.07 7.88 303.69 8.82L303.69 8.82L303.69 8.82Q303.32 9.76 303.00 10.80L303.00 10.80L303.00 10.80Q302.68 11.84 302.44 12.82L302.44 12.82L302.44 12.82Q302.20 13.80 302.07 14.64L302.07 14.64L302.07 14.64Q301.94 15.48 301.94 16.00L301.94 16.00L301.94 16.00Q301.94 16.24 301.98 16.30L301.98 16.30L301.98 16.30Q301.67 16.28 301.53 16.19L301.53 16.19L301.53 16.19Q301.39 16.10 301.31 16.00L301.31 16.00L301.31 16.00Q301.24 15.89 301.18 15.79L301.18 15.79L301.18 15.79Q301.11 15.68 300.99 15.62L300.99 15.62L300.99 15.62Q300.89 15.58 300.82 15.43L300.82 15.43L300.82 15.43Q300.75 15.27 300.70 15.09L300.70 15.09L300.70 15.09Q300.65 14.90 300.62 14.70L300.62 14.70L300.62 14.70Q300.59 14.50 300.59 14.38ZM313.98 7.28L313.98 7.28L313.98 7.28Q313.92 7.08 313.89 6.82L313.89 6.82L313.89 6.82Q313.85 6.57 313.85 6.06L313.85 6.06L313.85 6.06Q313.85 5.74 313.87 5.41L313.87 5.41L313.87 5.41Q313.88 5.08 313.99 4.84L313.99 4.84L313.99 4.84Q314.68 4.97 315.46 5.07L315.46 5.07L315.46 5.07Q316.23 5.18 317.04 5.26L317.04 5.26L317.04 5.26Q317.86 5.35 318.67 5.40L318.67 5.40L318.67 5.40Q319.48 5.45 320.24 5.45L320.24 5.45L320.24 5.45Q321.27 5.45 321.90 5.36L321.90 5.36L321.90 5.36Q322.13 5.67 322.18 6.09L322.18 6.09L322.18 6.09Q322.24 6.51 322.24 6.87L322.24 6.87L322.24 6.87Q320.63 7.53 319.19 8.55L319.19 8.55L319.19 8.55Q317.74 9.56 316.57 10.67L316.57 10.67L316.57 10.67Q315.39 11.77 314.54 12.85L314.54 12.85L314.54 12.85Q313.68 13.93 313.26 14.73L313.26 14.73L313.26 14.73Q313.52 14.69 313.78 14.65L313.78 14.65L313.78 14.65Q314.05 14.62 314.36 14.59L314.36 14.59L314.36 14.59Q314.66 14.56 315.04 14.53L315.04 14.53L315.04 14.53Q315.42 14.50 315.91 14.48L315.91 14.48L315.91 14.48Q316.60 14.43 317.11 14.33L317.11 14.33L317.11 14.33Q317.63 14.22 318.00 14.11L318.00 14.11L318.00 14.11Q318.36 13.99 318.58 13.88L318.58 13.88L318.58 13.88Q318.79 13.78 318.89 13.71L318.89 13.71L318.89 13.71Q318.95 13.83 319.03 14.08L319.03 14.08L319.03 14.08Q319.10 14.34 319.17 14.64L319.17 14.64L319.17 14.64Q319.23 14.94 319.27 15.25L319.27 15.25L319.27 15.25Q319.31 15.57 319.31 15.83L319.31 15.83L319.31 15.83Q319.31 15.97 319.31 16.02L319.31 16.02L319.31 16.02Q319.30 16.07 319.28 16.13L319.28 16.13L319.28 16.13Q318.65 16.09 318.02 16.03L318.02 16.03L318.02 16.03Q317.38 15.97 316.75 15.97L316.75 15.97L316.75 15.97Q315.91 15.97 315.01 16.07L315.01 16.07L315.01 16.07Q314.10 16.16 313.27 16.34L313.27 16.34L313.27 16.34Q312.44 16.53 311.75 16.83L311.75 16.83L311.75 16.83Q311.05 17.12 310.63 17.53L310.63 17.53L310.63 17.53Q310.52 17.16 310.40 16.91L310.40 16.91L310.40 16.91Q310.28 16.65 310.28 16.28L310.28 16.28L310.28 16.28Q310.28 15.92 310.43 15.70L310.43 15.70L310.43 15.70Q310.58 15.48 310.83 15.34L310.83 15.34L310.83 15.34Q311.67 14.14 312.74 12.96L312.74 12.96L312.74 12.96Q313.81 11.77 315.03 10.67L315.03 10.67L315.03 10.67Q316.25 9.56 317.55 8.56L317.55 8.56L317.55 8.56Q318.85 7.56 320.15 6.73L320.15 6.73L320.15 6.73Q319.31 6.69 318.37 6.69L318.37 6.69L318.37 6.69Q317.72 6.69 317.07 6.72L317.07 6.72L317.07 6.72Q316.43 6.75 315.85 6.81L315.85 6.81L315.85 6.81Q315.28 6.87 314.80 6.99L314.80 6.99L314.80 6.99Q314.31 7.11 313.98 7.28ZM330.75 7.28L330.75 7.28L330.75 7.28Q330.69 7.08 330.66 6.82L330.66 6.82L330.66 6.82Q330.62 6.57 330.62 6.06L330.62 6.06L330.62 6.06Q330.62 5.74 330.64 5.41L330.64 5.41L330.64 5.41Q330.65 5.08 330.76 4.84L330.76 4.84L330.76 4.84Q331.45 4.97 332.23 5.07L332.23 5.07L332.23 5.07Q333.00 5.18 333.82 5.26L333.82 5.26L333.82 5.26Q334.63 5.35 335.44 5.40L335.44 5.40L335.44 5.40Q336.25 5.45 337.01 5.45L337.01 5.45L337.01 5.45Q338.04 5.45 338.67 5.36L338.67 5.36L338.67 5.36Q338.90 5.67 338.95 6.09L338.95 6.09L338.95 6.09Q339.01 6.51 339.01 6.87L339.01 6.87L339.01 6.87Q337.40 7.53 335.96 8.55L335.96 8.55L335.96 8.55Q334.52 9.56 333.34 10.67L333.34 10.67L333.34 10.67Q332.16 11.77 331.31 12.85L331.31 12.85L331.31 12.85Q330.46 13.93 330.04 14.73L330.04 14.73L330.04 14.73Q330.29 14.69 330.55 14.65L330.55 14.65L330.55 14.65Q330.82 14.62 331.13 14.59L331.13 14.59L331.13 14.59Q331.44 14.56 331.81 14.53L331.81 14.53L331.81 14.53Q332.19 14.50 332.68 14.48L332.68 14.48L332.68 14.48Q333.37 14.43 333.89 14.33L333.89 14.33L333.89 14.33Q334.40 14.22 334.77 14.11L334.77 14.11L334.77 14.11Q335.13 13.99 335.35 13.88L335.35 13.88L335.35 13.88Q335.57 13.78 335.66 13.71L335.66 13.71L335.66 13.71Q335.72 13.83 335.80 14.08L335.80 14.08L335.80 14.08Q335.87 14.34 335.94 14.64L335.94 14.64L335.94 14.64Q336 14.94 336.04 15.25L336.04 15.25L336.04 15.25Q336.08 15.57 336.08 15.83L336.08 15.83L336.08 15.83Q336.08 15.97 336.08 16.02L336.08 16.02L336.08 16.02Q336.07 16.07 336.06 16.13L336.06 16.13L336.06 16.13Q335.43 16.09 334.79 16.03L334.79 16.03L334.79 16.03Q334.15 15.97 333.52 15.97L333.52 15.97L333.52 15.97Q332.68 15.97 331.78 16.07L331.78 16.07L331.78 16.07Q330.88 16.16 330.04 16.34L330.04 16.34L330.04 16.34Q329.21 16.53 328.52 16.83L328.52 16.83L328.52 16.83Q327.82 17.12 327.40 17.53L327.40 17.53L327.40 17.53Q327.29 17.16 327.17 16.91L327.17 16.91L327.17 16.91Q327.05 16.65 327.05 16.28L327.05 16.28L327.05 16.28Q327.05 15.92 327.20 15.70L327.20 15.70L327.20 15.70Q327.35 15.48 327.60 15.34L327.60 15.34L327.60 15.34Q328.44 14.14 329.51 12.96L329.51 12.96L329.51 12.96Q330.58 11.77 331.80 10.67L331.80 10.67L331.80 10.67Q333.02 9.56 334.32 8.56L334.32 8.56L334.32 8.56Q335.62 7.56 336.92 6.73L336.92 6.73L336.92 6.73Q336.08 6.69 335.15 6.69L335.15 6.69L335.15 6.69Q334.49 6.69 333.84 6.72L333.84 6.72L333.84 6.72Q333.20 6.75 332.63 6.81L332.63 6.81L332.63 6.81Q332.05 6.87 331.57 6.99L331.57 6.99L331.57 6.99Q331.09 7.11 330.75 7.28ZM365.11 7.46L365.11 7.46L365.11 7.46Q365.11 8.33 364.63 9.01L364.63 9.01L364.63 9.01Q364.15 9.69 363.33 10.14L363.33 10.14L363.33 10.14Q363.86 10.50 364.18 11.03L364.18 11.03L364.18 11.03Q364.49 11.55 364.49 12.18L364.49 12.18L364.49 12.18Q364.49 12.94 364.03 13.67L364.03 13.67L364.03 13.67Q363.58 14.41 362.82 14.97L362.82 14.97L362.82 14.97Q362.07 15.54 361.10 15.89L361.10 15.89L361.10 15.89Q360.14 16.24 359.13 16.24L359.13 16.24L359.13 16.24Q358.04 16.24 357.22 15.83L357.22 15.83L357.22 15.83Q356.40 15.41 355.94 14.66L355.94 14.66L355.94 14.66Q356.08 14.24 356.31 13.62L356.31 13.62L356.31 13.62Q356.54 12.99 356.82 12.30L356.82 12.30L356.82 12.30Q357.10 11.61 357.38 10.92L357.38 10.92L357.38 10.92Q357.67 10.23 357.92 9.69L357.92 9.69L357.92 9.69Q358.46 8.50 358.88 7.71L358.88 7.71L358.88 7.71Q359.30 6.93 359.65 6.47L359.65 6.47L359.65 6.47Q358.88 6.71 358.25 7.01L358.25 7.01L358.25 7.01Q357.62 7.31 357.32 7.59L357.32 7.59L357.32 7.59Q357.20 7.50 357.06 7.34L357.06 7.34L357.06 7.34Q356.93 7.17 356.81 6.96L356.81 6.96L356.81 6.96Q356.69 6.76 356.62 6.55L356.62 6.55L356.62 6.55Q356.54 6.34 356.52 6.17L356.52 6.17L356.52 6.17Q356.89 5.92 357.47 5.69L357.47 5.69L357.47 5.69Q358.05 5.46 358.74 5.29L358.74 5.29L358.74 5.29Q359.42 5.12 360.14 5.03L360.14 5.03L360.14 5.03Q360.86 4.93 361.52 4.93L361.52 4.93L361.52 4.93Q363.20 4.93 364.15 5.60L364.15 5.60L364.15 5.60Q365.11 6.27 365.11 7.46ZM359.77 10.81L359.77 10.81L359.77 10.81Q359.51 10.68 359.28 10.43L359.28 10.43L359.28 10.43Q358.96 11.14 358.67 11.83L358.67 11.83L358.67 11.83Q358.39 12.52 358.16 13.10L358.16 13.10L358.16 13.10Q357.94 13.69 357.80 14.13L357.80 14.13L357.80 14.13Q357.66 14.56 357.64 14.76L357.64 14.76L357.64 14.76Q357.84 14.87 358.11 14.92L358.11 14.92L358.11 14.92Q358.39 14.98 358.79 14.98L358.79 14.98L358.79 14.98Q359.74 14.98 360.61 14.71L360.61 14.71L360.61 14.71Q361.48 14.45 362.14 13.99L362.14 13.99L362.14 13.99Q362.80 13.54 363.19 12.95L363.19 12.95L363.19 12.95Q363.58 12.36 363.58 11.72L363.58 11.72L363.58 11.72Q363.58 10.79 362.78 10.39L362.78 10.39L362.78 10.39Q361.69 10.84 360.32 10.84L360.32 10.84L360.32 10.84Q360.12 10.84 360.02 10.84L360.02 10.84L360.02 10.84Q359.91 10.84 359.77 10.81ZM362.49 5.95L362.49 5.95L362.49 5.95Q362.19 5.95 361.87 5.98L361.87 5.98L361.87 5.98Q361.54 6.02 361.17 6.09L361.17 6.09L361.17 6.09Q361.23 6.15 361.26 6.21L361.26 6.21L361.26 6.21Q361.30 6.27 361.33 6.34L361.33 6.34L361.33 6.34Q361.20 6.51 361.02 6.83L361.02 6.83L361.02 6.83Q360.84 7.15 360.61 7.58L360.61 7.58L360.61 7.58Q360.39 8.01 360.14 8.53L360.14 8.53L360.14 8.53Q359.90 9.04 359.65 9.59L359.65 9.59L359.65 9.59Q359.88 9.53 360.23 9.50L360.23 9.50L360.23 9.50Q360.57 9.46 360.91 9.46L360.91 9.46L360.91 9.46Q361.09 9.46 361.26 9.48L361.26 9.48L361.26 9.48Q361.44 9.49 361.61 9.52L361.61 9.52L361.61 9.52Q362.28 9.41 362.82 9.19L362.82 9.19L362.82 9.19Q363.36 8.97 363.75 8.69L363.75 8.69L363.75 8.69Q364.14 8.40 364.35 8.05L364.35 8.05L364.35 8.05Q364.56 7.70 364.56 7.31L364.56 7.31L364.56 7.31Q364.56 6.64 364.03 6.29L364.03 6.29L364.03 6.29Q363.50 5.95 362.49 5.95ZM377.90 5.75L377.90 5.75L377.90 5.75Q377.29 6.58 376.78 7.57L376.78 7.57L376.78 7.57Q376.28 8.57 375.92 9.61L375.92 9.61L375.92 9.61Q375.56 10.65 375.37 11.67L375.37 11.67L375.37 11.67Q375.19 12.68 375.19 13.57L375.19 13.57L375.19 13.57Q375.19 14.66 375.51 15.15L375.51 15.15L375.51 15.15Q375.83 15.64 376.61 15.64L376.61 15.64L376.61 15.64Q377.52 15.64 378.21 15.00L378.21 15.00L378.21 15.00Q378.90 14.36 379.50 13.24L379.50 13.24L379.50 13.24Q379.89 12.52 380.17 11.65L380.17 11.65L380.17 11.65Q380.45 10.78 380.62 9.86L380.62 9.86L380.62 9.86Q380.80 8.95 380.88 8.02L380.88 8.02L380.88 8.02Q380.97 7.08 380.97 6.23L380.97 6.23L380.97 6.23Q380.97 5.68 380.95 5.43L380.95 5.43L380.95 5.43Q380.94 5.18 380.91 5.03L380.91 5.03L380.91 5.03Q380.95 5.03 381.12 5.05L381.12 5.05L381.12 5.05Q381.29 5.08 381.51 5.12L381.51 5.12L381.51 5.12Q381.72 5.17 381.94 5.24L381.94 5.24L381.94 5.24Q382.16 5.31 382.31 5.39L382.31 5.39L382.31 5.39Q382.24 6.45 382.05 7.59L382.05 7.59L382.05 7.59Q381.86 8.72 381.56 9.83L381.56 9.83L381.56 9.83Q381.25 10.93 380.84 11.96L380.84 11.96L380.84 11.96Q380.44 12.98 379.93 13.79L379.93 13.79L379.93 13.79Q379.19 14.99 378.27 15.67L378.27 15.67L378.27 15.67Q377.34 16.35 376.08 16.35L376.08 16.35L376.08 16.35Q374.79 16.35 374.08 15.60L374.08 15.60L374.08 15.60Q373.37 14.85 373.37 13.33L373.37 13.33L373.37 13.33Q373.37 12.45 373.56 11.33L373.56 11.33L373.56 11.33Q373.76 10.22 374.09 9.07L374.09 9.07L374.09 9.07Q374.42 7.91 374.85 6.81L374.85 6.81L374.85 6.81Q375.28 5.71 375.76 4.84L375.76 4.84L375.76 4.84Q376.00 4.86 376.32 4.94L376.32 4.94L376.32 4.94Q376.64 5.03 376.95 5.16L376.95 5.16L376.95 5.16Q377.26 5.29 377.52 5.45L377.52 5.45L377.52 5.45Q377.78 5.61 377.90 5.75ZM391.61 7.28L391.61 7.28L391.61 7.28Q391.55 7.08 391.52 6.82L391.52 6.82L391.52 6.82Q391.48 6.57 391.48 6.06L391.48 6.06L391.48 6.06Q391.48 5.74 391.50 5.41L391.50 5.41L391.50 5.41Q391.51 5.08 391.62 4.84L391.62 4.84L391.62 4.84Q392.31 4.97 393.08 5.07L393.08 5.07L393.08 5.07Q393.86 5.18 394.67 5.26L394.67 5.26L394.67 5.26Q395.49 5.35 396.30 5.40L396.30 5.40L396.30 5.40Q397.11 5.45 397.87 5.45L397.87 5.45L397.87 5.45Q398.90 5.45 399.53 5.36L399.53 5.36L399.53 5.36Q399.76 5.67 399.81 6.09L399.81 6.09L399.81 6.09Q399.87 6.51 399.87 6.87L399.87 6.87L399.87 6.87Q398.26 7.53 396.82 8.55L396.82 8.55L396.82 8.55Q395.37 9.56 394.20 10.67L394.20 10.67L394.20 10.67Q393.02 11.77 392.17 12.85L392.17 12.85L392.17 12.85Q391.31 13.93 390.89 14.73L390.89 14.73L390.89 14.73Q391.15 14.69 391.41 14.65L391.41 14.65L391.41 14.65Q391.68 14.62 391.99 14.59L391.99 14.59L391.99 14.59Q392.29 14.56 392.67 14.53L392.67 14.53L392.67 14.53Q393.05 14.50 393.54 14.48L393.54 14.48L393.54 14.48Q394.23 14.43 394.74 14.33L394.74 14.33L394.74 14.33Q395.26 14.22 395.63 14.11L395.63 14.11L395.63 14.11Q395.99 13.99 396.21 13.88L396.21 13.88L396.21 13.88Q396.42 13.78 396.52 13.71L396.52 13.71L396.52 13.71Q396.58 13.83 396.65 14.08L396.65 14.08L396.65 14.08Q396.73 14.34 396.79 14.64L396.79 14.64L396.79 14.64Q396.86 14.94 396.90 15.25L396.90 15.25L396.90 15.25Q396.94 15.57 396.94 15.83L396.94 15.83L396.94 15.83Q396.94 15.97 396.93 16.02L396.93 16.02L396.93 16.02Q396.93 16.07 396.91 16.13L396.91 16.13L396.91 16.13Q396.28 16.09 395.65 16.03L395.65 16.03L395.65 16.03Q395.01 15.97 394.38 15.97L394.38 15.97L394.38 15.97Q393.54 15.97 392.64 16.07L392.64 16.07L392.64 16.07Q391.73 16.16 390.90 16.34L390.90 16.34L390.90 16.34Q390.07 16.53 389.37 16.83L389.37 16.83L389.37 16.83Q388.68 17.12 388.26 17.53L388.26 17.53L388.26 17.53Q388.15 17.16 388.03 16.91L388.03 16.91L388.03 16.91Q387.91 16.65 387.91 16.28L387.91 16.28L387.91 16.28Q387.91 15.92 388.06 15.70L388.06 15.70L388.06 15.70Q388.21 15.48 388.46 15.34L388.46 15.34L388.46 15.34Q389.30 14.14 390.37 12.96L390.37 12.96L390.37 12.96Q391.44 11.77 392.66 10.67L392.66 10.67L392.66 10.67Q393.88 9.56 395.18 8.56L395.18 8.56L395.18 8.56Q396.48 7.56 397.78 6.73L397.78 6.73L397.78 6.73Q396.94 6.69 396.00 6.69L396.00 6.69L396.00 6.69Q395.35 6.69 394.70 6.72L394.70 6.72L394.70 6.72Q394.06 6.75 393.48 6.81L393.48 6.81L393.48 6.81Q392.91 6.87 392.43 6.99L392.43 6.99L392.43 6.99Q391.94 7.11 391.61 7.28ZM408.38 7.28L408.38 7.28L408.38 7.28Q408.32 7.08 408.29 6.82L408.29 6.82L408.29 6.82Q408.25 6.57 408.25 6.06L408.25 6.06L408.25 6.06Q408.25 5.74 408.27 5.41L408.27 5.41L408.27 5.41Q408.28 5.08 408.39 4.84L408.39 4.84L408.39 4.84Q409.08 4.97 409.86 5.07L409.86 5.07L409.86 5.07Q410.63 5.18 411.45 5.26L411.45 5.26L411.45 5.26Q412.26 5.35 413.07 5.40L413.07 5.40L413.07 5.40Q413.88 5.45 414.64 5.45L414.64 5.45L414.64 5.45Q415.67 5.45 416.30 5.36L416.30 5.36L416.30 5.36Q416.53 5.67 416.58 6.09L416.58 6.09L416.58 6.09Q416.64 6.51 416.64 6.87L416.64 6.87L416.64 6.87Q415.03 7.53 413.59 8.55L413.59 8.55L413.59 8.55Q412.15 9.56 410.97 10.67L410.97 10.67L410.97 10.67Q409.79 11.77 408.94 12.85L408.94 12.85L408.94 12.85Q408.09 13.93 407.67 14.73L407.67 14.73L407.67 14.73Q407.92 14.69 408.18 14.65L408.18 14.65L408.18 14.65Q408.45 14.62 408.76 14.59L408.76 14.59L408.76 14.59Q409.07 14.56 409.44 14.53L409.44 14.53L409.44 14.53Q409.82 14.50 410.31 14.48L410.31 14.48L410.31 14.48Q411.00 14.43 411.52 14.33L411.52 14.33L411.52 14.33Q412.03 14.22 412.40 14.11L412.40 14.11L412.40 14.11Q412.76 13.99 412.98 13.88L412.98 13.88L412.98 13.88Q413.20 13.78 413.29 13.71L413.29 13.71L413.29 13.71Q413.35 13.83 413.43 14.08L413.43 14.08L413.43 14.08Q413.50 14.34 413.57 14.64L413.57 14.64L413.57 14.64Q413.63 14.94 413.67 15.25L413.67 15.25L413.67 15.25Q413.71 15.57 413.71 15.83L413.71 15.83L413.71 15.83Q413.71 15.97 413.71 16.02L413.71 16.02L413.71 16.02Q413.70 16.07 413.69 16.13L413.69 16.13L413.69 16.13Q413.06 16.09 412.42 16.03L412.42 16.03L412.42 16.03Q411.78 15.97 411.15 15.97L411.15 15.97L411.15 15.97Q410.31 15.97 409.41 16.07L409.41 16.07L409.41 16.07Q408.51 16.16 407.67 16.34L407.67 16.34L407.67 16.34Q406.84 16.53 406.15 16.83L406.15 16.83L406.15 16.83Q405.45 17.12 405.03 17.53L405.03 17.53L405.03 17.53Q404.92 17.16 404.80 16.91L404.80 16.91L404.80 16.91Q404.68 16.65 404.68 16.28L404.68 16.28L404.68 16.28Q404.68 15.92 404.83 15.70L404.83 15.70L404.83 15.70Q404.98 15.48 405.23 15.34L405.23 15.34L405.23 15.34Q406.07 14.14 407.14 12.96L407.14 12.96L407.14 12.96Q408.21 11.77 409.43 10.67L409.43 10.67L409.43 10.67Q410.65 9.56 411.95 8.56L411.95 8.56L411.95 8.56Q413.25 7.56 414.55 6.73L414.55 6.73L414.55 6.73Q413.71 6.69 412.78 6.69L412.78 6.69L412.78 6.69Q412.12 6.69 411.47 6.72L411.47 6.72L411.47 6.72Q410.83 6.75 410.26 6.81L410.26 6.81L410.26 6.81Q409.68 6.87 409.20 6.99L409.20 6.99L409.20 6.99Q408.72 7.11 408.38 7.28Z"></path></g></svg>