<?xml version="1.0" encoding="UTF-8" standalone="no"?>
<svg
   data-v-fde0c5aa=""
   viewBox="0 0 300 300"
   class="iconAbove"
   version="1.1"
   id="svg18"
   sodipodi:docname="default.svg"
   inkscape:version="1.1 (c68e22c387, 2021-05-23)"
   xmlns:inkscape="http://www.inkscape.org/namespaces/inkscape"
   xmlns:sodipodi="http://sodipodi.sourceforge.net/DTD/sodipodi-0.dtd"
   xmlns="http://www.w3.org/2000/svg"
   xmlns:svg="http://www.w3.org/2000/svg">
  <sodipodi:namedview
     id="namedview20"
     pagecolor="#505050"
     bordercolor="#eeeeee"
     borderopacity="1"
     inkscape:pageshadow="0"
     inkscape:pageopacity="0"
     inkscape:pagecheckerboard="0"
     showgrid="false"
     inkscape:zoom="2.51"
     inkscape:cx="150"
     inkscape:cy="150"
     inkscape:window-width="3440"
     inkscape:window-height="1377"
     inkscape:window-x="-8"
     inkscape:window-y="-8"
     inkscape:window-maximized="1"
     inkscape:current-layer="svg18" />
  <!---->
  <defs
     data-v-fde0c5aa=""
     id="defs2">
    <!---->
  </defs>
  <rect
     data-v-fde0c5aa=""
     fill="#0B173D"
     x="0"
     y="0"
     width="300px"
     height="300px"
     class="logo-background-square"
     id="rect4" />
  <defs
     data-v-fde0c5aa=""
     id="defs6">
    <!---->
  </defs>
  <g
     data-v-fde0c5aa=""
     id="487181fa-8861-46c6-a083-6c28ffc45845"
     fill="#D1A103"
     transform="matrix(3.931055373440063,0,0,3.931055373440063,15.046870266954986,146.7744172637489)">
    <path
       d="M1.26 17.18L1.26 8.43L2.66 8.43L2.66 16.02L5.88 16.02L5.88 17.18L1.26 17.18ZM9.90 17.32L9.90 17.32Q8.64 17.32 8.00 17.02L8.00 17.02L8.00 17.02Q7.36 16.72 7.11 15.95L7.11 15.95L7.11 15.95Q6.86 15.18 6.86 13.68L6.86 13.68L6.86 13.68Q6.86 12.18 7.11 11.41L7.11 11.41L7.11 11.41Q7.36 10.64 8.00 10.34L8.00 10.34L8.00 10.34Q8.64 10.04 9.90 10.04L9.90 10.04L9.90 10.04Q11.17 10.04 11.80 10.34L11.80 10.34L11.80 10.34Q12.43 10.64 12.68 11.40L12.68 11.40L12.68 11.40Q12.94 12.17 12.94 13.68L12.94 13.68L12.94 13.68Q12.94 15.18 12.68 15.95L12.68 15.95L12.68 15.95Q12.43 16.72 11.80 17.02L11.80 17.02L11.80 17.02Q11.16 17.32 9.90 17.32L9.90 17.32ZM8.32 16.17L10.81 16.17L10.81 16.17Q11.21 16.17 11.35 16.10L11.35 16.10L11.35 16.10Q11.48 16.03 11.48 15.82L11.48 15.82L11.48 11.19L8.99 11.19L8.99 11.19Q8.58 11.19 8.45 11.26L8.45 11.26L8.45 11.26Q8.32 11.33 8.32 11.54L8.32 11.54L8.32 16.17ZM17.64 10.04L17.64 10.04Q18.61 10.04 19.17 10.23L19.17 10.23L19.17 10.23Q19.73 10.42 19.97 10.84L19.97 10.84L19.97 10.84Q20.22 11.27 20.22 12.00L20.22 12.00L20.22 17.18L19.57 17.18L19.19 16.48L19.19 16.48Q18.69 16.91 18.08 17.12L18.08 17.12L18.08 17.12Q17.47 17.32 16.69 17.32L16.69 17.32L16.69 17.32Q15.53 17.32 15.04 16.84L15.04 16.84L15.04 16.84Q14.55 16.35 14.55 15.22L14.55 15.22L14.55 15.22Q14.55 14.20 14.83 13.75L14.83 13.75L14.83 13.75Q15.11 13.30 15.93 13.15L15.93 13.15L15.93 13.15Q16.74 12.99 18.61 12.99L18.61 12.99L18.82 12.99L18.82 11.30L18.82 11.30Q18.30 11.14 17.40 11.14L17.40 11.14L17.40 11.14Q16.28 11.14 15.04 11.48L15.04 11.48L14.85 10.46L14.85 10.46Q15.37 10.28 16.14 10.16L16.14 10.16L16.14 10.16Q16.91 10.04 17.64 10.04L17.64 10.04ZM17.70 16.24L17.70 16.24Q18.35 16.24 18.59 16.07L18.59 16.07L18.59 16.07Q18.82 15.90 18.82 15.43L18.82 15.43L18.82 13.90L16.95 13.90L16.95 13.90Q16.30 13.90 16.06 14.07L16.06 14.07L16.06 14.07Q15.82 14.24 15.82 14.71L15.82 14.71L15.82 16.24L17.70 16.24ZM22.67 17.18L22.67 10.18L23.31 10.18L23.69 10.88L23.69 10.88Q24.22 10.44 24.85 10.24L24.85 10.24L24.85 10.24Q25.48 10.04 26.29 10.04L26.29 10.04L26.29 10.04Q27.27 10.04 27.78 10.34L27.78 10.34L27.78 10.34Q28.28 10.64 28.28 11.23L28.28 11.23L28.28 17.18L26.88 17.18L26.88 11.19L25.26 11.19L25.26 11.19Q24.57 11.19 24.32 11.35L24.32 11.35L24.32 11.35Q24.07 11.52 24.07 12.00L24.07 12.00L24.07 17.18L22.67 17.18ZM33.82 15.90L33.82 15.90Q34.38 16.04 35.13 16.14L35.13 16.14L35.13 16.14Q35.88 16.23 36.57 16.23L36.57 16.23L36.57 16.23Q37.28 16.23 38.15 16.14L38.15 16.14L38.15 13.54L36.82 13.44L36.82 13.44Q35.53 13.34 34.89 13.11L34.89 13.11L34.89 13.11Q34.24 12.88 33.98 12.38L33.98 12.38L33.98 12.38Q33.73 11.89 33.73 10.95L33.73 10.95L33.73 10.95Q33.73 9.94 33.98 9.35L33.98 9.35L33.98 9.35Q34.24 8.75 34.82 8.48L34.82 8.48L34.82 8.48Q35.41 8.22 36.39 8.22L36.39 8.22L36.39 8.22Q37.80 8.22 39.21 8.48L39.21 8.48L39.03 9.59L39.03 9.59Q37.91 9.38 36.47 9.38L36.47 9.38L36.47 9.38Q35.76 9.38 35.25 9.45L35.25 9.45L35.25 12.08L36.81 12.18L36.81 12.18Q37.93 12.25 38.54 12.51L38.54 12.51L38.54 12.51Q39.16 12.77 39.42 13.31L39.42 13.31L39.42 13.31Q39.68 13.85 39.68 14.80L39.68 14.80L39.68 14.80Q39.68 15.78 39.37 16.34L39.37 16.34L39.37 16.34Q39.06 16.90 38.36 17.14L38.36 17.14L38.36 17.14Q37.66 17.39 36.44 17.39L36.44 17.39L36.44 17.39Q34.96 17.39 33.61 17.05L33.61 17.05L33.82 15.90ZM41.50 17.18L41.50 7.98L42.87 7.87L42.87 10.64L42.87 10.64Q43.32 10.33 43.85 10.19L43.85 10.19L43.85 10.19Q44.39 10.04 45.12 10.04L45.12 10.04L45.12 10.04Q46.10 10.04 46.61 10.34L46.61 10.34L46.61 10.34Q47.11 10.64 47.11 11.23L47.11 11.23L47.11 17.18L45.71 17.18L45.71 11.19L44.09 11.19L44.09 11.19Q43.40 11.19 43.15 11.35L43.15 11.35L43.15 11.35Q42.90 11.52 42.90 12.00L42.90 12.00L42.90 17.18L41.50 17.18ZM52.16 10.04L52.16 10.04Q53.13 10.04 53.69 10.23L53.69 10.23L53.69 10.23Q54.25 10.42 54.49 10.84L54.49 10.84L54.49 10.84Q54.74 11.27 54.74 12.00L54.74 12.00L54.74 17.18L54.10 17.18L53.72 16.48L53.72 16.48Q53.21 16.91 52.60 17.12L52.60 17.12L52.60 17.12Q52.00 17.32 51.21 17.32L51.21 17.32L51.21 17.32Q50.05 17.32 49.56 16.84L49.56 16.84L49.56 16.84Q49.07 16.35 49.07 15.22L49.07 15.22L49.07 15.22Q49.07 14.20 49.35 13.75L49.35 13.75L49.35 13.75Q49.63 13.30 50.45 13.15L50.45 13.15L50.45 13.15Q51.27 12.99 53.13 12.99L53.13 12.99L53.34 12.99L53.34 11.30L53.34 11.30Q52.82 11.14 51.93 11.14L51.93 11.14L51.93 11.14Q50.81 11.14 49.56 11.48L49.56 11.48L49.38 10.46L49.38 10.46Q49.90 10.28 50.67 10.16L50.67 10.16L50.67 10.16Q51.44 10.04 52.16 10.04L52.16 10.04ZM52.22 16.24L52.22 16.24Q52.88 16.24 53.11 16.07L53.11 16.07L53.11 16.07Q53.34 15.90 53.34 15.43L53.34 15.43L53.34 13.90L51.48 13.90L51.48 13.90Q50.82 13.90 50.58 14.07L50.58 14.07L50.58 14.07Q50.34 14.24 50.34 14.71L50.34 14.71L50.34 16.24L52.22 16.24ZM57.85 10.18L58.34 11.28L58.34 11.28Q58.97 10.72 59.42 10.42L59.42 10.42L59.42 10.42Q59.86 10.11 60.26 9.97L60.26 9.97L60.40 11.34L60.40 11.34Q59.93 11.48 59.44 11.73L59.44 11.73L59.44 11.73Q58.94 11.97 58.59 12.24L58.59 12.24L58.59 17.18L57.19 17.18L57.19 10.18L57.85 10.18ZM64.37 13.93L63.27 13.93L63.27 17.18L61.87 17.18L61.87 8.08L63.27 7.87L63.27 12.95L64.37 12.95L65.86 10.18L67.33 10.18L65.53 13.44L67.40 17.18L65.95 17.18L64.37 13.93Z"
       id="path8" />
  </g>
  <defs
     data-v-fde0c5aa=""
     id="defs11">
    <!---->
  </defs>
  <g
     data-v-fde0c5aa=""
     id="752c4f44-b3c1-48c0-bdfe-cc01ec258c62"
     stroke="none"
     fill="#d1a103"
     transform="matrix(1.229899,0,0,1.229899,88.356441,38.216307)">
    <path
       clip-rule="evenodd"
       d="m 42.907,29.392 c 0.293,0.537 -0.19,0.955 0.121,1.494 1.173,-2.141 1.445,-4.529 2.424,-6.698 0.137,1.184 -0.03,2.398 0.385,3.659 2.606,-1.977 5.463,-3.48 8.146,-5.257 1.09,-0.721 1.699,-1.899 2.287,-3.038 2.071,-4.013 3.613,-8.264 5.537,-12.344 1.039,-2.204 2.15,-4.36 3.839,-6.208 -0.663,1.919 -1.345,3.832 -1.985,5.758 -1.185,3.559 -2.266,7.143 -2.862,10.861 -0.407,2.539 -0.13,5.014 0.46,7.479 0.069,0.29 0.16,0.574 0.283,1.005 -1.623,-0.346 -3.122,-0.575 -4.561,-1.007 -0.781,-0.234 -1.375,-0.079 -2.01,0.268 -5.092,2.78 -8.634,7.001 -11.282,12.075 -2.765,5.298 -3.261,10.772 -1.427,16.46 0.252,0.781 0.232,1.591 0.096,2.374 -0.211,1.214 -0.67,1.402 -2.723,1.266 -0.06,0.458 0.295,0.697 0.537,0.971 0.584,0.658 1.195,1.417 2.188,1.209 0.985,-0.206 1.115,-1.183 1.325,-1.972 0.794,-2.992 0.901,-6.061 0.914,-9.134 0.005,-1.267 0.001,-2.534 0.143,-3.855 1.241,1.159 2.015,2.6 2.687,4.094 2.082,4.635 3.375,9.53 4.555,14.445 0.571,2.381 2.051,3.992 3.743,5.604 0.146,-0.468 -0.266,-0.613 -0.401,-0.885 -0.159,-0.319 -0.414,-0.592 -0.569,-0.914 -0.295,-0.612 -0.672,-1.319 -0.164,-1.908 0.545,-0.631 1.289,-0.247 1.878,0.049 2.398,1.204 4.603,2.731 6.756,4.318 8.988,6.625 16.445,14.674 22.259,24.212 1.508,2.474 1.314,1.845 -0.828,3.065 -3.646,2.079 -7.603,2.238 -11.639,1.651 -3.001,-0.437 -5.977,-1.007 -8.901,-1.833 -1.052,-0.297 -2.019,-0.644 -2.833,-1.432 -0.56,-0.543 -1.286,-0.91 -2.369,-1.037 0.905,0.656 1.86,0.794 2.43,1.558 -5.948,1.112 -21.983,-6.289 -25.493,-11.786 0.987,-0.043 1.911,-0.216 2.824,-0.449 0.915,-0.233 1.818,-0.051 2.749,0.048 -1.025,-0.895 -2.224,-1.368 -3.584,-1.268 -6.025,0.445 -12.051,0.735 -18.068,-0.072 -1.999,-0.269 -3.945,-0.768 -6,-1.74 4.426,-1.377 8.53,-2.882 12.477,-4.79 1.853,-0.896 3.626,-1.886 4.698,-3.742 0.919,0.466 1.449,1.305 2.298,1.784 -1.18,-1.856 -2.99,-3.247 -3.931,-5.318 -0.24,1.279 0.229,2.601 -0.353,3.844 -2.013,-2.18 -2.73,-11.485 -1.188,-19.293 1.931,-9.786 6.815,-17.777 15.132,-23.571 z m -4.114,26.77 c -3.339,-6.651 -2.363,-13.1 0.732,-19.481 -0.188,0.06 -0.287,0.121 -0.34,0.209 -2.416,4.049 -3.813,8.397 -3.214,13.132 0.285,2.243 0.705,4.602 2.822,6.14 z m 29.901,37.493 c 4.174,3.498 13.055,4.806 16.021,2.334 -5.585,0.734 -10.751,-0.212 -16.021,-2.334 z m -4.02,-2.352 c -2.171,-1.574 -3.744,-4.299 -6.952,-3.583 0.251,0.524 1.171,0.2 1.399,0.819 1.001,2.707 3.348,2.601 5.553,2.764 z M 47.176,85.149 c -0.761,-1.949 -0.269,-3.726 0.887,-5.644 -1.767,1.492 -2.085,3.82 -0.887,5.644 z M 42.357,76.79 c -1.391,1.327 -1.669,3.243 -0.699,4.805 -0.486,-1.703 -0.052,-3.258 0.699,-4.805 z m 1.738,6.479 c -0.706,-1.756 0.111,-3.261 0.808,-4.985 -1.5,1.482 -1.802,3.426 -0.808,4.985 z"
       id="path13" />
    <path
       clip-rule="evenodd"
       d="m 66.761,61.803 c 0.724,1.915 0.603,6.253 -0.262,9.434 l -6.271,-4.439 c 3.004,-0.681 5.112,-2.274 6.533,-4.995 z"
       id="path15" />
  </g>
  <!---->
</svg>
