<svg data-v-fde0c5aa="" xmlns="http://www.w3.org/2000/svg" viewBox="0 0 300 300" class="iconAboveSlogan"><!----><defs data-v-fde0c5aa=""><!----></defs><rect data-v-fde0c5aa="" fill="#E4D1AE" x="0" y="0" width="300px" height="300px" class="logo-background-square"></rect><defs data-v-fde0c5aa=""><!----></defs><g data-v-fde0c5aa="" id="52e096c2-78d3-4b88-900f-d86d4ae4e5c1" fill="#D43D56" transform="matrix(6.322223319719625,0,0,6.322223319719625,19.951864474418,160.4361738872851)"><path d="M6.75 11.93L6.75 11.93L6.78 12.35L6.78 12.35Q6.78 12.57 6.10 12.57L6.10 12.57L6.10 12.57Q4.93 12.57 4.93 12.12L4.93 12.12L4.93 12.12Q4.93 11.68 5.55 10.19L5.55 10.19L5.55 10.19Q6.17 8.71 6.17 8.34L6.17 8.34L6.17 8.34Q6.17 7.60 5.26 7.60L5.26 7.60L5.04 7.62L5.04 7.62Q4.87 7.62 4.87 7.49L4.87 7.49L4.87 7.49Q4.87 7.22 5.08 6.95L5.08 6.95L5.08 6.95Q5.28 6.68 5.59 6.68L5.59 6.68L5.59 6.68Q6.86 6.68 7.87 5.92L7.87 5.92L7.87 5.92Q8.88 5.17 8.88 4.33L8.88 4.33L8.88 4.33Q8.88 3.72 8.51 3.49L8.51 3.49L8.51 3.49Q8.13 3.25 7.49 3.25L7.49 3.25L7.49 3.25Q6.85 3.25 6.51 3.64L6.51 3.64L6.51 3.64Q5.68 4.68 3.86 7.97L3.86 7.97L3.86 7.97Q2.03 11.27 1.81 12.03L1.81 12.03L1.81 12.03Q1.68 12.38 1.16 12.54L1.16 12.54L1.16 12.54Q0.63 12.71 0.13 12.71L0.13 12.71L0.13 12.71Q-0.36 12.71-0.36 12.52L-0.36 12.52L-0.36 12.49L-0.36 12.49Q-0.36 12.33 0.60 10.70L0.60 10.70L0.60 10.70Q1.57 9.06 2.74 7.05L2.74 7.05L2.74 7.05Q3.91 5.04 4.25 4.27L4.25 4.27L4.25 4.27Q4.59 3.50 4.59 2.97L4.59 2.97L4.59 2.83L4.59 2.83Q4.59 2.45 6.72 2.45L6.72 2.45L6.72 2.45Q9.00 2.45 9.73 2.91L9.73 2.91L9.73 2.91Q10.04 3.11 10.26 3.49L10.26 3.49L10.26 3.49Q10.47 3.86 10.47 4.45L10.47 4.45L10.47 4.45Q10.47 5.04 10.00 5.64L10.00 5.64L10.00 5.64Q9.52 6.24 8.98 6.53L8.98 6.53L8.98 6.53Q8.44 6.82 7.91 6.94L7.91 6.94L7.91 6.94Q7.38 7.07 7.11 7.15L7.11 7.15L7.11 7.15Q6.85 7.24 6.85 7.42L6.85 7.42L6.85 7.42Q6.85 7.53 7.05 7.69L7.05 7.69L7.05 7.69Q7.25 7.85 7.46 8.08L7.46 8.08L7.46 8.08Q7.67 8.30 7.67 8.55L7.67 8.55L7.67 8.55Q7.67 8.81 7.21 10.00L7.21 10.00L7.21 10.00Q6.75 11.20 6.75 11.93ZM9.56 13.15L9.56 13.15L9.56 13.15Q8.75 13.15 8.37 12.66L8.37 12.66L8.37 12.66Q7.99 12.18 7.99 11.47L7.99 11.47L7.99 11.47Q7.99 10.77 8.30 9.99L8.30 9.99L8.30 9.99Q8.61 9.21 9.15 8.48L9.15 8.48L9.15 8.48Q9.69 7.76 10.56 7.26L10.56 7.26L10.56 7.26Q11.44 6.76 12.45 6.76L12.45 6.76L12.45 6.76Q12.91 6.76 13.15 7.05L13.15 7.05L13.15 7.05Q13.38 7.34 13.38 7.73L13.38 7.73L13.38 7.73Q13.38 8.54 12.81 9.24L12.81 9.24L12.81 9.24Q12.24 9.94 11.54 10.30L11.54 10.30L11.54 10.30Q10.84 10.67 10.30 10.72L10.30 10.72L10.30 10.72Q9.76 10.77 9.58 10.92L9.58 10.92L9.58 10.92Q9.39 11.07 9.39 11.54L9.39 11.54L9.39 11.54Q9.39 12.00 9.60 12.24L9.60 12.24L9.60 12.24Q9.81 12.47 10.02 12.56L10.02 12.56L10.02 12.56Q10.23 12.64 10.23 12.73L10.23 12.73L10.23 12.73Q10.23 12.92 10.02 13.03L10.02 13.03L10.02 13.03Q9.81 13.15 9.56 13.15ZM12.03 8.08L12.03 8.08L12.03 8.08Q12.03 7.64 11.63 7.64L11.63 7.64L11.63 7.64Q11.07 7.64 10.39 8.43L10.39 8.43L10.39 8.43Q9.72 9.21 9.72 9.84L9.72 9.84L9.72 9.84Q9.72 10.00 9.95 10.00L9.95 10.00L9.95 10.00Q10.53 10.00 11.28 9.41L11.28 9.41L11.28 9.41Q12.03 8.82 12.03 8.08ZM16.16 11.77L16.16 11.77L16.18 11.14L16.18 11.14Q16.18 10.91 16.09 10.91L16.09 10.91L16.09 10.91Q15.85 10.91 14.92 11.96L14.92 11.96L14.92 11.96Q14.57 12.36 14.11 12.69L14.11 12.69L14.11 12.69Q13.65 13.02 13.34 13.02L13.34 13.02L13.34 13.02Q13.02 13.02 12.90 12.82L12.90 12.82L12.90 12.82Q12.78 12.61 12.78 12.39L12.78 12.39L12.78 12.39Q12.78 11.44 13.19 10.12L13.19 10.12L13.19 10.12Q13.59 8.81 14.01 7.98L14.01 7.98L14.42 7.14L14.42 7.14Q14.71 6.71 15.44 6.71L15.44 6.71L15.44 6.71Q15.68 6.71 15.68 6.82L15.68 6.82L15.68 6.82Q15.68 6.85 15.55 7.08L15.55 7.08L15.55 7.08Q15.43 7.32 15.02 8.56L15.02 8.56L15.02 8.56Q14.62 9.80 14.62 10.31L14.62 10.31L14.62 10.31Q14.62 10.82 14.83 10.82L14.83 10.82L14.83 10.82Q15.04 10.82 15.34 10.57L15.34 10.57L15.34 10.57Q15.65 10.32 15.95 9.94L15.95 9.94L15.95 9.94Q16.58 9.13 16.90 8.60L16.90 8.60L17.05 8.34L17.22 8.18L17.22 8.18Q17.57 7.91 18.12 7.91L18.12 7.91L18.12 7.91Q18.35 7.91 18.35 8.02L18.35 8.02L18.35 8.02Q18.35 8.05 18.24 8.26L18.24 8.26L18.24 8.26Q18.13 8.47 17.86 9.33L17.86 9.33L17.86 9.33Q17.58 10.19 17.58 10.74L17.58 10.74L17.58 10.74Q17.58 11.28 17.91 11.28L17.91 11.28L17.91 11.28Q18.49 11.28 19.25 10.15L19.25 10.15L19.25 10.15Q20.01 9.02 20.01 8.36L20.01 8.36L20.01 8.36Q19.64 8.22 19.64 7.88L19.64 7.88L19.64 7.88Q19.64 7.53 19.91 7.18L19.91 7.18L19.91 7.18Q20.19 6.82 20.34 6.82L20.34 6.82L20.34 6.82Q20.36 6.82 20.56 6.88L20.56 6.88L20.56 6.88Q20.76 6.94 21.11 6.94L21.11 6.94L21.11 6.94Q21.46 6.94 21.75 6.86L21.75 6.86L21.75 6.86Q22.04 6.78 22.18 6.70L22.18 6.70L22.18 6.70Q22.33 6.62 22.36 6.62L22.36 6.62L22.36 6.62Q22.48 6.62 22.48 6.75L22.48 6.75L22.48 6.75Q22.48 6.87 22.44 7.04L22.44 7.04L22.44 7.04Q22.40 7.21 22.14 7.58L22.14 7.58L22.14 7.58Q21.88 7.95 21.43 8.13L21.43 8.13L21.43 8.13Q21.32 8.19 21.32 8.26L21.32 8.26L21.32 8.26Q21.32 8.61 21.11 8.99L21.11 8.99L21.11 8.99Q20.52 10.11 19.11 11.40L19.11 11.40L19.11 11.40Q17.70 12.68 16.84 12.68L16.84 12.68L16.84 12.68Q16.16 12.68 16.16 11.77ZM21.71 13.06L21.71 13.06L21.71 13.06Q21.52 13.06 21.28 12.82L21.28 12.82L21.28 12.82Q21.04 12.57 21.04 12.22L21.04 12.22L21.04 12.22Q21.04 12.03 21.96 10.24L21.96 10.24L21.96 10.24Q22.88 8.46 22.90 7.83L22.90 7.83L22.90 7.83Q22.90 7.63 23.16 7.46L23.16 7.46L23.16 7.46Q23.60 7.20 24.49 7.20L24.49 7.20L24.49 7.20Q24.65 7.20 24.84 7.26L24.84 7.26L24.84 7.26Q25.03 7.32 25.03 7.43L25.03 7.43L25.03 7.43Q25.03 7.49 24.99 7.53L24.99 7.53L24.99 7.53Q24.46 8.20 23.44 9.95L23.44 9.95L23.44 9.95Q22.41 11.70 21.90 12.80L21.90 12.80L21.90 12.80Q21.83 13.06 21.71 13.06ZM24.78 6.41L24.78 6.41L24.78 6.41Q24.16 6.41 24.14 5.92L24.14 5.92L24.14 5.91L24.14 5.91Q24.14 5.49 24.55 5.22L24.55 5.22L24.55 5.22Q24.96 4.96 25.37 4.96L25.37 4.96L25.37 4.96Q25.98 4.96 26.01 5.45L26.01 5.45L26.01 5.45Q26.01 5.87 25.61 6.14L25.61 6.14L25.61 6.14Q25.20 6.41 24.78 6.41ZM27.58 12.95L27.58 12.95L27.58 12.95Q27.19 12.95 27.19 12.77L27.19 12.77L27.22 12.68L27.22 12.68Q28.06 11.42 28.66 10.26L28.66 10.26L28.66 10.26Q29.26 9.09 29.26 8.74L29.26 8.74L29.26 8.74Q29.26 8.62 29.20 8.56L29.20 8.56L29.20 8.56Q29.15 8.50 29.04 8.48L29.04 8.48L29.04 8.48Q28.49 8.48 27.57 9.18L27.57 9.18L27.57 9.18Q26.66 9.88 25.96 10.63L25.96 10.63L25.96 10.63Q25.27 11.37 24.93 11.84L24.93 11.84L24.93 11.84Q24.60 12.31 23.93 12.31L23.93 12.31L23.93 12.31Q23.56 12.31 23.56 12.12L23.56 12.12L23.56 12.12Q23.56 11.76 24.93 9.55L24.93 9.55L24.93 9.55Q26.31 7.35 26.75 7.18L26.75 7.18L26.75 7.18Q26.99 7.04 27.36 7.04L27.36 7.04L27.36 7.04Q27.73 7.04 27.73 7.19L27.73 7.19L27.73 7.19Q27.73 7.34 27.40 7.83L27.40 7.83L27.40 7.83Q27.06 8.32 27.06 8.46L27.06 8.46L27.06 8.46Q27.09 8.57 27.18 8.57L27.18 8.57L27.18 8.57Q27.27 8.57 27.34 8.51L27.34 8.51L27.34 8.51Q29.41 6.90 30.65 6.90L30.65 6.90L30.65 6.90Q31.16 6.90 31.16 7.50L31.16 7.50L31.16 7.50Q31.16 7.90 30.58 9.20L30.58 9.20L30.58 9.20Q30.00 10.50 29.11 11.73L29.11 11.73L29.11 11.73Q28.22 12.95 27.58 12.95ZM33.33 10.68L33.33 10.68L33.33 10.68Q34.08 10.02 34.64 9.29L34.64 9.29L34.64 9.29Q35.20 8.55 35.20 8.37L35.20 8.37L35.20 8.37Q35.20 8.18 35.03 8.05L35.03 8.05L35.03 8.05Q34.86 7.92 34.51 7.92L34.51 7.92L34.51 7.92Q33.70 7.92 32.80 9.03L32.80 9.03L32.80 9.03Q31.91 10.14 31.91 10.92L31.91 10.92L31.91 10.92Q31.91 11.34 32.20 11.34L32.20 11.34L32.20 11.34Q32.59 11.34 33.33 10.68ZM34.13 12.71L34.13 12.71L34.10 12.71L34.10 12.71Q33.43 12.71 33.43 11.96L33.43 11.96L33.46 11.68L33.36 11.54L33.36 11.54Q33.28 11.54 33.15 11.63L33.15 11.63L33.15 11.63Q31.95 12.80 31.04 12.80L31.04 12.80L31.04 12.80Q30.76 12.80 30.53 12.58L30.53 12.58L30.53 12.58Q30.30 12.36 30.30 11.83L30.30 11.83L30.30 11.83Q30.30 10.77 31.22 9.38L31.22 9.38L31.22 9.38Q32.68 7.18 34.89 7.18L34.89 7.18L34.89 7.18Q35.20 7.18 35.45 7.27L35.45 7.27L35.45 7.27Q35.71 7.36 35.78 7.36L35.78 7.36L35.78 7.36Q35.84 7.36 36.01 7.15L36.01 7.15L36.01 7.15Q36.18 6.93 37.09 5.38L37.09 5.38L37.09 5.38Q39.20 1.78 39.56 1.04L39.56 1.04L39.56 1.04Q39.87 0.42 41.12 0.42L41.12 0.42L41.12 0.42Q41.50 0.42 41.50 0.64L41.50 0.64L41.50 0.64Q41.50 0.73 40.90 1.51L40.90 1.51L40.90 1.51Q40.31 2.30 39.21 3.91L39.21 3.91L39.21 3.91Q38.11 5.52 37.17 7.21L37.17 7.21L37.17 7.21Q34.75 11.07 34.29 12.54L34.29 12.54L34.29 12.54Q34.23 12.71 34.13 12.71Z"></path></g><defs data-v-fde0c5aa=""><!----></defs><g data-v-fde0c5aa="" id="80a58292-1112-4ac1-90b9-16d1602240bb" stroke="none" fill="#D43D56" transform="matrix(1.0616054034626687,0,0,1.0616054034626687,96.92079084911276,39.46601245978491)"><path d="M0 50L49.497.503l2.829 2.828L2.829 52.828z"></path><path d="M2.829 47.172l49.496 49.496-2.829 2.828L0 50zM47.674 50L97.17.503l2.828 2.828-49.497 49.497z"></path><path d="M50.502 47.172l49.496 49.496-2.828 2.828L47.674 50z"></path></g><defs data-v-fde0c5aa=""><!----></defs><g data-v-fde0c5aa="" id="65c351de-fca3-4ed3-aba0-a6e12568fdde" fill="#D43D56" transform="matrix(0.6771962488904584,0,0,0.6771962488904584,50.62145873986281,252.15129569494)"><path d="M7.71 2.21L0.20 2.21L0.20 3.22L3.43 3.22L3.43 11.48L4.48 11.48L4.48 3.22L7.71 3.22ZM22.48 2.21L22.48 6.33L17.09 6.33L17.09 2.21L16.04 2.21L16.04 11.48L17.09 11.48L17.09 7.35L22.48 7.35L22.48 11.48L23.53 11.48L23.53 2.21ZM39.62 3.22L39.62 2.21L32.80 2.21L32.80 11.48L39.62 11.48L39.62 10.47L33.85 10.47L33.85 7.35L39.00 7.35L39.00 6.33L33.85 6.33L33.85 3.22ZM49.36 7.92L52.58 7.92L54.82 11.48L56.07 11.48L53.63 7.74C54.67 7.50 55.87 6.90 55.87 5.11C55.87 3.35 54.66 2.21 52.75 2.21L48.31 2.21L48.31 11.48L49.36 11.48ZM49.36 3.21L52.63 3.21C53.94 3.21 54.82 3.93 54.82 5.11C54.82 6.55 53.56 6.93 52.57 6.93L49.36 6.93ZM71.50 3.22L71.50 2.21L64.68 2.21L64.68 11.48L71.50 11.48L71.50 10.47L65.73 10.47L65.73 7.35L70.88 7.35L70.88 6.33L65.73 6.33L65.73 3.22ZM94.33 2.21L93.02 2.21L89.08 11.48L90.24 11.48L91.38 8.79L95.97 8.79L97.10 11.48L98.27 11.48ZM91.78 7.83L93.67 3.30L95.56 7.83ZM113.39 2.21L113.39 10.01L107.66 2.21L106.44 2.21L106.44 11.48L107.49 11.48L107.49 3.65L113.22 11.48L114.44 11.48L114.44 2.21ZM127.61 2.21L123.70 2.21L123.70 11.48L127.61 11.48C129.82 11.48 131.87 9.74 131.87 6.85C131.87 3.95 129.82 2.21 127.61 2.21ZM127.57 10.49L124.75 10.49L124.75 3.21L127.57 3.21C129.54 3.21 130.82 4.86 130.82 6.85C130.82 8.83 129.54 10.49 127.57 10.49ZM156.38 6.75C157.04 6.45 157.63 5.85 157.63 4.66C157.63 3.54 156.88 2.21 154.70 2.21L150.54 2.21L150.54 11.48L154.94 11.48C157.05 11.48 158.10 10.43 158.10 9.04C158.10 7.66 157.16 7 156.38 6.75ZM151.59 3.21L154.81 3.21C156.09 3.21 156.58 3.98 156.58 4.75C156.58 5.88 155.67 6.36 154.70 6.36L151.59 6.36ZM155.05 10.49L151.59 10.49L151.59 7.31L154.94 7.31C156.41 7.31 157.05 8.09 157.05 8.96C157.05 9.93 156.32 10.49 155.05 10.49ZM170.97 2.21L169.65 2.21L165.72 11.48L166.88 11.48L168.01 8.79L172.61 8.79L173.74 11.48L174.90 11.48ZM168.42 7.83L170.31 3.30L172.20 7.83ZM186.87 10.57C184.62 10.57 183.36 8.93 183.36 6.85C183.36 4.76 184.62 3.12 186.87 3.12C188.40 3.12 189.41 3.85 189.88 4.98L190.99 4.98C190.40 3.29 188.89 2.10 186.79 2.10C184.00 2.10 182.31 4.21 182.31 6.85C182.31 9.48 184.00 11.59 186.79 11.59C188.89 11.59 190.40 10.40 190.99 8.71L189.88 8.71C189.41 9.84 188.40 10.57 186.87 10.57ZM207.24 2.21L205.76 2.21L200.61 7.04L200.61 2.21L199.56 2.21L199.56 11.48L200.61 11.48L200.61 8.44L202.52 6.65L206.15 11.48L207.47 11.48L203.29 5.94ZM229.67 2.21L228.35 2.21L224.42 11.48L225.58 11.48L226.72 8.79L231.31 8.79L232.44 11.48L233.60 11.48ZM227.12 7.83L229.01 3.30L230.90 7.83ZM245.57 2.10C242.79 2.10 241.01 4.21 241.01 6.85C241.01 9.48 242.72 11.59 245.55 11.59C247.23 11.59 248.32 10.74 248.91 9.84L248.91 11.48L249.87 11.48L249.87 6.55L245.52 6.55L245.52 7.50L248.91 7.50C248.91 9.44 247.31 10.57 245.63 10.57C243.38 10.57 242.06 8.93 242.06 6.85C242.06 4.76 243.40 3.12 245.66 3.12C247.07 3.12 248.08 3.74 248.64 4.73L249.79 4.73C249.10 3.18 247.56 2.10 245.57 2.10ZM262.88 2.21L261.56 2.21L257.63 11.48L258.79 11.48L259.92 8.79L264.52 8.79L265.65 11.48L266.81 11.48ZM260.33 7.83L262.22 3.30L264.11 7.83ZM276.04 2.21L274.99 2.21L274.99 11.48L276.04 11.48ZM292.25 2.21L292.25 10.01L286.52 2.21L285.31 2.21L285.31 11.48L286.36 11.48L286.36 3.65L292.08 11.48L293.30 11.48L293.30 2.21Z"></path></g></svg>