<svg data-v-fde0c5aa="" xmlns="http://www.w3.org/2000/svg" viewBox="0 0 300 300" class="iconAboveSlogan"><!----><defs data-v-fde0c5aa=""><!----></defs><rect data-v-fde0c5aa="" fill="#DF8E40" x="0" y="0" width="300px" height="300px" class="logo-background-square"></rect><defs data-v-fde0c5aa=""><!----></defs><g data-v-fde0c5aa="" id="4be58b7e-1998-4535-802f-665260c115de" fill="#2A1A0A" transform="matrix(3.1718921084306624,0,0,3.1718921084306624,19.555935102929112,145.65514214283837)"><path d="M8.19 6.80L8.09 4.79L7.83 4.54C7.83 4.54 6.51 4.68 6.23 4.68L2.10 4.68C1.82 4.68 0.50 4.54 0.50 4.54L0.24 4.79L0.14 6.80L0.95 6.87C0.98 6.65 1.05 6.22 1.11 6.01C1.12 5.91 1.25 5.71 1.39 5.53C1.69 5.50 2.13 5.46 2.52 5.46L3.40 5.46C3.43 5.73 3.53 6.38 3.53 6.59L3.53 12.63C3.53 12.87 3.43 13.51 3.40 13.69L2.30 13.92L2.37 14.62C2.37 14.62 3.74 14.55 4.02 14.55C5.14 14.55 6.06 14.62 6.06 14.62L6.16 13.79L4.90 13.69C4.87 13.50 4.80 12.80 4.80 12.21L4.80 7.01C4.80 6.48 4.87 5.74 4.90 5.46L5.81 5.46C6.20 5.46 6.64 5.50 6.94 5.53C7.08 5.71 7.21 5.91 7.22 6.01C7.28 6.22 7.35 6.65 7.38 6.87ZM8.61 4.65L9.67 4.87C9.67 4.87 9.81 5.66 9.81 5.94L9.81 12.63C9.81 12.91 9.70 13.57 9.67 13.69L8.60 13.92L8.67 14.62C8.67 14.62 9.94 14.55 10.22 14.55C11.34 14.55 12.03 14.62 12.03 14.62L12.12 13.79L11.03 13.69C11.02 13.58 10.95 12.82 10.95 12.21L10.95 10.71C10.96 9.34 11.63 8.36 12.74 8.36C13.92 8.36 14.18 9.51 14.18 10.68L14.18 12.63C14.18 12.98 14.11 13.38 14.04 13.69L13.10 13.92L13.17 14.62C13.17 14.62 14.32 14.55 14.60 14.55C15.72 14.55 16.41 14.62 16.41 14.62L16.51 13.79L15.41 13.69C15.41 13.69 15.32 12.91 15.32 12.21L15.32 10.68C15.32 8.75 14.88 7.50 12.95 7.50C12.00 7.50 11.33 8.01 10.95 8.57L10.95 6.36C10.95 5.70 11.00 4.65 11.05 4.21L10.78 3.96L9.97 3.96C9.69 3.96 8.68 3.91 8.68 3.91ZM20.26 7.50C18.20 7.50 17.21 9.02 17.21 11.12C17.21 13.23 18.31 14.69 20.43 14.69C22.01 14.69 22.90 13.85 22.90 13.85L22.51 13.20C22.51 13.20 21.62 13.78 20.43 13.78C19.17 13.78 18.56 12.49 18.52 11.23L22.71 11.23L22.95 10.77C22.95 8.81 22.22 7.50 20.26 7.50ZM20.20 8.23C21.20 8.23 21.66 9.02 21.66 10.01C21.66 10.08 21.64 10.29 21.64 10.29L18.54 10.53C18.63 9.37 19.05 8.23 20.20 8.23ZM36.61 4.61C36.61 4.61 35.81 4.68 34.69 4.68C34.41 4.68 33.07 4.61 33.07 4.61L33.00 5.36L34.08 5.53C34.10 5.71 34.20 6.36 34.20 6.59L34.20 9.18L29.57 9.25L29.57 7.01C29.57 6.43 29.64 5.73 29.67 5.53L30.76 5.43L30.70 4.61C30.70 4.61 29.90 4.68 28.78 4.68C28.50 4.68 27.16 4.61 27.16 4.61L27.09 5.36L28.17 5.53C28.20 5.71 28.29 6.36 28.29 6.59L28.29 12.63C28.29 12.87 28.20 13.51 28.17 13.69L27.06 13.92L27.13 14.62C27.13 14.62 28.50 14.55 28.78 14.55C29.90 14.55 30.83 14.62 30.83 14.62L30.93 13.79L29.67 13.69C29.64 13.50 29.57 12.80 29.57 12.21L29.57 9.97L34.20 9.97L34.20 12.63C34.20 12.87 34.10 13.51 34.08 13.69L32.97 13.92L33.04 14.62C33.04 14.62 34.41 14.55 34.69 14.55C35.81 14.55 36.74 14.62 36.74 14.62L36.83 13.79L35.57 13.69C35.55 13.50 35.48 12.80 35.48 12.21L35.48 7.01C35.48 6.43 35.55 5.73 35.57 5.53L36.67 5.43ZM41.83 8.32L42.83 8.54C42.83 8.54 42.97 9.32 42.97 9.60L42.97 11.61C42.97 12.73 42.35 13.79 41.20 13.79C40.17 13.79 39.82 13.02 39.82 11.98L39.82 10.02C39.82 9.32 39.91 7.88 39.91 7.88L39.65 7.63L38.84 7.63C38.56 7.63 37.69 7.57 37.69 7.57L37.62 8.32L38.54 8.54C38.54 8.54 38.68 9.32 38.68 9.60L38.68 11.51C38.68 13.40 39.02 14.69 40.95 14.69C42.25 14.69 42.85 13.92 43.12 13.45L43.30 14.55C44.42 14.55 45.11 14.62 45.11 14.62L45.21 13.79L44.24 13.69C44.24 13.69 44.10 12.91 44.10 12.21L44.10 10.02C44.10 9.32 44.20 7.88 44.20 7.88L43.93 7.63L43.12 7.63C42.84 7.63 41.90 7.57 41.90 7.57ZM46.09 8.32L47.15 8.54C47.15 8.54 47.29 9.32 47.29 9.60L47.29 12.70C47.26 13.02 47.15 13.69 47.15 13.69L46.09 13.92L46.16 14.62C46.16 14.62 47.43 14.55 47.71 14.55C48.83 14.55 49.52 14.62 49.52 14.62L49.62 13.79L48.52 13.69C48.52 13.69 48.43 12.91 48.43 12.21L48.43 10.71C48.44 9.34 49.11 8.36 50.22 8.36C51.39 8.36 51.66 9.51 51.66 10.68L51.66 12.63C51.66 12.98 51.59 13.38 51.52 13.69L50.58 13.92L50.65 14.62C50.65 14.62 51.80 14.55 52.08 14.55C53.20 14.55 53.89 14.62 53.89 14.62L53.98 13.79L52.89 13.69C52.89 13.69 52.79 12.91 52.79 12.21L52.79 10.68C52.79 8.75 52.36 7.50 50.43 7.50C49.36 7.50 48.64 8.13 48.30 8.78L48.22 7.88L47.95 7.63L47.45 7.63C47.17 7.63 46.16 7.57 46.16 7.57ZM61.63 13.79L60.66 13.69C60.66 13.69 60.52 12.91 60.52 12.21L60.52 6.36C60.52 5.66 60.62 4.21 60.62 4.21L60.35 3.96L59.54 3.96C59.26 3.96 58.09 3.91 58.09 3.91L58.02 4.65L59.25 4.87C59.25 4.87 59.39 5.66 59.39 5.94L59.39 7.84C58.65 7.57 58.23 7.50 57.64 7.50C55.82 7.50 54.70 8.88 54.70 11.09C54.70 13.33 55.76 14.69 57.51 14.69C58.25 14.69 59.25 14.07 59.53 13.43L59.72 14.55C60.84 14.55 61.53 14.62 61.53 14.62ZM59.39 11.65C59.39 12.99 58.73 13.79 57.61 13.79C56.60 13.79 55.99 12.77 55.99 11.10C55.99 9.37 56.64 8.36 57.78 8.36C58.37 8.36 58.86 8.51 59.39 8.86ZM64.64 7.88L64.37 7.63L63.87 7.63C63.59 7.63 62.58 7.57 62.58 7.57L62.51 8.32L63.57 8.54C63.57 8.54 63.71 9.32 63.71 9.60L63.71 12.63C63.71 12.91 63.57 13.69 63.57 13.69L62.51 13.92L62.58 14.62C62.58 14.62 63.85 14.55 64.13 14.55C65.25 14.55 66.22 14.62 66.22 14.62L66.32 13.79L64.95 13.69C64.95 13.69 64.85 12.91 64.85 12.21L64.85 10.57C64.90 9.25 65.44 8.48 66.72 8.47L66.78 8.47C66.88 8.76 66.98 9.09 66.98 9.17L66.98 9.91L67.79 9.95L67.93 7.64C67.93 7.64 67.49 7.50 66.98 7.50C65.97 7.50 65.27 7.91 64.72 8.81ZM71.53 7.50C69.47 7.50 68.47 9.02 68.47 11.12C68.47 13.23 69.58 14.69 71.69 14.69C73.28 14.69 74.17 13.85 74.17 13.85L73.78 13.20C73.78 13.20 72.88 13.78 71.69 13.78C70.43 13.78 69.83 12.49 69.79 11.23L73.98 11.23L74.21 10.77C74.21 8.81 73.49 7.50 71.53 7.50ZM71.47 8.23C72.46 8.23 72.93 9.02 72.93 10.01C72.93 10.08 72.91 10.29 72.91 10.29L69.80 10.53C69.90 9.37 70.32 8.23 71.47 8.23ZM82.11 13.79L81.14 13.69C81.14 13.69 81.00 12.91 81.00 12.21L81.00 6.36C81.00 5.66 81.10 4.21 81.10 4.21L80.84 3.96L80.02 3.96C79.74 3.96 78.57 3.91 78.57 3.91L78.50 4.65L79.73 4.87C79.73 4.87 79.87 5.66 79.87 5.94L79.87 7.84C79.13 7.57 78.71 7.50 78.12 7.50C76.30 7.50 75.18 8.88 75.18 11.09C75.18 13.33 76.24 14.69 77.99 14.69C78.74 14.69 79.73 14.07 80.01 13.43L80.21 14.55C81.33 14.55 82.01 14.62 82.01 14.62ZM79.87 11.65C79.87 12.99 79.21 13.79 78.09 13.79C77.08 13.79 76.47 12.77 76.47 11.10C76.47 9.37 77.13 8.36 78.26 8.36C78.85 8.36 79.34 8.51 79.87 8.86Z"></path></g><defs data-v-fde0c5aa=""><!----></defs><g data-v-fde0c5aa="" id="05546829-7370-41a6-97f5-b630c6b57f60" stroke="none" fill="#2A1A0A" transform="matrix(0.8489943721388286,0,0,0.8489943721388286,107.55027127225698,68.74171491871462)"><path d="M86.224 26.928a1.5 1.5 0 1 0-2.203 2.037 30.888 30.888 0 0 1 8.192 19.536h-3.105a1.5 1.5 0 1 0 0 3h3.104C91.45 67.402 78.652 80.2 62.75 80.962v-3.104a1.5 1.5 0 0 0-3 0v3.104C43.848 80.2 31.05 67.402 30.288 51.5h3.105a1.5 1.5 0 1 0 0-3h-3.088c.557-11.323 7.353-21.621 17.66-26.518a1.499 1.499 0 1 0-1.288-2.71C34.876 24.879 27.25 36.941 27.25 50c0 18.748 15.252 34 34 34 18.748 0 34-15.252 34-34a33.898 33.898 0 0 0-9.026-23.072z"></path><path d="M60.062 45.53L43.739 29.208a1.5 1.5 0 1 0-2.121 2.121l15.915 15.915a4.603 4.603 0 0 0-.926 2.757 4.643 4.643 0 1 0 9.286 0 4.62 4.62 0 0 0-.487-2.034l13.155-13.156a1.5 1.5 0 1 0-2.121-2.121L63.284 45.845a4.593 4.593 0 0 0-2.034-.488c-.413 0-.807.072-1.188.173zM11.25 39h10a1.5 1.5 0 1 0 0-3h-10a1.5 1.5 0 1 0 0 3zM23.75 48.5H6.25a1.5 1.5 0 1 0 0 3h17.5a1.5 1.5 0 1 0 0-3zM21.25 61h-10a1.5 1.5 0 1 0 0 3h10a1.5 1.5 0 1 0 0-3z"></path></g><defs data-v-fde0c5aa=""><!----></defs><g data-v-fde0c5aa="" id="e3299e31-8e2d-4768-88a0-3d4084d465d3" fill="#2A1A0A" transform="matrix(1.2898532176687862,0,0,1.2898532176687862,51.82927635141423,198.50966521164648)"><path d="M0.52 12.39C0.52 12.59 0.55 12.64 0.67 12.64C2.13 12.64 6.19 12.68 7.76 12.68C7.88 12.68 7.99 12.66 7.99 12.49C7.99 12.07 8.04 11.21 8.04 10.51C8.04 10.37 7.88 10.37 7.76 10.37C7.66 10.37 7.46 10.39 7.46 10.50C7.45 11.05 7.45 11.41 7.42 11.76C7.39 12.01 7.43 12.04 7.34 12.04L2.58 12.04C2.41 12.04 2.46 11.91 2.56 11.77C4.55 8.37 7.87 3.81 7.87 3.56C7.87 3.35 7.83 3.30 7.64 3.30L2.25 3.30C1.48 3.30 1.47 3.26 1.47 3.22L1.48 3.11C1.50 3.01 1.29 3.00 1.18 3.00C0.98 3.00 0.99 3.05 0.98 3.12C0.85 4.06 0.67 5.11 0.67 5.15C0.67 5.26 1.01 5.29 1.08 5.29C1.20 5.29 1.20 5.19 1.23 5.04C1.25 4.98 1.36 4.27 1.41 3.95C1.43 3.85 1.43 3.84 1.48 3.84L5.85 3.84C5.96 3.84 6.01 3.85 6.01 3.88C6.01 3.89 6.01 3.92 5.98 3.95C3.81 7.38 0.52 12.18 0.52 12.39ZM15.93 12.39C15.93 12.63 15.96 12.68 16.16 12.68C16.48 12.68 17.44 12.64 17.86 12.64C18.28 12.64 22.79 12.68 23.11 12.68C23.24 12.68 23.39 12.66 23.39 12.49C23.39 12.07 23.44 11.23 23.44 10.53C23.44 10.39 23.28 10.39 23.16 10.39C23.04 10.39 22.92 10.39 22.92 10.51C22.90 11.06 22.90 11.41 22.88 11.76C22.85 12.01 22.85 12.04 22.75 12.04C22.60 12.04 19.96 12.08 18.47 12.08C18.40 12.08 18.35 10.11 18.31 8.26C18.31 8.06 18.35 8.09 18.49 8.09L20.78 8.09C21.48 8.09 21.50 8.20 21.50 8.30L21.50 9.00C21.50 9.14 21.69 9.14 21.80 9.14C21.90 9.14 22.02 9.13 22.02 9.02C22.02 8.83 21.99 8.33 21.99 7.83C21.99 7.32 22.02 6.83 22.02 6.71C22.02 6.59 21.88 6.58 21.78 6.58C21.67 6.58 21.50 6.59 21.50 6.72L21.50 7.45C21.50 7.62 21.06 7.63 20.78 7.63L18.44 7.63C18.33 7.63 18.31 7.63 18.31 7.45C18.30 6.75 18.28 6.06 18.28 5.46C18.28 5.12 18.28 3.71 18.37 3.71C19.60 3.71 22.11 3.75 22.11 3.81C22.11 3.99 22.06 4.83 22.06 4.89C22.06 5.04 22.13 5.10 22.32 5.10C22.51 5.10 22.58 5.08 22.58 4.94C22.58 3.85 22.64 3.36 22.64 3.09C22.64 2.91 22.55 2.90 22.36 2.90C22.16 2.90 22.16 2.95 22.13 3.11C22.12 3.25 22.19 3.25 21.28 3.25C20.66 3.25 18.52 3.29 17.75 3.29C17.26 3.29 16.32 3.25 16.23 3.25C16.10 3.25 16.04 3.30 16.04 3.49C16.04 3.72 16.11 3.74 16.28 3.74L16.94 3.74C17.00 3.74 17.07 4.79 17.07 5.71C17.07 5.80 17.12 8.27 17.12 9.83L17.12 11.17C17.12 11.84 17.09 12.18 17.07 12.18L16.21 12.18C15.99 12.18 15.93 12.21 15.93 12.39ZM31.40 3.51C31.40 3.72 31.47 3.79 31.67 3.79L32.48 3.77C32.58 3.77 32.62 6.61 32.62 8.55L32.62 10.42C32.62 11.30 32.61 12.18 32.56 12.18L31.96 12.18C31.74 12.18 31.67 12.19 31.67 12.39C31.67 12.63 31.71 12.68 31.91 12.68C32.03 12.68 32.86 12.64 33.28 12.64C33.70 12.64 34.47 12.68 34.79 12.68C34.96 12.68 34.99 12.61 34.99 12.40C34.99 12.24 34.96 12.18 34.79 12.18L33.98 12.18C33.91 12.18 33.82 9.18 33.82 8.37C33.82 8.30 33.82 8.26 33.94 8.26C34.33 8.26 34.93 8.27 35.22 8.27C37.46 8.32 37.60 10.00 37.60 11.68L37.60 12.49C37.60 12.61 37.66 12.64 37.76 12.64C37.76 12.64 39.20 12.68 39.68 12.68C39.84 12.68 39.90 12.64 39.90 12.53C39.90 12.24 39.84 12.18 39.69 12.18L39.05 12.18C38.95 12.18 38.92 12.14 38.89 11.31C38.81 8.99 37.44 8.34 36.53 8.05C36.39 8.01 36.41 8.01 36.53 7.95C37.11 7.69 38.43 6.94 38.43 5.63C38.43 3.63 36.74 3.21 35.34 3.21C35.01 3.21 33.73 3.29 33.31 3.29C32.89 3.29 31.91 3.26 31.68 3.26C31.50 3.26 31.40 3.28 31.40 3.51ZM33.82 7.80L33.82 4.40C33.82 4.05 33.85 3.68 33.89 3.68C34.10 3.65 34.38 3.65 34.61 3.65C35.91 3.65 37.16 4.47 37.16 5.82C37.16 6.99 36.61 7.57 35.95 7.88C35.91 7.90 35.87 7.90 35.80 7.90C35.32 7.88 34.61 7.88 34.01 7.87C33.84 7.87 33.82 7.85 33.82 7.80ZM47.31 8.15C47.31 11.17 49.64 12.80 51.90 12.80C54.68 12.80 56.66 10.89 56.66 8.06C56.66 5.33 54.91 3.11 52.11 3.11C49.50 3.11 47.31 5.10 47.31 8.15ZM48.71 7.77C48.71 5.64 49.99 3.58 51.97 3.58C54.21 3.58 55.29 5.81 55.29 7.94C55.29 10.08 54.18 12.32 51.91 12.32C49.92 12.32 48.71 10.28 48.71 7.77ZM74.30 5.01C74.30 5.17 74.48 5.17 74.61 5.17C74.76 5.17 74.80 5.15 74.82 4.97L74.93 3.89C74.94 3.81 75.49 3.75 76.24 3.75L78.23 3.75C78.29 3.75 78.32 4.35 78.32 4.97C78.32 6.43 78.26 12.18 78.13 12.18L77.27 12.18C77.04 12.18 77 12.19 77 12.39C77 12.63 77.01 12.68 77.21 12.68C77.53 12.68 78.51 12.64 78.93 12.64C79.35 12.64 80.29 12.68 80.61 12.68C80.78 12.68 80.81 12.61 80.81 12.40C80.81 12.24 80.78 12.18 80.61 12.18L79.62 12.18C79.59 12.18 79.59 11.76 79.59 11.31C79.59 9.56 79.67 5.96 79.67 5.92C79.69 5.18 79.69 3.75 79.79 3.75L81.40 3.75C82.11 3.75 82.94 3.78 82.94 3.85C82.94 3.99 82.89 4.90 82.89 4.97C82.89 5.12 82.96 5.17 83.15 5.17C83.34 5.17 83.41 5.17 83.41 5.03C83.41 3.93 83.47 3.40 83.47 3.14C83.47 2.94 83.38 2.94 83.19 2.94C83.03 2.94 82.98 2.98 82.96 3.16C82.96 3.23 82.32 3.28 81.48 3.28L76.48 3.28C75.82 3.28 75.01 3.28 75.01 3.21L75.01 3.07C75.01 2.94 74.89 2.94 74.79 2.94C74.56 2.94 74.54 3.00 74.52 3.19C74.47 3.89 74.30 4.97 74.30 5.01ZM90.73 8.15C90.73 11.17 93.07 12.80 95.33 12.80C98.11 12.80 100.09 10.89 100.09 8.06C100.09 5.33 98.34 3.11 95.54 3.11C92.93 3.11 90.73 5.10 90.73 8.15ZM92.13 7.77C92.13 5.64 93.42 3.58 95.40 3.58C97.64 3.58 98.71 5.81 98.71 7.94C98.71 10.08 97.61 12.32 95.34 12.32C93.35 12.32 92.13 10.28 92.13 7.77ZM119.53 12.43C119.53 12.59 119.53 12.67 119.70 12.67C119.97 12.67 120.64 12.64 120.99 12.64C121.34 12.64 122.00 12.67 122.26 12.67C122.44 12.67 122.46 12.56 122.46 12.43C122.46 12.31 122.43 12.21 122.26 12.21L121.70 12.21C121.58 12.21 121.58 12.19 121.58 12.08C121.56 11.70 121.56 11.34 121.56 10.96C121.56 9.86 121.56 8.50 121.60 7.69C121.62 7.57 121.60 7.56 121.66 7.56L122.30 7.56C122.50 7.56 122.50 7.48 122.50 7.34C122.50 7.18 122.50 7.10 122.35 7.10C122.08 7.10 121.39 7.13 121.04 7.13C120.69 7.13 119.99 7.10 119.73 7.10C119.57 7.10 119.57 7.21 119.57 7.34C119.57 7.46 119.59 7.56 119.73 7.56L120.36 7.56C120.47 7.56 120.46 7.56 120.46 7.69C120.48 8.30 120.48 8.96 120.48 9.60L120.48 10.85C120.48 11.27 120.48 11.68 120.47 12.08C120.47 12.19 120.44 12.21 120.37 12.21L119.74 12.21C119.55 12.21 119.53 12.29 119.53 12.43ZM132.24 9.95C132.24 11.44 133.42 12.71 134.90 12.71C136.47 12.71 137.70 11.58 137.70 9.97C137.70 8.50 136.72 7.24 134.99 7.24C133.46 7.24 132.24 8.37 132.24 9.95ZM132.79 9.95C132.79 8.82 133.80 7.88 134.93 7.88C136.07 7.88 137.10 8.67 137.10 9.77C137.10 10.96 136.43 11.96 134.89 11.96C133.74 11.96 132.79 11.17 132.79 9.95ZM146.24 9.95C146.24 11.44 147.42 12.71 148.90 12.71C150.47 12.71 151.70 11.58 151.70 9.97C151.70 8.50 150.72 7.24 148.99 7.24C147.46 7.24 146.24 8.37 146.24 9.95ZM146.79 9.95C146.79 8.82 147.80 7.88 148.93 7.88C150.07 7.88 151.10 8.67 151.10 9.77C151.10 10.96 150.43 11.96 148.89 11.96C147.74 11.96 146.79 11.17 146.79 9.95Z"></path></g></svg>