<?xml version="1.0" encoding="UTF-8" standalone="no"?>
<svg
   data-v-fde0c5aa=""
   viewBox="0 0 300 300"
   class="iconAboveSlogan"
   version="1.1"
   id="svg23"
   sodipodi:docname="default.svg"
   inkscape:version="1.1 (c68e22c387, 2021-05-23)"
   xmlns:inkscape="http://www.inkscape.org/namespaces/inkscape"
   xmlns:sodipodi="http://sodipodi.sourceforge.net/DTD/sodipodi-0.dtd"
   xmlns="http://www.w3.org/2000/svg"
   xmlns:svg="http://www.w3.org/2000/svg">
  <sodipodi:namedview
     id="namedview25"
     pagecolor="#505050"
     bordercolor="#eeeeee"
     borderopacity="1"
     inkscape:pageshadow="0"
     inkscape:pageopacity="0"
     inkscape:pagecheckerboard="0"
     showgrid="false"
     inkscape:zoom="2.51"
     inkscape:cx="150"
     inkscape:cy="150"
     inkscape:window-width="3440"
     inkscape:window-height="1377"
     inkscape:window-x="-8"
     inkscape:window-y="-8"
     inkscape:window-maximized="1"
     inkscape:current-layer="svg23" />
  <!---->
  <defs
     data-v-fde0c5aa=""
     id="defs2">
    <!---->
  </defs>
  <rect
     data-v-fde0c5aa=""
     fill="#0B173D"
     x="0"
     y="0"
     width="300px"
     height="300px"
     class="logo-background-square"
     id="rect4" />
  <defs
     data-v-fde0c5aa=""
     id="defs6">
    <!---->
  </defs>
  <defs
     data-v-fde0c5aa=""
     id="defs11">
    <!---->
  </defs>
  <defs
     data-v-fde0c5aa=""
     id="defs18">
    <!---->
  </defs>
  <g
     data-v-fde0c5aa=""
     id="7da9d844-5182-4eda-98b6-240782b9077e"
     fill="#d1a103"
     transform="matrix(3.9310554,0,0,3.9310554,15.04687,162.64499)">
    <path
       d="M 1.26,17.18 V 8.43 h 1.4 v 7.59 h 3.22 v 1.16 z m 8.64,0.14 v 0 q -1.26,0 -1.9,-0.3 v 0 0 Q 7.36,16.72 7.11,15.95 v 0 0 Q 6.86,15.18 6.86,13.68 v 0 0 q 0,-1.5 0.25,-2.27 v 0 0 Q 7.36,10.64 8,10.34 v 0 0 q 0.64,-0.3 1.9,-0.3 v 0 0 q 1.27,0 1.9,0.3 v 0 0 q 0.63,0.3 0.88,1.06 v 0 0 q 0.26,0.77 0.26,2.28 v 0 0 q 0,1.5 -0.26,2.27 v 0 0 q -0.25,0.77 -0.88,1.07 v 0 0 q -0.64,0.3 -1.9,0.3 z M 8.32,16.17 h 2.49 v 0 q 0.4,0 0.54,-0.07 v 0 0 q 0.13,-0.07 0.13,-0.28 v 0 -4.63 H 8.99 v 0 q -0.41,0 -0.54,0.07 v 0 0 q -0.13,0.07 -0.13,0.28 v 0 z m 9.32,-6.13 v 0 q 0.97,0 1.53,0.19 v 0 0 q 0.56,0.19 0.8,0.61 v 0 0 q 0.25,0.43 0.25,1.16 v 0 5.18 h -0.65 l -0.38,-0.7 v 0 q -0.5,0.43 -1.11,0.64 v 0 0 q -0.61,0.2 -1.39,0.2 v 0 0 q -1.16,0 -1.65,-0.48 v 0 0 q -0.49,-0.49 -0.49,-1.62 v 0 0 q 0,-1.02 0.28,-1.47 v 0 0 q 0.28,-0.45 1.1,-0.6 v 0 0 q 0.81,-0.16 2.68,-0.16 v 0 h 0.21 v -1.69 0 Q 18.3,11.14 17.4,11.14 v 0 0 q -1.12,0 -2.36,0.34 v 0 l -0.19,-1.02 v 0 q 0.52,-0.18 1.29,-0.3 v 0 0 q 0.77,-0.12 1.5,-0.12 z m 0.06,6.2 v 0 q 0.65,0 0.89,-0.17 v 0 0 q 0.23,-0.17 0.23,-0.64 v 0 -1.53 h -1.87 v 0 q -0.65,0 -0.89,0.17 v 0 0 q -0.24,0.17 -0.24,0.64 v 0 1.53 z m 4.97,0.94 v -7 h 0.64 l 0.38,0.7 v 0 q 0.53,-0.44 1.16,-0.64 v 0 0 q 0.63,-0.2 1.44,-0.2 v 0 0 q 0.98,0 1.49,0.3 v 0 0 q 0.5,0.3 0.5,0.89 v 0 5.95 h -1.4 v -5.99 h -1.62 v 0 q -0.69,0 -0.94,0.16 v 0 0 Q 24.07,11.52 24.07,12 v 0 5.18 z M 33.82,15.9 v 0 q 0.56,0.14 1.31,0.24 v 0 0 q 0.75,0.09 1.44,0.09 v 0 0 q 0.71,0 1.58,-0.09 v 0 -2.6 l -1.33,-0.1 v 0 q -1.29,-0.1 -1.93,-0.33 v 0 0 q -0.65,-0.23 -0.91,-0.73 v 0 0 q -0.25,-0.49 -0.25,-1.43 v 0 0 q 0,-1.01 0.25,-1.6 v 0 0 q 0.26,-0.6 0.84,-0.87 v 0 0 q 0.59,-0.26 1.57,-0.26 v 0 0 q 1.41,0 2.82,0.26 v 0 l -0.18,1.11 v 0 Q 37.91,9.38 36.47,9.38 v 0 0 q -0.71,0 -1.22,0.07 v 0 2.63 l 1.56,0.1 v 0 q 1.12,0.07 1.73,0.33 v 0 0 q 0.62,0.26 0.88,0.8 v 0 0 q 0.26,0.54 0.26,1.49 v 0 0 q 0,0.98 -0.31,1.54 v 0 0 q -0.31,0.56 -1.01,0.8 v 0 0 q -0.7,0.25 -1.92,0.25 v 0 0 q -1.48,0 -2.83,-0.34 v 0 z m 7.68,1.28 v -9.2 l 1.37,-0.11 v 2.77 0 q 0.45,-0.31 0.98,-0.45 v 0 0 q 0.54,-0.15 1.27,-0.15 v 0 0 q 0.98,0 1.49,0.3 v 0 0 q 0.5,0.3 0.5,0.89 v 0 5.95 h -1.4 v -5.99 h -1.62 v 0 q -0.69,0 -0.94,0.16 v 0 0 Q 42.9,11.52 42.9,12 v 0 5.18 z m 10.66,-7.14 v 0 q 0.97,0 1.53,0.19 v 0 0 q 0.56,0.19 0.8,0.61 v 0 0 q 0.25,0.43 0.25,1.16 v 0 5.18 H 54.1 l -0.38,-0.7 v 0 q -0.51,0.43 -1.12,0.64 v 0 0 q -0.6,0.2 -1.39,0.2 v 0 0 q -1.16,0 -1.65,-0.48 v 0 0 q -0.49,-0.49 -0.49,-1.62 v 0 0 q 0,-1.02 0.28,-1.47 v 0 0 q 0.28,-0.45 1.1,-0.6 v 0 0 q 0.82,-0.16 2.68,-0.16 v 0 h 0.21 v -1.69 0 q -0.52,-0.16 -1.41,-0.16 v 0 0 q -1.12,0 -2.37,0.34 v 0 l -0.18,-1.02 v 0 q 0.52,-0.18 1.29,-0.3 v 0 0 q 0.77,-0.12 1.49,-0.12 z m 0.06,6.2 v 0 q 0.66,0 0.89,-0.17 v 0 0 q 0.23,-0.17 0.23,-0.64 v 0 -1.53 h -1.86 v 0 q -0.66,0 -0.9,0.17 v 0 0 q -0.24,0.17 -0.24,0.64 v 0 1.53 z m 5.63,-6.06 0.49,1.1 v 0 q 0.63,-0.56 1.08,-0.86 v 0 0 q 0.44,-0.31 0.84,-0.45 v 0 l 0.14,1.37 v 0 q -0.47,0.14 -0.96,0.39 v 0 0 q -0.5,0.24 -0.85,0.51 v 0 4.94 h -1.4 v -7 z m 6.52,3.75 h -1.1 v 3.25 h -1.4 v -9.1 l 1.4,-0.21 v 5.08 h 1.1 l 1.49,-2.77 h 1.47 l -1.8,3.26 1.87,3.74 h -1.45 z"
       id="path8" />
  </g>
  <g
     data-v-fde0c5aa=""
     id="c3122858-cf7c-4037-adb4-14004955eb13"
     stroke="none"
     fill="#d1a103"
     transform="matrix(1.3306176,0,0,1.3306176,83.308341,44.137384)">
    <path
       clip-rule="evenodd"
       d="m 42.907,29.392 c 0.293,0.537 -0.19,0.955 0.121,1.494 1.173,-2.141 1.445,-4.529 2.424,-6.698 0.137,1.184 -0.03,2.398 0.385,3.659 2.606,-1.977 5.463,-3.48 8.146,-5.257 1.09,-0.721 1.699,-1.899 2.287,-3.038 2.071,-4.013 3.613,-8.264 5.537,-12.344 1.039,-2.204 2.15,-4.36 3.839,-6.208 -0.663,1.919 -1.345,3.832 -1.985,5.758 -1.185,3.559 -2.266,7.143 -2.862,10.861 -0.407,2.539 -0.13,5.014 0.46,7.479 0.069,0.29 0.16,0.574 0.283,1.005 -1.623,-0.346 -3.122,-0.575 -4.561,-1.007 -0.781,-0.234 -1.375,-0.079 -2.01,0.268 -5.092,2.78 -8.634,7.001 -11.282,12.075 -2.765,5.298 -3.261,10.772 -1.427,16.46 0.252,0.781 0.232,1.591 0.096,2.374 -0.211,1.214 -0.67,1.402 -2.723,1.266 -0.06,0.458 0.295,0.697 0.537,0.971 0.584,0.658 1.195,1.417 2.188,1.209 0.985,-0.206 1.115,-1.183 1.325,-1.972 0.794,-2.992 0.901,-6.061 0.914,-9.134 0.005,-1.267 0.001,-2.534 0.143,-3.855 1.241,1.159 2.015,2.6 2.687,4.094 2.082,4.635 3.375,9.53 4.555,14.445 0.571,2.381 2.051,3.992 3.743,5.604 0.146,-0.468 -0.266,-0.613 -0.401,-0.885 -0.159,-0.319 -0.414,-0.592 -0.569,-0.914 -0.295,-0.612 -0.672,-1.319 -0.164,-1.908 0.545,-0.631 1.289,-0.247 1.878,0.049 2.398,1.204 4.603,2.731 6.756,4.318 8.988,6.625 16.445,14.674 22.259,24.212 1.508,2.474 1.314,1.845 -0.828,3.065 -3.646,2.079 -7.603,2.238 -11.639,1.651 -3.001,-0.437 -5.977,-1.007 -8.901,-1.833 -1.052,-0.297 -2.019,-0.644 -2.833,-1.432 -0.56,-0.543 -1.286,-0.91 -2.369,-1.037 0.905,0.656 1.86,0.794 2.43,1.558 -5.948,1.112 -21.983,-6.289 -25.493,-11.786 0.987,-0.043 1.911,-0.216 2.824,-0.449 0.915,-0.233 1.818,-0.051 2.749,0.048 -1.025,-0.895 -2.224,-1.368 -3.584,-1.268 -6.025,0.445 -12.051,0.735 -18.068,-0.072 -1.999,-0.269 -3.945,-0.768 -6,-1.74 4.426,-1.377 8.53,-2.882 12.477,-4.79 1.853,-0.896 3.626,-1.886 4.698,-3.742 0.919,0.466 1.449,1.305 2.298,1.784 -1.18,-1.856 -2.99,-3.247 -3.931,-5.318 -0.24,1.279 0.229,2.601 -0.353,3.844 -2.013,-2.18 -2.73,-11.485 -1.188,-19.293 1.931,-9.786 6.815,-17.777 15.132,-23.571 z m -4.114,26.77 c -3.339,-6.651 -2.363,-13.1 0.732,-19.481 -0.188,0.06 -0.287,0.121 -0.34,0.209 -2.416,4.049 -3.813,8.397 -3.214,13.132 0.285,2.243 0.705,4.602 2.822,6.14 z m 29.901,37.493 c 4.174,3.498 13.055,4.806 16.021,2.334 -5.585,0.734 -10.751,-0.212 -16.021,-2.334 z m -4.02,-2.352 c -2.171,-1.574 -3.744,-4.299 -6.952,-3.583 0.251,0.524 1.171,0.2 1.399,0.819 1.001,2.707 3.348,2.601 5.553,2.764 z M 47.176,85.149 c -0.761,-1.949 -0.269,-3.726 0.887,-5.644 -1.767,1.492 -2.085,3.82 -0.887,5.644 z M 42.357,76.79 c -1.391,1.327 -1.669,3.243 -0.699,4.805 -0.486,-1.703 -0.052,-3.258 0.699,-4.805 z m 1.738,6.479 c -0.706,-1.756 0.111,-3.261 0.808,-4.985 -1.5,1.482 -1.802,3.426 -0.808,4.985 z"
       id="path13" />
    <path
       clip-rule="evenodd"
       d="m 66.761,61.803 c 0.724,1.915 0.603,6.253 -0.262,9.434 l -6.271,-4.439 c 3.004,-0.681 5.112,-2.274 6.533,-4.995 z"
       id="path15" />
  </g>
  <g
     data-v-fde0c5aa=""
     id="1277791f-596a-476f-8871-e200d93dfbfd"
     fill="#d1a103"
     transform="matrix(0.80752031,0,0,0.80752031,51.967037,238.13127)">
    <path
       d="m 7.2,16.21 v 0 0 q -0.03,0.02 -0.06,0.02 v 0 0 q -0.03,0 -0.11,0 v 0 0 q -0.2,0 -0.46,-0.07 v 0 0 Q 6.31,16.1 6.07,16.01 v 0 0 Q 5.82,15.92 5.65,15.81 v 0 0 Q 5.47,15.69 5.43,15.61 v 0 0 Q 5.42,15.41 5.42,15.2 v 0 0 q 0,-0.21 0,-0.4 v 0 0 q 0,-1.57 0.23,-3.28 v 0 0 Q 5.88,9.81 6.41,7.83 v 0 0 q 0.06,-0.2 0.12,-0.5 v 0 0 Q 6.59,7.03 6.66,6.68 v 0 0 Q 6.33,6.94 5.87,7.53 v 0 0 Q 5.4,8.11 4.89,8.9 v 0 0 Q 4.38,9.69 3.87,10.63 v 0 0 q -0.51,0.95 -0.93,1.92 v 0 0 q -0.42,0.97 -0.72,1.93 v 0 0 q -0.3,0.95 -0.37,1.76 v 0 0 Q 1.18,16.04 0.92,15.85 v 0 0 Q 0.66,15.65 0.66,15.37 v 0 0 q 0,-0.25 0.15,-0.71 v 0 0 Q 0.97,14.2 1.25,13.57 v 0 0 q 0.28,-0.63 0.68,-1.41 v 0 0 q 0.41,-0.78 0.9,-1.67 v 0 0 Q 3.39,9.46 3.93,8.57 v 0 0 Q 4.47,7.67 4.98,6.94 v 0 0 Q 5.5,6.22 6,5.68 v 0 0 Q 6.5,5.15 6.99,4.87 v 0 0 q 0.19,0 0.52,0.1 v 0 0 q 0.33,0.1 0.64,0.24 v 0 0 q 0.32,0.14 0.56,0.28 v 0 0 q 0.25,0.15 0.28,0.25 v 0 0 Q 8.79,6.13 8.53,6.92 v 0 0 Q 8.26,7.7 7.99,8.69 v 0 0 q -0.28,1 -0.52,2.11 v 0 0 q -0.25,1.11 -0.39,2.14 v 0 0 q 0.33,-0.77 0.75,-1.61 v 0 0 Q 8.26,10.5 8.74,9.68 v 0 0 Q 9.21,8.86 9.71,8.09 v 0 0 q 0.5,-0.77 0.97,-1.4 v 0 0 q 0.48,-0.64 0.89,-1.12 v 0 0 q 0.41,-0.47 0.74,-0.7 v 0 0 q 0.19,0 0.52,0.1 v 0 0 q 0.33,0.1 0.64,0.24 v 0 0 q 0.32,0.14 0.57,0.28 v 0 0 q 0.24,0.15 0.27,0.25 v 0 0 q -0.45,0.8 -0.79,1.95 v 0 0 q -0.33,1.14 -0.56,2.4 v 0 0 q -0.23,1.26 -0.35,2.5 v 0 0 q -0.12,1.24 -0.12,2.22 v 0 0 q 0,0.32 0,0.67 v 0 0 q 0,0.35 0.03,0.73 v 0 0 q -0.2,0 -0.47,-0.05 v 0 0 q -0.28,-0.05 -0.53,-0.13 v 0 0 q -0.26,-0.08 -0.47,-0.19 v 0 0 q -0.21,-0.1 -0.3,-0.23 v 0 0 q -0.01,-0.2 -0.01,-0.41 v 0 0 q 0,-0.21 0,-0.4 v 0 0 q 0,-1.57 0.23,-3.28 v 0 0 Q 11.2,9.81 11.73,7.83 v 0 0 q 0.06,-0.2 0.13,-0.54 v 0 0 Q 11.93,6.96 12,6.59 v 0 0 q -0.39,0.2 -0.89,0.75 v 0 0 Q 10.61,7.9 10.1,8.69 v 0 0 Q 9.59,9.48 9.09,10.44 v 0 0 Q 8.6,11.41 8.2,12.41 v 0 0 q -0.4,1 -0.67,1.99 v 0 0 Q 7.25,15.39 7.2,16.21 Z m 15.62,-0.54 v 0 0 q -0.8,-0.09 -1.27,-0.7 v 0 0 Q 21.07,14.35 21.07,13.4 v 0 0 q 0,-0.56 0.17,-1.16 v 0 0 q 0.17,-0.61 0.47,-1.17 v 0 0 Q 22.02,10.5 22.44,10 v 0 0 q 0.42,-0.51 0.91,-0.87 v 0 0 q 0.77,-0.58 1.44,-0.58 v 0 0 q 0.45,0.24 0.89,1 v 0 0 q 0.07,0 0.12,-0.01 v 0 0 q 0.06,-0.01 0.13,-0.01 v 0 0 q 0.74,0 0.74,1.32 v 0 0 q 0,0.88 -0.29,1.67 v 0 0 q -0.28,0.79 -0.79,1.44 v 0 0 q -0.52,0.64 -1.22,1.08 v 0 0 q -0.71,0.44 -1.55,0.63 z m 0.71,-4.41 v 0 0 q -0.23,0.32 -0.44,0.7 v 0 0 q -0.21,0.37 -0.37,0.76 v 0 0 q -0.15,0.38 -0.24,0.74 v 0 0 Q 22.4,13.82 22.4,14.1 v 0 0 q 0,0.33 0.11,0.64 v 0 0 q 0.11,0.31 0.25,0.35 v 0 0 q 0.63,-0.14 1.16,-0.52 v 0 0 q 0.52,-0.39 0.91,-0.96 v 0 0 q 0.38,-0.58 0.6,-1.3 v 0 0 q 0.22,-0.73 0.22,-1.56 v 0 0 q 0,-0.36 -0.04,-0.57 v 0 0 Q 25.56,9.97 25.47,9.81 v 0 0 Q 24.85,10 24.37,10.4 v 0 0 q -0.49,0.41 -0.84,0.86 z m 10.48,3.64 v 0 0 q 0.07,-0.41 0.24,-1.08 v 0 0 q 0.18,-0.66 0.41,-1.41 v 0 0 q 0.24,-0.75 0.51,-1.5 v 0 0 q 0.26,-0.76 0.52,-1.36 v 0 0 q 0.18,-0.44 0.32,-0.68 v 0 0 q 0.14,-0.25 0.31,-0.41 v 0 0 q 0.19,0.02 0.4,0.09 v 0 0 q 0.21,0.07 0.41,0.17 v 0 0 q 0.19,0.1 0.35,0.21 v 0 0 q 0.15,0.1 0.24,0.2 v 0 0 q -0.38,0.45 -0.67,1.02 v 0 0 q -0.29,0.57 -0.58,1.47 v 0 0 q 0.76,-0.67 1.34,-1.29 v 0 0 q 0.58,-0.61 1.08,-1.37 v 0 0 q 0.09,-0.07 0.3,-0.07 v 0 0 q 0.19,0 0.37,0.06 v 0 0 q 0.19,0.07 0.26,0.18 v 0 0 q -0.26,0.67 -0.26,1.33 v 0 0 q 0,0.61 0.19,0.92 v 0 0 q -0.02,0.09 -0.19,0.32 v 0 0 q -0.18,0.24 -0.39,0.45 v 0 0 Q 38.79,11.96 38.5,11.61 v 0 0 q -0.29,-0.34 -0.43,-0.75 v 0 0 q -0.66,0.47 -1.12,0.91 v 0 0 q -0.47,0.44 -0.79,0.98 v 0 0 q -0.33,0.54 -0.57,1.24 v 0 0 q -0.23,0.7 -0.44,1.66 v 0 0 q -0.12,-0.01 -0.3,-0.09 v 0 0 Q 34.68,15.48 34.5,15.37 v 0 0 q -0.17,-0.11 -0.31,-0.24 v 0 0 Q 34.05,15.01 34.01,14.9 Z m 14.6,-5.09 h -0.8 v 0 Q 47.74,9.73 47.68,9.46 v 0 0 Q 47.63,9.18 47.63,8.99 v 0 0 q 0.36,0.03 0.7,0.05 v 0 0 q 0.33,0.02 0.61,0.03 v 0 0 Q 49.15,8.65 49.4,8.24 v 0 0 q 0.24,-0.41 0.48,-0.76 v 0 0 Q 50.11,7.14 50.31,6.9 v 0 0 q 0.2,-0.24 0.31,-0.31 v 0 0 q 0.14,0 0.36,0.05 v 0 0 q 0.22,0.05 0.44,0.13 v 0 0 q 0.23,0.08 0.41,0.16 v 0 0 q 0.18,0.08 0.25,0.17 v 0 0 q -0.42,0.53 -0.72,0.99 v 0 0 q -0.3,0.45 -0.65,1.04 v 0 0 q 0.28,0 0.57,-0.02 v 0 0 Q 51.56,9.1 51.86,9.07 v 0 0 q 0.07,0.07 0.11,0.18 v 0 0 q 0.04,0.1 0.04,0.21 v 0 0 q -0.69,0.26 -1.67,0.28 v 0 0 q -0.35,0.68 -0.62,1.34 v 0 0 q -0.27,0.67 -0.46,1.28 v 0 0 q -0.19,0.62 -0.29,1.16 v 0 0 q -0.11,0.55 -0.11,0.98 v 0 0 q 0,0.62 0.46,0.69 v 0 0 q 0.42,-0.06 0.8,-0.21 v 0 0 q 0.38,-0.15 0.67,-0.39 v 0 0 q 0.09,0.12 0.1,0.21 v 0 0 q -0.08,0.12 -0.29,0.29 v 0 0 q -0.2,0.17 -0.44,0.33 v 0 0 q -0.24,0.16 -0.46,0.27 v 0 0 q -0.22,0.12 -0.34,0.13 v 0 0 q -0.35,-0.01 -0.7,-0.15 v 0 0 q -0.35,-0.14 -0.63,-0.35 v 0 0 q -0.29,-0.21 -0.47,-0.47 v 0 0 q -0.18,-0.26 -0.18,-0.51 v 0 0 q 0,-0.34 0.09,-0.85 v 0 0 q 0.09,-0.51 0.26,-1.11 v 0 0 q 0.16,-0.61 0.39,-1.26 v 0 0 q 0.22,-0.66 0.49,-1.31 z m 7.4,9.54 v 0 0 q 0,-0.09 0.06,-0.16 v 0 0 q 0.06,-0.07 0.13,-0.14 v 0 0 q 0.16,0.16 0.28,0.24 v 0 0 q 0.12,0.09 0.23,0.14 v 0 0 q 0.1,0.06 0.21,0.07 v 0 0 q 0.12,0.02 0.27,0.02 v 0 0 q 0.73,0 1.39,-0.39 v 0 0 q 0.65,-0.38 1.24,-1.11 v 0 0 q 0.58,-0.73 1.05,-1.78 v 0 0 q 0.48,-1.05 0.84,-2.38 v 0 0 q -0.17,0.17 -0.41,0.37 v 0 0 q -0.25,0.2 -0.51,0.39 v 0 0 q -0.27,0.18 -0.53,0.33 v 0 0 Q 60,15.11 59.82,15.18 v 0 0 q -0.24,-0.05 -0.44,-0.21 v 0 0 q -0.2,-0.16 -0.36,-0.4 v 0 0 q -0.15,-0.23 -0.23,-0.53 v 0 0 Q 58.7,13.73 58.7,13.4 v 0 0 q 0,-0.55 0.21,-1.12 v 0 0 q 0.2,-0.58 0.53,-1.13 v 0 0 q 0.34,-0.55 0.79,-1.04 v 0 0 Q 60.69,9.62 61.2,9.25 v 0 0 q 0.51,-0.36 1.04,-0.58 v 0 0 q 0.52,-0.21 1.03,-0.21 v 0 0 q 0.49,0 0.73,0.2 v 0 0 q 0.25,0.2 0.36,0.69 v 0 0 Q 64.2,9.27 63.97,9.27 v 0 0 q -0.34,0 -0.78,0.26 v 0 0 q -0.44,0.27 -0.9,0.7 v 0 0 q -0.45,0.42 -0.9,0.98 v 0 0 q -0.45,0.55 -0.79,1.12 v 0 0 q -0.34,0.58 -0.56,1.12 v 0 0 Q 59.82,14 59.82,14.43 v 0 0 q 0,0.1 0.02,0.12 v 0 0 q 0.01,0.02 0.04,0.02 v 0 0 q 0.12,0 0.34,-0.14 v 0 0 q 0.22,-0.14 0.49,-0.35 v 0 0 q 0.27,-0.22 0.57,-0.51 v 0 0 q 0.29,-0.28 0.56,-0.58 v 0 0 q 0.6,-0.67 1.1,-1.5 v 0 0 q 0.49,-0.84 0.79,-1.62 v 0 0 Q 64.11,9.9 64.4,10 v 0 0 q 0.29,0.09 0.41,0.21 v 0 0 q -0.48,1.09 -0.77,1.83 v 0 0 q -0.28,0.74 -0.49,1.32 v 0 0 q -0.38,1 -0.71,1.84 v 0 0 q -0.33,0.83 -0.67,1.54 v 0 0 q -0.35,0.7 -0.74,1.31 v 0 0 q -0.4,0.61 -0.91,1.17 v 0 0 q -0.24,0.27 -0.54,0.47 v 0 0 q -0.3,0.2 -0.61,0.34 v 0 0 q -0.32,0.14 -0.62,0.21 v 0 0 q -0.3,0.07 -0.55,0.07 v 0 0 q -0.34,0 -0.69,-0.07 v 0 0 q -0.35,-0.08 -0.65,-0.21 v 0 0 q -0.3,-0.14 -0.52,-0.31 v 0 0 Q 56.11,19.54 56.01,19.35 Z M 76.97,9.52 v 0 0 q 0.14,0 0.33,0.05 v 0 0 q 0.19,0.05 0.34,0.13 v 0 0 q 0.16,0.07 0.26,0.16 v 0 0 q 0.11,0.08 0.11,0.15 v 0 0 q -0.28,0.59 -0.52,1.18 v 0 0 q -0.24,0.6 -0.41,1.14 v 0 0 q -0.16,0.55 -0.26,1.03 v 0 0 q -0.09,0.47 -0.09,0.82 v 0 0 q 0,0.39 0.09,0.65 v 0 0 q 0.08,0.26 0.28,0.37 v 0 0 q -0.17,0.12 -0.44,0.19 v 0 0 q -0.26,0.07 -0.47,0.07 v 0 0 q -0.76,0 -0.76,-1.04 v 0 0 q 0,-0.8 0.53,-2.18 v 0 0 q -0.28,0.64 -0.64,1.21 v 0 0 q -0.36,0.56 -0.74,1 v 0 0 q -0.38,0.43 -0.77,0.7 v 0 0 q -0.38,0.28 -0.7,0.33 v 0 0 q -0.52,-0.02 -0.84,-0.49 v 0 0 q -0.32,-0.47 -0.32,-1.2 v 0 0 q 0,-0.78 0.33,-1.65 v 0 0 q 0.34,-0.87 0.86,-1.61 v 0 0 q 0.53,-0.74 1.14,-1.24 v 0 0 q 0.62,-0.5 1.19,-0.53 v 0 0 q 0.14,0.05 0.32,0.17 v 0 0 q 0.17,0.13 0.33,0.3 v 0 0 q 0.17,0.16 0.28,0.34 v 0 0 q 0.11,0.17 0.12,0.3 v 0 0 q -0.56,0.08 -1.15,0.55 v 0 0 q -0.6,0.46 -1.08,1.11 v 0 0 q -0.48,0.65 -0.79,1.39 v 0 0 q -0.31,0.74 -0.31,1.39 v 0 0 q 0,0.26 0.2,0.33 v 0 0 q 0.4,-0.08 0.94,-0.69 v 0 0 q 0.53,-0.61 1.28,-1.88 v 0 0 q 0.14,-0.25 0.32,-0.56 v 0 0 q 0.17,-0.31 0.36,-0.65 v 0 0 q 0.18,-0.33 0.35,-0.68 v 0 0 q 0.18,-0.34 0.33,-0.66 z m 5.84,9.83 v 0 0 q 0,-0.09 0.06,-0.16 v 0 0 q 0.05,-0.07 0.12,-0.14 v 0 0 q 0.17,0.16 0.29,0.24 v 0 0 q 0.12,0.09 0.22,0.14 v 0 0 q 0.11,0.06 0.22,0.07 v 0 0 q 0.11,0.02 0.27,0.02 v 0 0 q 0.72,0 1.38,-0.39 v 0 0 q 0.66,-0.38 1.24,-1.11 v 0 0 q 0.58,-0.73 1.06,-1.78 v 0 0 q 0.47,-1.05 0.84,-2.38 v 0 0 q -0.17,0.17 -0.42,0.37 v 0 0 q -0.24,0.2 -0.51,0.39 v 0 0 q -0.26,0.18 -0.52,0.33 v 0 0 q -0.26,0.16 -0.44,0.23 v 0 0 q -0.24,-0.05 -0.44,-0.21 v 0 0 q -0.21,-0.16 -0.36,-0.4 v 0 0 q -0.15,-0.23 -0.24,-0.53 v 0 0 Q 85.5,13.73 85.5,13.4 v 0 0 q 0,-0.55 0.2,-1.12 v 0 0 q 0.2,-0.58 0.54,-1.13 v 0 0 q 0.34,-0.55 0.79,-1.04 v 0 0 Q 87.49,9.62 88,9.25 v 0 0 q 0.51,-0.36 1.03,-0.58 v 0 0 q 0.53,-0.21 1.03,-0.21 v 0 0 q 0.49,0 0.74,0.2 v 0 0 q 0.24,0.2 0.35,0.69 v 0 0 Q 91,9.27 90.76,9.27 v 0 0 q -0.33,0 -0.78,0.26 v 0 0 q -0.44,0.27 -0.89,0.7 v 0 0 q -0.46,0.42 -0.9,0.98 v 0 0 q -0.45,0.55 -0.8,1.12 v 0 0 q -0.34,0.58 -0.56,1.12 v 0 0 Q 86.62,14 86.62,14.43 v 0 0 q 0,0.1 0.01,0.12 v 0 0 q 0.02,0.02 0.04,0.02 v 0 0 q 0.13,0 0.35,-0.14 v 0 0 q 0.21,-0.14 0.49,-0.35 v 0 0 q 0.27,-0.22 0.56,-0.51 v 0 0 q 0.3,-0.28 0.56,-0.58 v 0 0 q 0.61,-0.67 1.1,-1.5 v 0 0 q 0.5,-0.84 0.79,-1.62 v 0 0 Q 90.9,9.9 91.2,10 v 0 0 q 0.29,0.09 0.4,0.21 v 0 0 q -0.47,1.09 -0.76,1.83 v 0 0 q -0.29,0.74 -0.5,1.32 v 0 0 q -0.38,1 -0.71,1.84 v 0 0 q -0.32,0.83 -0.67,1.54 v 0 0 q -0.34,0.7 -0.74,1.31 v 0 0 q -0.4,0.61 -0.9,1.17 v 0 0 q -0.24,0.27 -0.54,0.47 v 0 0 q -0.3,0.2 -0.62,0.34 v 0 0 q -0.31,0.14 -0.61,0.21 v 0 0 q -0.3,0.07 -0.56,0.07 v 0 0 q -0.33,0 -0.68,-0.07 v 0 0 q -0.35,-0.08 -0.65,-0.21 v 0 0 q -0.3,-0.14 -0.53,-0.31 v 0 0 q -0.22,-0.18 -0.32,-0.37 z m 21.14,-9.97 v 0 0 q -0.06,0.87 -0.31,1.49 v 0 0 q -0.25,0.62 -0.72,1.09 v 0 0 q -0.47,0.47 -1.14,0.85 v 0 0 q -0.67,0.38 -1.57,0.73 v 0 0 q 0,0.08 -0.01,0.17 v 0 0 q 0,0.09 0,0.19 v 0 0 q 0,0.18 0.03,0.38 v 0 0 q 0.02,0.2 0.09,0.36 v 0 0 q 0.07,0.17 0.2,0.28 v 0 0 q 0.13,0.1 0.32,0.1 v 0 0 q 0.38,0 0.74,-0.17 v 0 0 q 0.37,-0.16 0.7,-0.41 v 0 0 q 0.33,-0.24 0.61,-0.53 v 0 0 q 0.29,-0.29 0.51,-0.53 v 0 0 q 0.14,0.13 0.24,0.24 v 0 0 q -0.63,0.84 -1.38,1.4 v 0 0 q -0.75,0.55 -1.42,0.7 v 0 0 q -0.96,-0.11 -1.5,-0.7 v 0 0 Q 98.8,14.42 98.8,13.58 v 0 0 q 0,-0.57 0.16,-1.17 v 0 0 q 0.16,-0.59 0.45,-1.15 v 0 0 q 0.28,-0.55 0.67,-1.04 v 0 0 q 0.38,-0.49 0.82,-0.85 v 0 0 Q 101.35,9 101.81,8.79 v 0 0 q 0.47,-0.21 0.94,-0.21 v 0 0 q 0.64,0.09 1.2,0.8 z m -0.97,0.46 v 0 0 q -0.37,0.06 -0.78,0.31 v 0 0 q -0.41,0.25 -0.76,0.67 v 0 0 q -0.36,0.42 -0.65,0.98 v 0 0 q -0.3,0.56 -0.47,1.21 v 0 0 q 1.12,-0.56 1.87,-1.38 v 0 0 q 0.74,-0.82 0.79,-1.79 z m 19.58,2.59 v 0 0 q 0,-0.98 0.23,-1.92 v 0 0 q 0.23,-0.95 0.65,-1.8 v 0 0 q 0.42,-0.84 1,-1.55 v 0 0 q 0.58,-0.71 1.27,-1.22 v 0 0 q 0.7,-0.52 1.48,-0.81 v 0 0 q 0.78,-0.29 1.61,-0.29 v 0 0 q 0.97,0 1.5,0.41 v 0 0 q 0.54,0.41 0.54,1.13 v 0 0 q 0,0.28 -0.07,0.58 v 0 0 q -0.08,0.29 -0.23,0.58 v 0 0 q -0.14,0.29 -0.34,0.55 v 0 0 q -0.2,0.27 -0.43,0.46 v 0 0 Q 129.4,8.5 129.14,8.22 v 0 0 Q 128.87,7.95 128.8,7.59 v 0 0 q 0.49,-0.41 0.78,-0.85 v 0 0 q 0.28,-0.44 0.28,-0.8 v 0 0 q 0,-0.62 -0.77,-0.62 v 0 0 q -0.32,0 -0.66,0.13 v 0 0 q -0.34,0.14 -0.69,0.37 v 0 0 q -0.35,0.24 -0.68,0.58 v 0 0 q -0.33,0.33 -0.61,0.74 v 0 0 q -1.95,2.8 -1.95,5.73 v 0 0 q 0,1.03 0.32,1.66 v 0 0 q 0.33,0.63 0.86,0.74 v 0 0 q 0.6,-0.14 1.52,-0.77 v 0 0 q 0.93,-0.63 2.02,-1.63 v 0 0 q 0.14,0.14 0.17,0.29 v 0 0 q -0.41,0.53 -0.84,1.02 v 0 0 q -0.44,0.49 -0.86,0.9 v 0 0 q -0.43,0.4 -0.84,0.71 v 0 0 q -0.42,0.31 -0.77,0.48 v 0 0 q -1.73,-0.03 -2.63,-1 v 0 0 q -0.89,-0.96 -0.89,-2.84 z m 19.65,-2.91 v 0 0 q 0.14,0 0.33,0.05 v 0 0 q 0.19,0.05 0.34,0.13 v 0 0 q 0.16,0.07 0.26,0.16 v 0 0 q 0.11,0.08 0.11,0.15 v 0 0 q -0.28,0.59 -0.52,1.18 v 0 0 q -0.24,0.6 -0.41,1.14 v 0 0 q -0.16,0.55 -0.26,1.03 v 0 0 q -0.09,0.47 -0.09,0.82 v 0 0 q 0,0.39 0.09,0.65 v 0 0 q 0.08,0.26 0.28,0.37 v 0 0 q -0.17,0.12 -0.44,0.19 v 0 0 q -0.26,0.07 -0.47,0.07 v 0 0 q -0.76,0 -0.76,-1.04 v 0 0 q 0,-0.8 0.53,-2.18 v 0 0 q -0.28,0.64 -0.64,1.21 v 0 0 q -0.36,0.56 -0.74,1 v 0 0 q -0.38,0.43 -0.77,0.7 v 0 0 q -0.38,0.28 -0.7,0.33 v 0 0 q -0.52,-0.02 -0.84,-0.49 v 0 0 q -0.32,-0.47 -0.32,-1.2 v 0 0 q 0,-0.78 0.33,-1.65 v 0 0 q 0.34,-0.87 0.86,-1.61 v 0 0 q 0.53,-0.74 1.14,-1.24 v 0 0 q 0.62,-0.5 1.19,-0.53 v 0 0 q 0.14,0.05 0.32,0.17 v 0 0 q 0.17,0.13 0.33,0.3 v 0 0 q 0.17,0.16 0.28,0.34 v 0 0 q 0.11,0.17 0.12,0.3 v 0 0 q -0.56,0.08 -1.15,0.55 v 0 0 q -0.6,0.46 -1.08,1.11 v 0 0 q -0.48,0.65 -0.79,1.39 v 0 0 q -0.31,0.74 -0.31,1.39 v 0 0 q 0,0.26 0.2,0.33 v 0 0 q 0.4,-0.08 0.94,-0.69 v 0 0 q 0.53,-0.61 1.28,-1.88 v 0 0 q 0.14,-0.25 0.32,-0.56 v 0 0 q 0.17,-0.31 0.36,-0.65 v 0 0 q 0.18,-0.33 0.35,-0.68 v 0 0 q 0.18,-0.34 0.33,-0.66 z m 8.74,4.76 v 0 0 q 0,-0.62 0.29,-1.73 v 0 0 q 0.3,-1.11 0.83,-2.6 v 0 0 q 0.87,-2.36 1.63,-3.94 v 0 0 q 0.76,-1.57 1.49,-2.45 v 0 0 q 0.17,0.02 0.41,0.14 v 0 0 q 0.25,0.11 0.49,0.24 v 0 0 q 0.23,0.13 0.42,0.27 v 0 0 q 0.19,0.14 0.25,0.23 v 0 0 q -1.09,1.29 -1.92,2.77 v 0 0 q -0.83,1.48 -1.51,3.4 v 0 0 q -0.59,1.65 -0.9,2.98 v 0 0 q -0.31,1.32 -0.31,2.2 v 0 0 q 0,0.24 0,0.3 v 0 0 q 0,0.05 0.02,0.11 v 0 0 q -0.2,-0.03 -0.34,-0.1 v 0 0 q -0.14,-0.07 -0.18,-0.17 v 0 0 q -0.03,-0.07 -0.15,-0.2 v 0 0 q -0.13,-0.13 -0.23,-0.2 v 0 0 q -0.12,-0.09 -0.21,-0.44 v 0 0 q -0.08,-0.36 -0.08,-0.81 z m 10.32,-1.57 v 0 0 q 0,-0.8 0.32,-1.55 v 0 0 q 0.33,-0.74 0.87,-1.32 v 0 0 Q 163,9.25 163.69,8.9 v 0 0 q 0.7,-0.36 1.44,-0.36 v 0 0 q 0.73,0 1.12,0.36 v 0 0 q 0.39,0.37 0.39,1.04 v 0 0 q 0,0.32 -0.09,0.62 v 0 0 q -0.09,0.3 -0.24,0.54 v 0 0 q -0.14,0.24 -0.34,0.39 v 0 0 q -0.2,0.14 -0.39,0.14 v 0 0 q -0.17,0 -0.35,-0.1 v 0 0 q -0.17,-0.11 -0.28,-0.27 v 0 0 q 0.94,-0.86 0.94,-1.56 v 0 0 q 0,-0.4 -0.33,-0.4 v 0 0 q -0.28,0 -0.7,0.26 v 0 0 q -0.42,0.27 -0.81,0.7 v 0 0 q -0.6,0.67 -0.92,1.49 v 0 0 q -0.31,0.82 -0.31,1.72 v 0 0 q 0,1.13 0.5,1.36 v 0 0 q 0.21,-0.03 0.49,-0.13 v 0 0 q 0.28,-0.1 0.61,-0.26 v 0 0 q 0.32,-0.16 0.66,-0.37 v 0 0 q 0.34,-0.21 0.67,-0.45 v 0 0 q 0.05,0.04 0.09,0.13 v 0 0 q 0.05,0.08 0.05,0.15 v 0 0 q -0.24,0.3 -0.55,0.58 v 0 0 q -0.31,0.28 -0.64,0.51 v 0 0 q -0.34,0.23 -0.66,0.39 v 0 0 q -0.31,0.16 -0.55,0.2 v 0 0 q -0.46,-0.04 -0.87,-0.29 v 0 0 q -0.4,-0.24 -0.7,-0.63 v 0 0 q -0.3,-0.39 -0.48,-0.9 v 0 0 q -0.17,-0.5 -0.17,-1.05 z m 16.6,2.16 v 0 0 q -0.27,-0.23 -0.36,-0.56 v 0 0 q -0.09,-0.34 -0.09,-0.58 v 0 0 q 0,-0.29 0.07,-0.5 v 0 0 q -0.05,0 -0.25,0.22 v 0 0 q -0.2,0.23 -0.43,0.54 v 0 0 q -0.23,0.3 -0.45,0.6 v 0 0 q -0.23,0.29 -0.34,0.43 v 0 0 q -0.18,0.2 -0.34,0.31 v 0 0 q -0.16,0.11 -0.26,0.13 v 0 0 q -0.22,-0.02 -0.47,-0.09 v 0 0 q -0.24,-0.08 -0.46,-0.22 v 0 0 q -0.22,-0.14 -0.38,-0.34 v 0 0 q -0.16,-0.19 -0.22,-0.45 v 0 0 q 0,-0.39 0.02,-0.64 v 0 0 q 0.03,-0.25 0.1,-0.55 v 0 0 q 0.12,-0.53 0.37,-1.2 v 0 0 q 0.24,-0.67 0.56,-1.32 v 0 0 q 0.33,-0.65 0.72,-1.22 v 0 0 q 0.4,-0.57 0.85,-0.89 v 0 0 q 0.13,0 0.3,0.02 v 0 0 q 0.16,0.02 0.34,0.08 v 0 0 q 0.17,0.05 0.33,0.13 v 0 0 q 0.17,0.08 0.28,0.2 v 0 0 q -0.13,0.14 -0.64,0.94 v 0 0 q -0.51,0.8 -1.14,2.3 v 0 0 q -0.07,0.15 -0.17,0.45 v 0 0 q -0.1,0.29 -0.19,0.61 v 0 0 q -0.1,0.32 -0.17,0.63 v 0 0 q -0.06,0.31 -0.06,0.49 v 0 0 q 0,0.11 0.04,0.17 v 0 0 q 0.03,0.06 0.06,0.08 v 0 0 q 0.21,-0.08 0.53,-0.46 v 0 0 q 0.32,-0.38 0.9,-1.16 v 0 0 q 0.14,-0.2 0.33,-0.45 v 0 0 q 0.19,-0.25 0.38,-0.54 v 0 0 q 0.2,-0.28 0.37,-0.59 v 0 0 q 0.18,-0.31 0.29,-0.62 v 0 0 q 0.06,-0.17 0.15,-0.4 v 0 0 q 0.09,-0.23 0.22,-0.48 v 0 0 q 0.13,-0.25 0.31,-0.51 v 0 0 q 0.17,-0.26 0.41,-0.48 v 0 0 q 0.18,0 0.39,0.04 v 0 0 q 0.21,0.04 0.4,0.1 v 0 0 q 0.19,0.07 0.33,0.14 v 0 0 q 0.14,0.08 0.21,0.16 v 0 0 q -0.25,0.62 -0.56,1.22 v 0 0 q -0.31,0.6 -0.57,1.18 v 0 0 q -0.27,0.59 -0.45,1.16 v 0 0 q -0.18,0.57 -0.18,1.12 v 0 0 q 0,0.29 0.05,0.51 v 0 0 q 0.05,0.22 0.1,0.37 v 0 0 q 0.06,0.14 0.11,0.24 v 0 0 q 0.05,0.1 0.05,0.17 v 0 0 q 0,0.01 -0.03,0.04 v 0 0 q -0.02,0.01 -0.03,0.01 v 0 0 q -0.1,0 -0.25,-0.04 v 0 0 q -0.16,-0.04 -0.35,-0.12 v 0 0 q -0.18,-0.07 -0.37,-0.17 v 0 0 q -0.19,-0.1 -0.36,-0.21 z m 10.09,-0.59 v 0 0 q 0,-0.62 0.3,-1.73 v 0 0 q 0.29,-1.11 0.82,-2.6 v 0 0 q 0.87,-2.36 1.63,-3.94 v 0 0 q 0.77,-1.57 1.5,-2.45 v 0 0 q 0.16,0.02 0.41,0.14 v 0 0 q 0.24,0.11 0.48,0.24 v 0 0 q 0.24,0.13 0.43,0.27 v 0 0 q 0.19,0.14 0.24,0.23 v 0 0 q -1.09,1.29 -1.91,2.77 v 0 0 q -0.83,1.48 -1.52,3.4 v 0 0 q -0.58,1.65 -0.89,2.98 v 0 0 q -0.31,1.32 -0.31,2.2 v 0 0 q 0,0.24 0,0.3 v 0 0 q 0,0.05 0.01,0.11 v 0 0 q -0.19,-0.03 -0.33,-0.1 v 0 0 q -0.14,-0.07 -0.18,-0.17 v 0 0 q -0.03,-0.07 -0.16,-0.2 v 0 0 q -0.12,-0.13 -0.22,-0.2 v 0 0 q -0.13,-0.09 -0.21,-0.44 v 0 0 q -0.09,-0.36 -0.09,-0.81 z m 15.1,-4.76 v 0 0 q 0.14,0 0.32,0.05 v 0 0 q 0.19,0.05 0.35,0.13 v 0 0 q 0.15,0.07 0.26,0.16 v 0 0 q 0.1,0.08 0.1,0.15 v 0 0 q -0.28,0.59 -0.52,1.18 v 0 0 q -0.23,0.6 -0.4,1.14 v 0 0 q -0.17,0.55 -0.26,1.03 v 0 0 q -0.09,0.47 -0.09,0.82 v 0 0 q 0,0.39 0.08,0.65 v 0 0 q 0.09,0.26 0.28,0.37 v 0 0 q -0.17,0.12 -0.43,0.19 v 0 0 q -0.27,0.07 -0.48,0.07 v 0 0 q -0.75,0 -0.75,-1.04 v 0 0 q 0,-0.8 0.53,-2.18 v 0 0 q -0.28,0.64 -0.65,1.21 v 0 0 q -0.36,0.56 -0.74,1 v 0 0 q -0.38,0.43 -0.76,0.7 v 0 0 q -0.39,0.28 -0.71,0.33 v 0 0 q -0.52,-0.02 -0.84,-0.49 v 0 0 q -0.32,-0.47 -0.32,-1.2 v 0 0 q 0,-0.78 0.34,-1.65 v 0 0 q 0.33,-0.87 0.86,-1.61 v 0 0 q 0.52,-0.74 1.14,-1.24 v 0 0 q 0.61,-0.5 1.19,-0.53 v 0 0 q 0.14,0.05 0.31,0.17 v 0 0 q 0.18,0.13 0.34,0.3 v 0 0 q 0.16,0.16 0.27,0.34 v 0 0 q 0.11,0.17 0.13,0.3 v 0 0 q -0.56,0.08 -1.16,0.55 v 0 0 q -0.59,0.46 -1.08,1.11 v 0 0 q -0.48,0.65 -0.79,1.39 v 0 0 q -0.3,0.74 -0.3,1.39 v 0 0 q 0,0.26 0.19,0.33 v 0 0 q 0.41,-0.08 0.94,-0.69 v 0 0 q 0.53,-0.61 1.29,-1.88 v 0 0 q 0.14,-0.25 0.31,-0.56 v 0 0 q 0.18,-0.31 0.36,-0.65 v 0 0 q 0.18,-0.33 0.36,-0.68 v 0 0 q 0.17,-0.34 0.33,-0.66 z m 10.13,0.29 h -0.8 v 0 q -0.07,-0.08 -0.12,-0.35 v 0 0 q -0.06,-0.28 -0.06,-0.47 v 0 0 q 0.37,0.03 0.7,0.05 v 0 0 q 0.34,0.02 0.62,0.03 v 0 0 q 0.21,-0.42 0.45,-0.83 v 0 0 q 0.25,-0.41 0.48,-0.76 v 0 0 q 0.23,-0.34 0.43,-0.58 v 0 0 q 0.21,-0.24 0.32,-0.31 v 0 0 q 0.14,0 0.35,0.05 v 0 0 q 0.22,0.05 0.45,0.13 v 0 0 q 0.22,0.08 0.4,0.16 v 0 0 q 0.18,0.08 0.25,0.17 v 0 0 q -0.42,0.53 -0.72,0.99 v 0 0 q -0.3,0.45 -0.65,1.04 v 0 0 q 0.28,0 0.57,-0.02 v 0 0 q 0.29,-0.01 0.58,-0.04 v 0 0 q 0.07,0.07 0.11,0.18 v 0 0 q 0.04,0.1 0.04,0.21 v 0 0 q -0.68,0.26 -1.66,0.28 v 0 0 q -0.35,0.68 -0.63,1.34 v 0 0 q -0.27,0.67 -0.46,1.28 v 0 0 q -0.19,0.62 -0.29,1.16 v 0 0 q -0.11,0.55 -0.11,0.98 v 0 0 q 0,0.62 0.47,0.69 v 0 0 q 0.42,-0.06 0.79,-0.21 v 0 0 q 0.38,-0.15 0.68,-0.39 v 0 0 q 0.08,0.12 0.09,0.21 v 0 0 q -0.08,0.12 -0.28,0.29 v 0 0 q -0.21,0.17 -0.44,0.33 v 0 0 q -0.24,0.16 -0.47,0.27 v 0 0 q -0.22,0.12 -0.33,0.13 v 0 0 q -0.35,-0.01 -0.7,-0.15 v 0 0 q -0.35,-0.14 -0.64,-0.35 v 0 0 q -0.29,-0.21 -0.47,-0.47 v 0 0 q -0.18,-0.26 -0.18,-0.51 v 0 0 q 0,-0.34 0.09,-0.85 v 0 0 q 0.09,-0.51 0.26,-1.11 v 0 0 q 0.17,-0.61 0.39,-1.26 v 0 0 q 0.23,-0.66 0.49,-1.31 z m 11.96,5.86 v 0 0 q -0.8,-0.09 -1.28,-0.7 v 0 0 Q 223.4,14.35 223.4,13.4 v 0 0 q 0,-0.56 0.17,-1.16 v 0 0 q 0.16,-0.61 0.47,-1.17 v 0 0 q 0.31,-0.57 0.73,-1.07 v 0 0 q 0.42,-0.51 0.91,-0.87 v 0 0 q 0.77,-0.58 1.44,-0.58 v 0 0 q 0.45,0.24 0.88,1 v 0 0 q 0.07,0 0.13,-0.01 v 0 0 q 0.06,-0.01 0.13,-0.01 v 0 0 q 0.74,0 0.74,1.32 v 0 0 q 0,0.88 -0.29,1.67 v 0 0 q -0.29,0.79 -0.8,1.44 v 0 0 q -0.51,0.64 -1.22,1.08 v 0 0 q -0.7,0.44 -1.54,0.63 z m 0.71,-4.41 v 0 0 q -0.24,0.32 -0.45,0.7 v 0 0 q -0.21,0.37 -0.36,0.76 v 0 0 q -0.15,0.38 -0.24,0.74 v 0 0 q -0.08,0.36 -0.08,0.64 v 0 0 q 0,0.33 0.11,0.64 v 0 0 q 0.11,0.31 0.25,0.35 v 0 0 q 0.63,-0.14 1.16,-0.52 v 0 0 q 0.52,-0.39 0.91,-0.96 v 0 0 q 0.38,-0.58 0.6,-1.3 v 0 0 q 0.22,-0.73 0.22,-1.56 v 0 0 q 0,-0.36 -0.05,-0.57 v 0 0 q -0.04,-0.21 -0.14,-0.37 v 0 0 q -0.61,0.19 -1.1,0.59 v 0 0 q -0.48,0.41 -0.83,0.86 z m 10.47,3.64 v 0 0 q 0.07,-0.41 0.25,-1.08 v 0 0 q 0.17,-0.66 0.41,-1.41 v 0 0 q 0.24,-0.75 0.51,-1.5 v 0 0 q 0.26,-0.76 0.51,-1.36 v 0 0 q 0.19,-0.44 0.33,-0.68 v 0 0 q 0.14,-0.25 0.3,-0.41 v 0 0 q 0.2,0.02 0.41,0.09 v 0 0 q 0.21,0.07 0.41,0.17 v 0 0 q 0.19,0.1 0.35,0.21 v 0 0 q 0.15,0.1 0.23,0.2 v 0 0 q -0.37,0.45 -0.66,1.02 v 0 0 q -0.29,0.57 -0.58,1.47 v 0 0 q 0.75,-0.67 1.33,-1.29 v 0 0 q 0.59,-0.61 1.09,-1.37 v 0 0 q 0.08,-0.07 0.29,-0.07 v 0 0 q 0.2,0 0.38,0.06 v 0 0 q 0.18,0.07 0.25,0.18 v 0 0 q -0.25,0.67 -0.25,1.33 v 0 0 q 0,0.61 0.18,0.92 v 0 0 q -0.01,0.09 -0.19,0.32 v 0 0 q -0.17,0.24 -0.38,0.45 v 0 0 q -0.38,-0.19 -0.67,-0.54 v 0 0 q -0.3,-0.34 -0.44,-0.75 v 0 0 q -0.65,0.47 -1.12,0.91 v 0 0 q -0.46,0.44 -0.79,0.98 v 0 0 q -0.33,0.54 -0.56,1.24 v 0 0 q -0.23,0.7 -0.44,1.66 v 0 0 q -0.12,-0.01 -0.3,-0.09 v 0 0 q -0.17,-0.08 -0.35,-0.19 v 0 0 q -0.17,-0.11 -0.31,-0.24 v 0 0 q -0.14,-0.12 -0.19,-0.23 z"
       id="path20" />
  </g>
</svg>
