<svg data-v-fde0c5aa="" xmlns="http://www.w3.org/2000/svg" viewBox="0 0 300 300" class="iconAbove"><!----><defs data-v-fde0c5aa=""><!----></defs><rect data-v-fde0c5aa="" fill="#FEF2E5" x="0" y="0" width="300px" height="300px" class="logo-background-square"></rect><defs data-v-fde0c5aa=""><!----></defs><g data-v-fde0c5aa="" id="d1865283-ee3c-462a-abde-d9e0f9bb1f66" fill="#361C00" transform="matrix(5.178251045356908,0,0,5.178251045356908,17.25552709411179,163.6086439735878)"><path d="M2.79 4.47L2.79 4.47Q1.92 4.47 1.43 4.95L1.43 4.95L1.43 4.95Q0.94 5.43 0.70 6.50L0.70 6.50L0.70 6.50Q0.69 6.52 0.61 6.52L0.61 6.52L0.61 6.52Q0.53 6.52 0.53 6.50L0.53 6.50L0.53 6.50Q0.59 6.09 0.66 5.21L0.66 5.21L0.66 5.21Q0.73 4.33 0.73 3.88L0.73 3.88L0.73 3.88Q0.73 3.81 0.81 3.81L0.81 3.81L0.81 3.81Q0.90 3.81 0.90 3.88L0.90 3.88L0.90 3.88Q0.90 4.19 1.67 4.19L1.67 4.19L1.67 4.19Q2.86 4.23 4.48 4.23L4.48 4.23L4.48 4.23Q5.31 4.23 6.23 4.20L6.23 4.20L7.18 4.19L7.18 4.19Q7.70 4.19 7.94 4.12L7.94 4.12L7.94 4.12Q8.18 4.05 8.25 3.84L8.25 3.84L8.25 3.84Q8.26 3.78 8.34 3.78L8.34 3.78L8.34 3.78Q8.41 3.78 8.41 3.84L8.41 3.84L8.41 3.84Q8.37 4.23 8.32 5.10L8.32 5.10L8.32 5.10Q8.27 5.96 8.27 6.50L8.27 6.50L8.27 6.50Q8.27 6.52 8.20 6.52L8.20 6.52L8.20 6.52Q8.12 6.52 8.12 6.50L8.12 6.50L8.12 6.50Q8.02 5.42 7.56 4.94L7.56 4.94L7.56 4.94Q7.10 4.47 6.19 4.47L6.19 4.47L6.19 4.47Q5.67 4.47 5.45 4.53L5.45 4.53L5.45 4.53Q5.22 4.59 5.14 4.77L5.14 4.77L5.14 4.77Q5.05 4.94 5.05 5.35L5.05 5.35L5.05 11.80L5.05 11.80Q5.05 12.24 5.15 12.43L5.15 12.43L5.15 12.43Q5.24 12.63 5.50 12.70L5.50 12.70L5.50 12.70Q5.77 12.77 6.36 12.77L6.36 12.77L6.36 12.77Q6.38 12.77 6.38 12.85L6.38 12.85L6.38 12.85Q6.38 12.94 6.36 12.94L6.36 12.94L6.36 12.94Q5.87 12.94 5.59 12.92L5.59 12.92L4.48 12.91L3.40 12.92L3.40 12.92Q3.12 12.94 2.62 12.94L2.62 12.94L2.62 12.94Q2.58 12.94 2.58 12.85L2.58 12.85L2.58 12.85Q2.58 12.77 2.62 12.77L2.62 12.77L2.62 12.77Q3.19 12.77 3.46 12.70L3.46 12.70L3.46 12.70Q3.72 12.63 3.82 12.43L3.82 12.43L3.82 12.43Q3.92 12.22 3.92 11.80L3.92 11.80L3.92 5.32L3.92 5.32Q3.92 4.93 3.84 4.75L3.84 4.75L3.84 4.75Q3.75 4.58 3.53 4.52L3.53 4.52L3.53 4.52Q3.30 4.47 2.79 4.47L2.79 4.47ZM14.73 12.18L14.74 12.18L14.74 12.18Q14.80 12.18 14.82 12.24L14.82 12.24L14.82 12.24Q14.84 12.31 14.78 12.33L14.78 12.33L13.34 13.02L13.34 13.02Q13.29 13.05 13.22 13.05L13.22 13.05L13.22 13.05Q13.03 13.05 12.87 12.82L12.87 12.82L12.87 12.82Q12.71 12.59 12.66 12.18L12.66 12.18L11.86 12.61L11.86 12.61Q11.06 13.03 10.53 13.03L10.53 13.03L10.53 13.03Q10.09 13.03 9.85 12.80L9.85 12.80L9.85 12.80Q9.60 12.57 9.60 12.19L9.60 12.19L9.60 12.19Q9.60 11.79 9.91 11.56L9.91 11.56L9.91 11.56Q10.21 11.34 11.02 11.06L11.02 11.06L12.63 10.50L12.63 9.37L12.63 9.37Q12.63 8.47 12.41 8.09L12.41 8.09L12.41 8.09Q12.19 7.70 11.79 7.70L11.79 7.70L11.79 7.70Q11.35 7.70 11.11 8.02L11.11 8.02L11.11 8.02Q10.86 8.33 10.81 8.83L10.81 8.83L10.81 8.83Q10.75 9.45 10.19 9.45L10.19 9.45L10.19 9.45Q9.94 9.45 9.80 9.32L9.80 9.32L9.80 9.32Q9.66 9.20 9.66 8.97L9.66 8.97L9.66 8.97Q9.66 8.64 10.10 8.27L10.10 8.27L10.10 8.27Q10.54 7.90 11.16 7.65L11.16 7.65L11.16 7.65Q11.77 7.41 12.26 7.41L12.26 7.41L12.26 7.41Q12.85 7.41 13.22 7.79L13.22 7.79L13.22 7.79Q13.58 8.18 13.58 8.95L13.58 8.95L13.58 11.42L13.58 11.42Q13.58 11.89 13.71 12.11L13.71 12.11L13.71 12.11Q13.85 12.33 14.13 12.33L14.13 12.33L14.13 12.33Q14.38 12.33 14.73 12.18L14.73 12.18ZM11.98 12.31L12.63 11.97L12.63 11.83L12.63 10.70L11.40 11.16L11.40 11.16Q11.06 11.28 10.91 11.45L10.91 11.45L10.91 11.45Q10.77 11.61 10.77 11.84L10.77 11.84L10.77 11.84Q10.77 12.14 10.93 12.31L10.93 12.31L10.93 12.31Q11.10 12.47 11.37 12.47L11.37 12.47L11.37 12.47Q11.68 12.47 11.98 12.31L11.98 12.31ZM18.05 13.10L18.05 13.10Q17.14 13.10 16.51 12.71L16.51 12.71L16.51 12.71Q15.89 12.31 15.59 11.68L15.59 11.68L15.59 11.68Q15.29 11.05 15.29 10.35L15.29 10.35L15.29 10.35Q15.29 9.45 15.75 8.79L15.75 8.79L15.75 8.79Q16.21 8.12 16.94 7.76L16.94 7.76L16.94 7.76Q17.67 7.41 18.42 7.41L18.42 7.41L18.42 7.41Q19.05 7.41 19.57 7.67L19.57 7.67L19.57 7.67Q20.09 7.92 20.09 8.32L20.09 8.32L20.09 8.32Q20.09 8.53 19.94 8.68L19.94 8.68L19.94 8.68Q19.78 8.83 19.52 8.83L19.52 8.83L19.52 8.83Q19.05 8.83 18.82 8.29L18.82 8.29L18.82 8.29Q18.66 7.97 18.48 7.83L18.48 7.83L18.48 7.83Q18.30 7.69 17.93 7.69L17.93 7.69L17.93 7.69Q17.21 7.69 16.79 8.29L16.79 8.29L16.79 8.29Q16.38 8.90 16.38 9.91L16.38 9.91L16.38 9.91Q16.38 11.07 16.94 11.82L16.94 11.82L16.94 11.82Q17.50 12.56 18.66 12.56L18.66 12.56L18.66 12.56Q19.43 12.56 20.06 12.12L20.06 12.12L20.09 12.12L20.09 12.12Q20.13 12.12 20.17 12.17L20.17 12.17L20.17 12.17Q20.20 12.21 20.16 12.24L20.16 12.24L20.16 12.24Q19.67 12.68 19.17 12.89L19.17 12.89L19.17 12.89Q18.66 13.10 18.05 13.10L18.05 13.10ZM23.87 13.12L23.87 13.12Q23.04 13.12 22.41 12.72L22.41 12.72L22.41 12.72Q21.78 12.32 21.44 11.64L21.44 11.64L21.44 11.64Q21.10 10.96 21.10 10.16L21.10 10.16L21.10 10.16Q21.10 9.25 21.55 8.62L21.55 8.62L21.55 8.62Q21.99 7.98 22.69 7.67L22.69 7.67L22.69 7.67Q23.39 7.35 24.12 7.35L24.12 7.35L24.12 7.35Q24.95 7.35 25.58 7.76L25.58 7.76L25.58 7.76Q26.21 8.16 26.54 8.83L26.54 8.83L26.54 8.83Q26.88 9.49 26.88 10.23L26.88 10.23L26.88 10.23Q26.88 11.09 26.47 11.75L26.47 11.75L26.47 11.75Q26.05 12.40 25.37 12.76L25.37 12.76L25.37 12.76Q24.68 13.12 23.87 13.12L23.87 13.12ZM24.28 12.85L24.28 12.85Q24.98 12.85 25.35 12.31L25.35 12.31L25.35 12.31Q25.73 11.76 25.73 10.67L25.73 10.67L25.73 10.67Q25.73 9.76 25.46 9.06L25.46 9.06L25.46 9.06Q25.19 8.37 24.71 8.00L24.71 8.00L24.71 8.00Q24.23 7.63 23.65 7.63L23.65 7.63L23.65 7.63Q22.96 7.63 22.59 8.16L22.59 8.16L22.59 8.16Q22.22 8.68 22.22 9.70L22.22 9.70L22.22 9.70Q22.22 10.58 22.48 11.30L22.48 11.30L22.48 11.30Q22.75 12.03 23.22 12.44L23.22 12.44L23.22 12.44Q23.69 12.85 24.28 12.85L24.28 12.85ZM33.88 13.10L33.88 13.10Q32.97 13.10 32.35 12.71L32.35 12.71L32.35 12.71Q31.72 12.31 31.42 11.68L31.42 11.68L31.42 11.68Q31.12 11.05 31.12 10.35L31.12 10.35L31.12 10.35Q31.12 9.45 31.58 8.79L31.58 8.79L31.58 8.79Q32.05 8.12 32.77 7.76L32.77 7.76L32.77 7.76Q33.50 7.41 34.26 7.41L34.26 7.41L34.26 7.41Q34.89 7.41 35.41 7.67L35.41 7.67L35.41 7.67Q35.92 7.92 35.92 8.32L35.92 8.32L35.92 8.32Q35.92 8.53 35.77 8.68L35.77 8.68L35.77 8.68Q35.62 8.83 35.35 8.83L35.35 8.83L35.35 8.83Q34.89 8.83 34.65 8.29L34.65 8.29L34.65 8.29Q34.50 7.97 34.31 7.83L34.31 7.83L34.31 7.83Q34.13 7.69 33.77 7.69L33.77 7.69L33.77 7.69Q33.04 7.69 32.63 8.29L32.63 8.29L32.63 8.29Q32.21 8.90 32.21 9.91L32.21 9.91L32.21 9.91Q32.21 11.07 32.77 11.82L32.77 11.82L32.77 11.82Q33.33 12.56 34.50 12.56L34.50 12.56L34.50 12.56Q35.27 12.56 35.90 12.12L35.90 12.12L35.92 12.12L35.92 12.12Q35.97 12.12 36.00 12.17L36.00 12.17L36.00 12.17Q36.04 12.21 35.99 12.24L35.99 12.24L35.99 12.24Q35.50 12.68 35.00 12.89L35.00 12.89L35.00 12.89Q34.50 13.10 33.88 13.10L33.88 13.10ZM42.25 12.18L42.27 12.18L42.27 12.18Q42.32 12.18 42.34 12.24L42.34 12.24L42.34 12.24Q42.36 12.31 42.31 12.33L42.31 12.33L40.87 13.02L40.87 13.02Q40.81 13.05 40.74 13.05L40.74 13.05L40.74 13.05Q40.56 13.05 40.40 12.82L40.40 12.82L40.40 12.82Q40.24 12.59 40.18 12.18L40.18 12.18L39.38 12.61L39.38 12.61Q38.58 13.03 38.05 13.03L38.05 13.03L38.05 13.03Q37.62 13.03 37.37 12.80L37.37 12.80L37.37 12.80Q37.13 12.57 37.13 12.19L37.13 12.19L37.13 12.19Q37.13 11.79 37.43 11.56L37.43 11.56L37.43 11.56Q37.73 11.34 38.54 11.06L38.54 11.06L40.15 10.50L40.15 9.37L40.15 9.37Q40.15 8.47 39.94 8.09L39.94 8.09L39.94 8.09Q39.72 7.70 39.31 7.70L39.31 7.70L39.31 7.70Q38.88 7.70 38.63 8.02L38.63 8.02L38.63 8.02Q38.39 8.33 38.33 8.83L38.33 8.83L38.33 8.83Q38.28 9.45 37.72 9.45L37.72 9.45L37.72 9.45Q37.46 9.45 37.32 9.32L37.32 9.32L37.32 9.32Q37.18 9.20 37.18 8.97L37.18 8.97L37.18 8.97Q37.18 8.64 37.63 8.27L37.63 8.27L37.63 8.27Q38.07 7.90 38.68 7.65L38.68 7.65L38.68 7.65Q39.30 7.41 39.79 7.41L39.79 7.41L39.79 7.41Q40.38 7.41 40.74 7.79L40.74 7.79L40.74 7.79Q41.10 8.18 41.10 8.95L41.10 8.95L41.10 11.42L41.10 11.42Q41.10 11.89 41.24 12.11L41.24 12.11L41.24 12.11Q41.37 12.33 41.65 12.33L41.65 12.33L41.65 12.33Q41.90 12.33 42.25 12.18L42.25 12.18ZM39.51 12.31L40.15 11.97L40.15 11.83L40.15 10.70L38.92 11.16L38.92 11.16Q38.58 11.28 38.44 11.45L38.44 11.45L38.44 11.45Q38.29 11.61 38.29 11.84L38.29 11.84L38.29 11.84Q38.29 12.14 38.46 12.31L38.46 12.31L38.46 12.31Q38.63 12.47 38.89 12.47L38.89 12.47L38.89 12.47Q39.20 12.47 39.51 12.31L39.51 12.31ZM45.11 4.47L45.11 4.47Q44.24 4.47 43.75 4.95L43.75 4.95L43.75 4.95Q43.26 5.43 43.02 6.50L43.02 6.50L43.02 6.50Q43.01 6.52 42.93 6.52L42.93 6.52L42.93 6.52Q42.85 6.52 42.85 6.50L42.85 6.50L42.85 6.50Q42.91 6.09 42.98 5.21L42.98 5.21L42.98 5.21Q43.05 4.33 43.05 3.88L43.05 3.88L43.05 3.88Q43.05 3.81 43.13 3.81L43.13 3.81L43.13 3.81Q43.22 3.81 43.22 3.88L43.22 3.88L43.22 3.88Q43.22 4.19 43.99 4.19L43.99 4.19L43.99 4.19Q45.18 4.23 46.80 4.23L46.80 4.23L46.80 4.23Q47.63 4.23 48.55 4.20L48.55 4.20L49.50 4.19L49.50 4.19Q50.02 4.19 50.26 4.12L50.26 4.12L50.26 4.12Q50.50 4.05 50.57 3.84L50.57 3.84L50.57 3.84Q50.58 3.78 50.66 3.78L50.66 3.78L50.66 3.78Q50.74 3.78 50.74 3.84L50.74 3.84L50.74 3.84Q50.69 4.23 50.65 5.10L50.65 5.10L50.65 5.10Q50.60 5.96 50.60 6.50L50.60 6.50L50.60 6.50Q50.60 6.52 50.52 6.52L50.52 6.52L50.52 6.52Q50.44 6.52 50.44 6.50L50.44 6.50L50.44 6.50Q50.34 5.42 49.88 4.94L49.88 4.94L49.88 4.94Q49.42 4.47 48.51 4.47L48.51 4.47L48.51 4.47Q47.99 4.47 47.77 4.53L47.77 4.53L47.77 4.53Q47.54 4.59 47.46 4.77L47.46 4.77L47.46 4.77Q47.38 4.94 47.38 5.35L47.38 5.35L47.38 11.80L47.38 11.80Q47.38 12.24 47.47 12.43L47.47 12.43L47.47 12.43Q47.56 12.63 47.82 12.70L47.82 12.70L47.82 12.70Q48.09 12.77 48.68 12.77L48.68 12.77L48.68 12.77Q48.71 12.77 48.71 12.85L48.71 12.85L48.71 12.85Q48.71 12.94 48.68 12.94L48.68 12.94L48.68 12.94Q48.19 12.94 47.91 12.92L47.91 12.92L46.80 12.91L45.72 12.92L45.72 12.92Q45.44 12.94 44.94 12.94L44.94 12.94L44.94 12.94Q44.90 12.94 44.90 12.85L44.90 12.85L44.90 12.85Q44.90 12.77 44.94 12.77L44.94 12.77L44.94 12.77Q45.51 12.77 45.78 12.70L45.78 12.70L45.78 12.70Q46.05 12.63 46.14 12.43L46.14 12.43L46.14 12.43Q46.24 12.22 46.24 11.80L46.24 11.80L46.24 5.32L46.24 5.32Q46.24 4.93 46.16 4.75L46.16 4.75L46.16 4.75Q46.07 4.58 45.85 4.52L45.85 4.52L45.85 4.52Q45.63 4.47 45.11 4.47L45.11 4.47Z"></path></g><defs data-v-fde0c5aa=""><linearGradient data-v-fde0c5aa="" gradientTransform="rotate(25)" id="128cd19c-85d6-4151-8981-6785ca36fb83" x1="0%" y1="0%" x2="100%" y2="0%"><stop data-v-fde0c5aa="" offset="0%" stop-color="#EB4C00" stop-opacity="1"></stop><stop data-v-fde0c5aa="" offset="100%" stop-color="#F2A900" stop-opacity="1"></stop></linearGradient></defs><g data-v-fde0c5aa="" id="8dd85234-d8f4-46d3-9fc0-402cf3956f14" stroke="none" fill="url(#128cd19c-85d6-4151-8981-6785ca36fb83)" transform="matrix(1.5291233178760943,0,0,1.5291233178760943,73.49904614406273,40.10016404067757)"><switch><g><path d="M97.3 70.9c0-.4.1-2.1.1-3.2.1-.8.1-1.5.1-1.8 0-.3-.1-.9-.2-1.8s-.3-2.7-.3-3c.2-1-.4-2-.8-2.7-.2-.3-.1-.6.1-1 0-.1.1-.2.1-.2.3-.8-.6-2.1-1-2.5l-.1-.1c0-.1.1-.3 0-.7-.1-.8-.3-2.2-1-2.9 0-.2 0-.4-.1-.5-.1-.3 0-1.3 0-1.7v-.5-.2c0-.5.1-1.4-1.1-1.9-.5-.2-.5-.2-.8-.8-.1-.1-.1-.3-.2-.4-.1-.3-.2-.5-.3-.6-.2-.4-.3-.6-.8-1.4-.3-.6-.7-.9-1-1.3v-.8c.1-.5.2-1.3-.9-1.8l-.8-.4c-.3-.1-.5-.3-.9-.2h-.2c-.1-.2-.3-.3-.4-.5-.4-.8-1.1-1.3-1.9-1.8-.4-.3-.9-.6-1.4-1-.9-.8-2.4-1.1-3.3-.7 0-.7-.1-.9-.6-1.3-.1-.4-.4-.7-1.1-1.3-.5-.4-.7-.5-.9-.5-.1-.1-.5-.6-.7-.8-1.2-1.6-1.4-1.8-1.9-1.9-.1 0-.4-.1-.6-.2-1.6-.7-2.5-1-3-.9H70.8c.3-.5.5-1.1.2-1.6-.1-.2-.4-.5-1-.5-.5 0-1.2.1-2.2.1v-.3c.1-.1.5-.3.5-.8s-.6-.7-1.3-1c-1-.4-1.3-.5-1.4-.6-.2-.1-.3-.2-.6-.2-.1 0-.2-.1-.3-.2-.3-.2-1.1-.8-1.8-.2-.1.1-.4.1-.6.1-.2 0-.4 0-.6.1-1.2-1.6-2.9-3.6-3.7-3.8-1.4-.5-2.2.3-2.8.8-.4.4-.7.8-1 1.2-.2.3-.4.5-.6.7-.2.2-.4.4-.5.7-.1-.1-.1-.1-.2 0-.1-.1-.2-.2-.4-.3-1.5-1.2-5.4-4.5-9.4-1.7l-.3.3c-.3.2-1 .3-1.6.5-.3.1-.5.1-.7.2-.4-.2-.8-.2-1.1-.2l-.1-.1-1.2-.6-.1-.1h-.2c-.1 0-.4 0-2.2.8-.1.1-.3.1-.5.2-.2-.1-.4-.1-.5-.1h-.9c-.4 0-.6.1-.8.2-.1.1-.2.1-.4.2-.3.1-.4.2-.5.3 0 0-.1 0-.3.1-.3.2-.7.4-.7 1-.1-.1-.2-.1-.3-.1-.4-.1-.7.2-.9.3l-.1.1c-.5.4-6.8 3.5-8.9 4.4-2 .8-2.5 1.3-3 1.8l-.2.2c-2.4 1.2-5.1 3.5-6.1 4.3-1.3 1-3 3.8-4.1 5.7-.3.4-.5.8-.7 1.1-.8 1.2-1.6 3.8-2.1 5.4-.1.3-.2.5-.2.7-.4 1.2-1 3.6-1.2 4.5 0 .1-.1.3-.2.5s-.2.4-.2.6l-.1.1V52.7c-.1.6-.2 1.5-.1 3 .3 2.8 1.8 4.3 2.5 5.1.1.1.2.2.2.3.2.2.5.4 1.3.7.5.3 1.1.4 1.6.6.1 0 .1 0 .2.1h.4c.3 0 .5.1.8.1h.4c.8.1 2 .3 3.2.6 1.1.2 2.3.5 3.2.6.8.1 1.6.3 2.4.5 1 .3 1.8.5 2.5.5s1.3.3 1.9.6c.3.1.5.3.8.4.8.4 1.6.4 2.4.4h.7c.5 0 1.2.4 1.8.6.5.2.9.4 1.3.5.2.1.5.1.8.2.5.2 1.1.3 1.7.4.3 0 .8.1 1.3.2.8.1 1.5.3 1.9.3.1 0 .4.1.6.2.5.2 1.1.4 1.9.4.5 0 .9.2 1.4.4.4.2.8.4 1.3.5.4.1.7.2.9.4.3.2.6.4 1.1.4 1.2.2 2.9.6 4.3 1 1.1.3 1.7.4 2.4.4.4 0 .9.1 1.5.1 1 .1 1.7.3 2.5.6.6.2 1.3.4 2.3.6 1 .2 1.8.4 2.5.6 1.2.3 2.3.5 3.9 1 .9.3 1.4.4 1.9.6.9.3 1.5.6 4.7 1 3.4.5 4.1.7 5 .9.3.1.7.2 1.3.3 1.3.3 1.6.3 1.9.4.2 0 .5.1 1.2.2.9.2 2 .5 2.9.8.9.3 1.4.4 1.7.5h.3c.7.1 2.3.3 3.9.9.5.2 1 .4 1.3.5.5.3 1 .5 1.4.6.2 0 .5.1.7.1 1.3 0 2.3-.6 3.1-1.2.7-.5 1.2-1.7 1.8-2.9.3-.7.6-1.4.9-1.8.9-1.2.6-3.3.4-4.4.4-.4.4-.5.4-.6zm-3.4-12c0 .1 0 .2.1.4.1.7.2 1.2.3 1.7h-.1c-.1 0-.2-.1-.3-.1.1-.5.1-.9.1-.9s0-.6-.1-1.1zm-.3 3.2h.1c0 .1.1.1.1.2v.2c0 .1.1.5.3 1.1.1.3.1.4.3.6l.1.2c0 .1.1.2.1.2V65.8c0 .1 0 .1-.1.2-.2 0-.4 0-.7.2l-.3-.3.5-.2h-.8c-.3-.3-.6-.5-.7-.6h-.1c-.4-.4-.8-.6-1-.8v-.5c.2.1.4.1.7.2h.1c.4 0 .7-.1 1-.4 0-.3.2-.9.4-1.5zm.5 8.1v.1s0 .1-.1.2-.1.2-.2.3c0-.1 0-.1-.1-.2v-.1s0-.1-.1-.1c.3-.1.4-.2.5-.2zm-1.7 2.1c-.4.1-.6.2-.8.3-.1 0-.2.1-.2.1s0-.1-.1-.1c.2-.5.2-.5.2-.9 0-.1 0-.1.1-.2.1-.2.1-.4 0-.7v-.1c.3-.2.4-.2.5-.2l.3.3.2.2v.1c0 .1-.1.2-.1.3-.2.4-.1.7-.1.9zM84.8 67c0 .2.1.3.2.4l-.1.1c-.2-.7-.7-1.2-1.3-1.8 0-.2-.1-.4-.2-.6.4.2.8.3 1.2.3h.1c.1 0 .2 0 .3-.1 0 0 0 .1.1.1l.2.2h-.1c-.7.4-.5 1-.4 1.4zm-2.7-4.4c-.1-.5-.3-.8-.6-1 .4-.5.7-1 .8-1.2 0-.2.1-.6-.2-1.1.1-.1.2-.3.2-.3l.3-.6.3-.6v-.2c.2.1.3.1.4.2h.1v.1c0 .3.2.7.4 1.2.3.7.9 1.8.5 2.4-.4.7-1.6 1.1-2.2 1.1zm1.1 2.4c0 .1 0 .1-.1.2 0 0-.1-.1-.1-.2h.2zm-3.1-7.2c-.6-.1-.9.4-1.3.9-.4-.5-.7-.9-1-1.1-.1-.1-.3-.3-.5-.6l.1-.1c0-.1.1-.1.3-.2.6-.3 1.1-.7 1-2.2 0-.3 0-.5-.1-.7.2-.1.5-.2.8-.4.1.1.1.2.2.3-.2.5 0 1.1.2 1.6v.1c.1.3.3 1 .6 1.2.2.2.8.4 1.2.4 0 .2 0 .3-.1.4 0 0-.1.1-.1.2-.1.1-.2.2-.2.4-.2 0-.6-.1-1.1-.2zm.9 2.3s0 .1 0 0c0 .1 0 .1 0 0-.1.2-.3.5-.6.7-.2-.2-.4-.5-.6-.8-.1-.1-.2-.2-.2-.3l.2-.2c.1-.1.2-.3.3-.4.1 0 .2 0 .2.1.2.4.4.7.7.9zM66 43.9c-.2.1-.4.1-.5.2-.2-.1-.4-.3-.8-.5-.6-.4-1-.6-1.3-.9.6-.1 1.1-.2 1.5-.1h.6l.6.6c-.1.2-.2.5-.1.7zm0-4.9c-.6.8-1 1.4-.6 2.1v.1s-.1.1-.4 0c-.9-.1-1.8.1-2.8.4l-.1-.1c-.7-.6-2.6-2.2-4.5-3.6h.2c.4-.1.7-.2 1.7-.9.6-.4.9-.6 1.1-.7.4-.2.5-.3 1-.7l.2-.2.1-.1.2.2c.4.4.8.9 1.5.8h.1c.4 0 .6-.1 1-.4l.5-.5c.1 0 .1.1.1.1.1.1.2.1.4.4l.5.5c.2.2.2.2.2.4.1.4.2.6.4.7l-.1.1c-.1.6-.5 1.1-.7 1.4zm-13.7-6.7c0 .2.1.4.1.6-.7.5-1.3 1-1.6 1.5h-.1c.4-.5 1-1.3 1.6-2.1zm-2.9 2c-.1 0-.3 0-.3-.1-.2-.1-.4-.1-.7-.2-.3-.1-.7-.2-1.1-.4.3-.2.6-.4.8-.9.2-.3.2-.3.5-.4.4 0 1-.1 1.8-.6.3-.1.4-.2.5-.2 0 0 .1.1.1.2l.1.1c-.8.9-1.4 1.8-1.7 2.5zm2.7-4c-.1.1-.2.2-.2.4-.5-.5-1-.7-2.1-.1-.6.3-1 .4-1.3.4-.4 0-.7.1-1 .4-.5-.2-1-.4-1.6-.5-.3-.1-.7-.2-.9-.3-.1-.2-.2-.3-.1-.5l.3-.3c2.1-.9 4.9-1.8 7.1-1.9h.1c.2.2.5.4 1.1.5h.2l.1.1c-.4.1-.6.1-.8.2-.2.1-.4.3-.5.4-.2.2-.4.5-.4 1.2zm-5.5 2.1c-.1 0-.1.1-.2.1-.2.1-.4.2-.5.3-.9-.4-2.6-.8-2.6-.8-.3-.1-.8-.3-1.3-.5l.1-.1.6-.3c.2-.1.5-.3.8-.4h.1c.1.3.2.6.5.9.2.3.7.4 1.5.6.2 0 .6.1 1 .2zm15.2-3.2c.2.3.7 1 1 1.6-.4 0-.8-.1-1.4-.1-1.6-.1-3.4 0-4.8.1-1.1.1-1.9.2-2.4.4-.2-.6-.3-1-.4-1.2 1.1-.4 6.8-.9 8-.8zm-6.5-1.3h1.5c-.2.1-.4.2-.7.3-.2 0-.4 0-.6.1 0-.2-.1-.3-.2-.4zm3.6 4.1c2.1 0 3.8.1 4.5.2.1.3.3.8.5 1.4.1.3.2.6.3 1l-.3.3c-.1.1-.1.1-.2.1h-.3c-.1-.1-.2-.2-.3-.4-.1-.1-.2-.2-.2-.3-.2-.2-.5-.6-1-.5-.3 0-.5.2-.9.6l-.2.2c-.5.4-.5.4-.8.6-.2.1-.5.3-1.1.7-.9.6-1.1.6-1.3.7-.2 0-.4.1-.7.3-.1 0-.2.1-.3.2-.5-.4-.9-.7-1.3-1l-.8-3.7c.5-.2 1.8-.4 4.4-.4zM68 42.9c-.3-.2-.9-.7-1.4-1.2.2-.4.1-.8 0-1.2 0-.1.3-.5.5-.8.3-.4.6-.9 1-1.5.4-.7.7-1.2.4-1.7-.1-.2-.3-.3-.6-.3-.1-.5-.4-.8-.7-1l-.3-.3-.1-.1s.1 0 .1-.1h.1c0 .1.1.2.1.3.2.2.4.3.6.3.2.4.5.6 1.1.7.1 0 .4.1.9.1.6.1 1.6.3 2.6.5.7.8 1.3.9 2 .8h.1c.2.2.4.3.6.4 0 0 .1 0 .1.1l-.1.1c-.3.3-.6.7-.9 1-.5.5-.9 1-1.3 1.3-.8.5-3.9 2.4-4.8 2.6 0 .1 0 0 0 0zm0 2.1v.1c-.1.1-.1.2-.1.4l-.1.3c0 .1 0 .2-.1.2l-.4-.4c-.2-.2-.4-.2-.5-.3-.1 0-.1-.1-.2-.1.2 0 .4-.1.5-.1.3-.1.6-.1.8-.2 0 0 0 .1.1.1zm13.4-5.3c.1.3.3.5.4.8 0 .1.1.2.1.2v.1c0 .2.1.4.2.7-.2 0-.5.2-.9.3-.3.1-.5.1-.6.1-.3-.4-.7-.8-1.5-.9-.4-.1-.5-.2-.7-.3-.1-.1-.3-.2-.5-.3v-.1c.4-.6.1-1.3 0-1.4v-.1c-.1-.1-.5-.8-1.2-1.4 1.8.4 3.5.9 4.2 1.3.1.1.2.1.3.2.1.3.1.5.2.8zm2.5 6.6c.1.6 0 1.2 0 1.5v.1c-.1.2-.5.9-.9 1.4-.1-.1-.1-.1-.2-.1s-.2-.1-.3-.1h-.2c-.1 0-.2-.1-.2-.1 0-.2 0-.6-.2-1.1.1-.1.3-.3.3-.6.1-.5-.3-.8-.8-1.3-.3-.3-.9-.7-1-1-.2-.6-.2-.9 0-1.9V43c.3 0 .8 0 1.5-.2H82.2c.2.2.6.8.8 1.2.5.7.8 1.2 1.1 1.4-.2.4-.2.6-.2.9zm1.3-.2v-.3c.1-.1.1-.3.1-.4l.3-.1c.1 0 .2 0 .3-.1 0 .3-.1.4-.2.6-.1.2-.3.4-.3.9v.2c-.1.6 0 .8.4 1.4 0 .1.1.3.1.4h-.3c-.1 0-.2.1-.3.1-.2 0-.3.1-.5.2.3-.4.4-.8.4-1v-.1c.1-.2.2-1 0-1.8zm-.2-2c-.2 0-.3.1-.4.1-.1-.2-.3-.4-.5-.7.2.1.5.1.7.2h.1c.1 0 .1.1.1.1s.1 0 .1.2l-.1.1zm.3 6.5c1-.2 2.1-.5 2.9-.7.3-.1.5-.2.7-.2 0 .2 0 .5-.1.9V52c-1 .2-3.4.8-5.2 1.3-.1-.1-.1-.2-.2-.4-.3-.3-.5-.4-.8-.5-.2-.1-.3 0-.5 0 0-.3 0-.7.1-.9.4-.3 2-.6 3.1-.9zm1.4-3.3v-.2-.2c0-.1 0-.2.1-.3.1-.2.3-.5.3-.9.3 0 .7-.2 1.3-.4h.2c0 .1.2.6.2.9 0 0-.1.1-.2.1-.1.1-.3.2-.4.3-.3.3-.5.7-.6 1.1 0 .1 0 .1-.1.2-.1.2-.1.4-.1.5-.1.1-.1.2-.4.3h-.1c0-.3-.1-.7-.3-1.1.2-.1.2-.2.1-.3zm-5.9 5.4h-.3c.1-.2.1-.4.2-.6 0-.1 0-.3.1-.3v.9zm-1.4-.8c-.1.1-.3.2-.4.3-.2.1-.6.4-.8.4H78l-.1-.1c.3-.5.5-1 .7-1.3 1.1-2.3 1.3-2.9 1.2-3.1v-.2c.1 0 .2.1.3.1h.2c.1.2.3.3.4.4 0 0 0 .1.1.1.1.2.1.3.1.5s0 .6.2.9c-.1.1-.1.2-.1.3-.1.1-.2.2-.4.2-1 .2-1.1 1.1-1.2 1.5zm.4 3.6zm-.7-9.9s0 .1 0 0c0 .1-.1.1-.1.1-.4 0-.6.3-.7.4l-.2.2H78c-.1 0-.1-.1-.2-.1-.8-.4-1.8-1.1-2.8-1.7-.8-.5-1.5-1-2.1-1.3.1 0 .2-.1.3-.2l.1-.1c.1-.1.2-.1.4-.2l1.9-.8c.2 0 .8-.1 1.5-.2.3 0 .3 0 .5.1.2.2.6.4 1.3.5h.2c-.1.2-.1.4-.1.6v.2c-.1 1.1-.2 1.6.1 2.5zM81 54h.3c.2 0 .3 0 .5-.1s.3-.1.5-.2h.1v.1s.1.1.1.3c.1.2.2.5.5.7.1 0 .1.1.2.3.1.1.2.3.3.5.1.2.2.3.3.4 0 .1 0 .1-.1.2-.1.2-.2.4-.2.5-.2-.1-.5-.2-.8-.3-.5-.2-.7-.3-1-.3h-.2c-.1 0-.2 0-.3-.1-.1-.1-.2-.4-.2-.5 0-.1 0-.2-.1-.3-.2-.4-.2-.6-.2-.7.2-.3.2-.4.3-.5zm-4.1-14.4c0 .1 0 .1 0 0 0 .1-.2.1-.2.2-.2 0-.3.1-.5.2-.3.2-.4.4-.4.5h-.4l-1.9.8c.5-.4.9-.9 1.5-1.4l.9-.9.3-.3c.3.4.5.7.7.9zm-5.1 2.8l-.1.1h-.1c.1 0 .2 0 .2-.1zm-3 4.5c2.6 1.5 6 3.5 6.6 3.9 0 .3-.4 1.2-.6 1.5-.1.2-.2.4-.2.5 0 .1-.1.2-.1.3-.1.2-.1.3-.2.5-.1-.1-.1-.1-.1-.2-.1-.1-.2-.3-.4-.5s-1.2-1.5-1.9-2.4c-.5-.6-.9-1.1-1-1.3l-.8-.8c-.2-.1-.4-.3-.4-.4-.1-.1-.5-.5-.8-.9-.1-.1-.1-.1-.1-.2zm.4-1.3c.2-.5 1.2-1.6 1.7-1.9.5.1 2.2 1.2 3.4 1.9 1 .6 2.1 1.3 2.9 1.7.4.2.7.4.9.5-.2.2-.5.4-.9.7L76 49.7c-1-.8-5-3-6.8-4.1zm6.6 7.7c0-.1.1-.2.2-.4.2-.4.5-1 .6-1.5.2-.3.3-.6.3-.7l.7-.7c-.6 1.3-1.4 2.8-1.6 3.1l-.3.3s0-.1.1-.1zm.3 1.7l1-1s.1-.1.1-.2c.1.2.2.5.2.8 0 .8-.1.8-.4 1-.1.1-.3.2-.5.4-.2-.3-.4-.5-.6-.8 0-.1.1-.2.2-.2zm8.1 9c-.2-.1-.4-.2-.6-.4.1-.1.3-.1.4-.2v.1c.1.2.1.3.2.5zm1-1.4c.1-.1.2-.2.3-.4.8-1.2.1-2.7-.4-3.7-.1-.2-.3-.6-.3-.7 0-.3 0-.5-.1-.7 0-.1.1-.1.1-.2.1 0 .2.1.5.2 0 .2.1.4.2.6 0 .1.1.2.1.3.1.3.2.7.5 1-.1.2-.2.3-.2.7v.1c-.1.2 0 .4 0 .6 0 .1.1.2.1.3.1.3.1.6 0 1 0 .5-.1 1.2.2 1.8.1.3.1.5 0 .7-.1 0-.1 0-.2-.1-.3-.1-.7-.7-.8-.9v-.1c.1-.1 0-.3 0-.5zm2.5 4.9l1.8-1.8c.1-.1.2-.3.3-.3.1.2.2.3.3.5.1.2.4.6.6.9-.8.8-2.7 2.8-3.9 4-.3-.3-.7-1-.9-1.3.2-.4 1.1-1.3 1.8-2zM89 57.3h1.5l-.1.1c-.2.3-.2.3-1.4.5.1-.1.1-.3.1-.4-.1-.1-.1-.2-.1-.2zm1.4-4.6c-.1-.3-.2-.5-.2-.6v-.3c.2.5.3.9.4 1.3-.1-.1-.1-.3-.2-.4zM89 59.2c.7-.1 1.1-.1 1.4-.2.4.5.8.8 1.2.9h.2c.3 0 .5-.1.7-.2v.4c-.1.5-.4 2.2-.6 2.6-.1 0-.5-.1-.7-.3-.1-.1-.1-.2-.2-.3-.3-.5-.8-1.1-1.7-1.6-.5-.3-.8-.6-.9-.8 0-.1.1-.2.1-.4.2-.1.4-.1.5-.1zm-.3 2.3c.4.2.6.5.8.7v.1c0 .1-.1.1-.1.1-.3.5-.2.8 0 1.2 0 .1.1.1.1.2-.4.2-.7.5-1.2 1-.3.4-.8.9-1.3 1.3-.1-.2-.2-.4-.4-.6.3-.1.6-.4.7-.8.2-.4.3-1 0-1.7-.2-.4-.1-.8-.1-1.3s.1-.9-.1-1.4c0-.1-.1-.2-.1-.3.5.6 1.2 1.2 1.7 1.5zm-1.4-3.9l-.3.3c0-.1-.1-.2-.1-.3-.1-.2-.1-.4-.2-.5v-.6c.2.3.4.4.6.6l.1.1c0 .1.1.2.2.3-.2 0-.2.1-.3.1zm1.1 14.6c.1-.1.1-.1.2-.1.1-.1.4-.4.6-.5.2-.1.3-.3.4-.4l.2-.2c.1-.1.2-.2.3-.2 0 .1.1.1.1.1s0 .1.1.1c0 .1.1.2.1.3 0 .1-.1.2-.1.4 0 .3 0 .3-.2.6-.3.7.1 1.2.3 1.5l.1.1c.2.3.4.3.7.3h.3v.3c-.4.2-.5.2-.7.2-.1 0-.6-.1-.9-.2-.1-.2-.3-.4-.4-.5-.2-.2-.8-.6-1.3-.7 0-.2-.1-.3-.1-.4v-.1c.1-.4.2-.5.3-.6zm3.6-3c-.3 0-.7.1-1 .3-.1-.2-.4-.5-.7-.5.6-.7 1.1-1.2 1.3-1.3.2.1.7.5.8.6l.3.3s.1.1.2.1c.1.1.3.2.5.4-.2.1-.4.2-.6.4-.2-.3-.5-.4-.8-.3zm1.2-14c0 .5-.1 1.2-.1 1.6v.4c0 .3-.1.6-.3.8l-.2.2c-.2 0-.3.1-.4.2-.1 0-.2.1-.2.1s-.2 0-.5-.4c.1-.1.1-.2.2-.2.3-.4.6-.9.5-1.8 0-.2.1-.5.1-.8v-1.2c0-.1-.1-.3-.1-.6.1 0 .1.1.2.1.1.1.2.1.3.2.1.1.4.6.5.9-.1.1-.1.3 0 .5zm-.8-3.3c0-.1.1-.1.2-.2.1.2.1.4.2.6-.1-.1-.2-.1-.2-.2-.2-.1-.2-.2-.2-.2zm.3-4.6c.3.1.3.1.2.6V49.6c-.3-.5-.5-1-.7-1.5-.2-.5-.4-1.1-.7-1.7.2.4.5.7 1.2.9zm-1 3.1c-.2.3-.3.5-.3.6-.7-1.9-.9-2.3-1.1-2.5 0 0 0-.1.1-.1 0-.1.1-.2.1-.2v.1c.2.9.7 1.4 1 1.8 0 .1.1.3.2.3zm-1.6-6.8c.4.7.5.8.6 1.2.1.2.2.4.3.7.1.1.1.3.2.4 0 .1.1.1.1.2-.3-.6-.8-1.3-1.4-2 .1-.2.1-.3.2-.5zm-.8 4c0 .1-.1.2-.1.2 0-.1 0-.2.1-.2zm.3 6.8c.1.2.1.3.2.5 0 .1.1.2.1.3.2.4.3.7.4.9-.5 0-1.4 0-2.4-.1-.1 0-.1-.1-.2-.1 0-.1-.1-.1-.1-.2-.1-.3-.3-.7-.9-.7-.3 0-.9 0-1.1.7 0 .1-.1.1-.1.2h-.2c0-.1 0-.3-.1-.4-.1-.3-.4-.4-.6-.4-.1 0-.1 0-.1-.1-.1-.1-.2-.3-.2-.4 2.2-.6 4.2-1.1 4.8-1.2.2 0 .5.7.5 1zm-1.9-14.7s.1 0 .1.1c.2.1.4.2.9.4.1 0 .2.1.2.1v.3c0 .3-.1.7 0 1.3.1.9.1.9 0 1.3v.2c-.1.3-.3.5-.3.6-.1 0-.1 0-.2.1-.3.1-1 .4-1.2.4-.1 0-.1 0-.3-.1l-.2-.4-.1-.2c-.2-.5-.5-.7-.8-.8-.1-.1-.3-.1-.5-.2-1-.3-1.3-.5-1.3-.6-.2-.4-.4-1.1-.5-1.4 0-.1-.1-.2-.1-.3 0-.1-.1-.3-.3-.5-.1-.1-.2-.3-.3-.5 0-.1.1-.2.2-.2 0-.1.1-.1.1-.2.1 0 .2.1.3.2.2.1.5.3.8.4.6-.1 3 .1 3.5 0zm-4.9-3.6c.5.5 1.1.8 1.5 1.1.6.4 1.1.7 1.3 1.2-.5 0-.9-.1-1.2-.1-.2-.3-.4-.5-.8-.9-.5-.6-1.1-1.2-1.7-1.6.4 0 .7.1.9.3zm-1.9.3c.3.2.9.8 1.5 1.3-.1 0-.2.1-.2.2-.1-.1-.3-.2-.4-.2-1.9-1-7.7-2.1-11.9-2.8-.4-.1-.7-.1-.8-.1H69v-.1c0-.2 0-.8.1-1.3h.4c4.2.5 10.5 2.5 11.4 3zM71 28.7h.2c.2 0 .3 0 .5-.1.4 0 1.7.6 2.3.8.5.2.7.3.8.3.2.2.8 1 1.2 1.4.8 1 .9 1.2 1.3 1.3.1 0 .2 0 .5.3.6.4.6.6.7.6 0 .1.1.4.4.6l.1.1v.1c-1.7-.6-4.1-1.2-6.3-1.7-.3-.4-.7-.8-.9-1.1-.2-.3-.4-1.1-.5-1.5v-.2c-.1-.4-.4-.7-.6-.9.1.2.2.2.3 0zm-1 1.5v.1c.1.7.3 1.4.6 1.9-.4-.1-.7-.1-1.1-.1h-.1c-.7-.1-1.6 0-1.8.9 0 .2-.1.3-.1.5l-.4-.1c-.5-.1-.9-.2-1.1.2-.2.1-.4.3-.5.4-.1 0-.1-.1-.2-.1-.1-.3-.2-.5-.3-.8-.2-.7-.5-1.4-.6-1.6 0-.2-.1-.6-.7-1.6 1.5-.3 2.6-.5 3.5-.7.6-.1 1.2-.2 1.6-.3 0 .5.4.7.7.9.3.2.5.3.5.4zm-.2-3.5c-.1.2-.3.5-.4.7v.1c-.2.1-1.1.3-2.2.5-.9.2-2.2.4-4 .8-.2-.3-.4-.6-.5-.7-.2-.2-.3-.3-2.1-.2 1-.3 2-.5 2.9-.6l1.6-.2c2.4-.3 3.8-.4 4.7-.4zm-8-2.5c.1-.2.2-.4.2-.6.1 0 .3 0 .5-.1.4 0 .8-.1 1.2-.3.1 0 .2.1.2.2.2.2.5.4.8.4.1 0 .1 0 .2.1.2.1.6.3 1.6.7-.1.2-.1.4-.1.6v.3s0 .1-.1.1c-.4 0-.9.1-1.5.2l-1.5.2c-.3 0-.5.1-.8.1l-.1-.1-.7-.7c-.1-.1-.1-.1-.1-.2s0-.2-.1-.3c.1-.1.2-.3.3-.6zm-6.6-2.9c.3-.4.5-.7.9-1 .6-.6.9-.8 1.5-.6.5.2 2 2 3.2 3.5 0 .1-.1.3-.2.5 0 .1-.1.2-.1.4h-.3-.2c-.7-.8-2.8-2-4.1-2.4-.3-.1-.6-.2-.8-.2 0-.1 0-.1.1-.2zM54 22.9c.1-.1.4-.1.7-.1.8.1 2 .6 2.9 1.2-.9-.1-2-.1-3.1-.1-.1-.2-.2-.4-.4-.5-.1-.1-.2-.2-.3-.2.1-.2.1-.3.2-.3zm5.3 2.5c.4 0 .7 0 .8.1l-.6.6c-.7.6-2.7.6-4.9.6h-2.2c-3.8.1-8.7 2.4-10.3 3.2-.5.3-1.1.6-1.5.7-.3-.2-.7-.5-1.2-.8l.1-.1c2.4-1.7 7-3.4 10-4.3 2.3-.6 7.7-.2 9.8 0zm-7.8-1.5c-.9.1-1.8.2-2.4.4-.6.2-1.2.4-2 .6.2-.1.3-.2.5-.3.2-.1.5-.3.6-.3.2-.1.4-.3.7-1 .8.4 1.5.3 1.9.2h.1c.1.1.4.2.6.4zm-.7-1.8h-.3c-.4.1-.7.1-1.3-.3-.3-.2-.5-.4-.8-.6l-.2-.5h-.4c-.9-.1-1.6-.2-2.2-.2 2-.6 3.9.6 5.2 1.6zm-9.2 0c.7-.2 1.4-.3 1.8-.5.5 0 2.2.1 3.9.3l.4.9c0 .1-.1.2-.1.3-.1.1-.3.2-.6.3-.7.4-2.7 1.6-3.1 1.7-.5 0-1.7-.2-2.6-.5.3-.9.5-1.8.3-2.5zm-.7 4.2c0-.2-.1-.4-.2-.5.3.1.6.2 1 .3l1.5.3c-1.6.7-3.2 1.5-4.5 2.3-.2.2-.4.3-.6.5-.5-.3-1-.5-1.3-.5-.1 0-.3 0-.5-.1.7-.2 1.4-.4 2.1-.7l.5-.2c1.4-.5 2-.8 2-1.4zm-8.6-3.2c.3-.1.4-.2.5-.3 0 0 .1 0 .3-.1.3-.1.4-.2.5-.3h.8c.3.3.5.2 1.7-.2.9-.4 1.4-.6 1.6-.6.3.2.9.4 1.1.5l.4.2h.2s.6-.1 1 .3c.1.5-.7 2.6-1 3-.3.3-.3.5-.2.7-.1.1-.3.1-.6.2H38c-2.1.7-3.8 1.4-4.3.7-.2-.3-.4-.6-.5-.7-.1-.2-.2-.3-.3-.4 0-.2-.1-.4-.3-1.1-.1-.4-.4-1.1-.5-1.4.1-.2.2-.4.2-.5zm1.7 5.7s-.1.1 0 0c-.2.1-.3.2-.4.2-.3.1-.7.1-1.1 0 .5-.1.9-.1 1.5-.2-.1 0 0 0 0 0zm-2.5-2.9c0 .1.1.2.1.3 0 .3.1.5.5 1 .1.1.2.3.3.4-.8.1-1.7.2-2.4.2-.6-.1-1.4-.1-2.2-.1 1.6-.7 3.1-1.4 3.7-1.8zm-1.1-1.7c.1.2.3.4.4.6l.1.1c-.6.3-2.1 1.1-3.9 1.9-1 .5-1.8.8-2.5 1-.3 0-.7-.1-1 0 2.5-1.3 6-3.1 6.9-3.6zm53.5 54.1h-.3c-.2 0-.9-.2-1.5-.4-.9-.3-2.1-.6-3-.8-.7-.1-1-.2-1.2-.2-.4-.1-.6-.1-1.9-.4-.6-.1-.9-.2-1.3-.3-1-.2-1.7-.4-5.1-.9-3-.5-3.6-.7-4.4-1-.5-.2-1-.4-2-.6-1.7-.5-2.8-.7-4-1-.8-.2-1.5-.3-2.5-.6-1-.2-1.6-.4-2.2-.6-.9-.3-1.6-.5-2.7-.6-.7-.1-1.1-.1-1.6-.2-.7 0-1.2-.1-2.1-.4-1.5-.5-3.3-.9-4.5-1.1-.2 0-.4-.1-.7-.3-.3-.2-.7-.4-1.4-.5-.3-.1-.6-.2-.9-.4-.5-.3-1.1-.5-1.8-.5h-.2c-.5 0-1-.1-1.4-.3-.4-.1-.7-.3-1.1-.3-.3 0-1-.1-1.7-.2-.6-.1-1.1-.2-1.5-.2-.5 0-.9-.2-1.4-.3-.3-.1-.6-.2-.9-.2-.2-.1-.6-.2-1-.4-.7-.3-1.5-.7-2.2-.7h-.8c-.7 0-1.3-.1-2-.3-.2-.1-.5-.2-.7-.3-.7-.4-1.5-.8-2.5-.8-.5 0-1.3-.2-2.2-.4-.8-.2-1.7-.4-2.5-.5-.8-.1-2-.4-3.1-.6-1.3-.3-2.5-.5-3.4-.6h-.4c-.4 0-.8-.1-1.1-.1-.4-.1-.7-.2-.9-.3-2.4-1-3.6-3.3-3.7-6.9v-.8c.3-.3.7-.8 1.4-4.2.1-.7.3-1.3.4-1.9v-.1c.1-.3.2-.8.5-1.5 0-.1 0-.1.1-.2 1.2-3.4 2.9-5.8 4.1-7.4l.2-.2c1.3-1.8 5.9-4.3 10.2-5.6 3-.9 5.1-.4 6.4-.1.4.1.7.2 1 .2h1.5c.8 0 1.6 0 2.1.1s1.5.1 2.4.1c.9 0 1.9 0 2.5.1h.2c1 .1 1.2.1 3.1 1.8 1.9 1.8 5 2.9 7.3 3.7.4.1.7.2 1 .4 1.5.5 2.9.5 3.8.6h.8c.1.1.4.2.7.5.9.6 2.4 1.5 3 2.2.5.6 1.4 1.4 2.4 2.3.8.7 1.7 1.5 2.2 2 .5.5 1.6 1.4 2.8 2.4 1.6 1.3 3.6 2.8 4.2 3.7 1.2 1.6 3.3 4.1 4.9 5.6 1.5 1.5 3.6 3.5 5.6 6.6 1.4 2.1 1.9 3.3 2.4 4.4.2.5.4 1 .7 1.5.9 1.7 1.9 4 2.1 5.1.2.9.6 1.4 1 1.8.3.3.5.5.7 1 .2.3.4.7.7 1.1-1.2-.8-2.1-.9-2.6-1zm2.9-1.2c-.3-.6-.7-1-1-1.3-.3-.3-.5-.6-.6-1.1-.3-1.4-1.4-3.8-2.3-5.5-.2-.5-.4-.9-.7-1.4-.5-1.1-1-2.5-2.5-4.6-2.1-3.2-4.2-5.4-5.8-6.9-1.6-1.5-3.6-3.9-4.7-5.5-.7-1-2.6-2.5-4.4-3.9-1.2-.9-2.3-1.8-2.7-2.3-.6-.6-1.4-1.4-2.3-2.1-.9-.8-1.8-1.7-2.3-2.2-.7-.8-2.3-1.8-3.3-2.5-.3-.2-.6-.4-.7-.4-.3-.3-.8-.3-1.6-.3-.9 0-2.1 0-3.3-.5-.3-.1-.6-.2-1-.4-2.2-.8-5.1-1.8-6.8-3.4-2.1-1.9-2.5-2-3.8-2.2h-.2c-.7-.1-1.7-.1-2.6-.1-.9 0-1.8 0-2.2-.1-.6-.1-1.5-.1-2.3-.1h-1.4c-.2 0-.5-.1-.8-.2-.8-.2-1.9-.5-3.4-.5-1.1 0-2.3.1-3.7.6-1.5.4-3.1 1.1-4.7 1.8 1.1-.8 2.3-1.5 3.3-1.9 2.4-.9 3.7-1.3 5.4-1.1.8.1 1.7.1 2.7 0 1.1 0 2.7-.1 3.1.2.9.7 2.5 1.4 3.8.9 1-.4 1.9-.5 2.5-.4.5.1 2.2 1.1 3.6 2 .7.5 2 1.2 2.9 1.4.8.2 2.1.6 2.3.8.3.3 1.1.6 2.7 1.1.3.1.5.2.7.2.3.1.8.2 1.6.3 1.1.1 2.7.3 3.4.7 1.1.7 6.4 5 7.7 6.1.3.2.5.4.7.6.7.6 1.1 1 2.1 1.6.5.3.6.4.7.4.1.1.2.3.4.5.4.4.7.6.9.7.1.1.2.1.3.2.4.3 1.9 1.9 2.1 2.2.2.2.4.4.7.6.2.2.5.4.7.6.1.2.5.7 1 1.3 1 1.3 1.7 2.3 2 2.5l.2.2c.2.3.4.6 1.1 1.1.5.4 1.1 1.2 1.6 1.9.4.6.8 1.1 1.2 1.4.4.4 1.2 1.4 1.9 2.4.4.5.8 1 1.1 1.5.6.7.8 1.2 1 1.7.1.3.3.6.5 1 .3.5.7 1 1.2 1.5s.9 1 1 1.4c.9 3.7 1.2 4.2 1.5 4.4.1.2.3.7.4 1 .2.6.5 1.2.7 1.6.2.3.5 1.1.7 1.7.3.7.4 1.1.6 1.4l.1.1c-.5 0-.8-.4-1-.7zm1.8-1.6c-.2.1-.3.2-.5.4-.2-.6-.4-1.1-.7-1.6l.1-.1c.1.1.2.1.3.1.1 0 .5.2.7.4v.2c.1.3.1.5.1.6zm2 4.8c-.5-.1-1.1-.5-1.8-1 .1 0 .3.1.4.1.1 0 .3.2.4.3.3.2.7.5 1.1.7 0-.1 0-.1-.1-.1zm.2-2.7c-.2 0-.5-.1-.8.2 0-.1-.1-.1-.1-.2 0-.2 0-.3-.2-.5 0-.1-.1-.1-.1-.2-.1-.1-.1-.2-.2-.3.1 0 .1-.1.2-.1.3-.2.4-.4.4-.7.4.1.7.1.8.1.2 0 .4 0 .7-.1 0 .2.2.4.5.6.1 0 .1.1.2.1 0 0 .1 0 .1.1 0 0 0 .1-.1.1 0 .1-.1.2-.1.2-.2.1-.5.3-.8.8h-.2c-.2-.1-.2-.1-.3-.1zm1.9.6c-.3.4-.6.6-1.3.8-.1 0-.2 0-.4-.1h.1c.5.1.9-.2 1.1-.5.1-.1.2-.3.3-.4.1 0 .2-.1.3-.2 0 .3-.1.4-.1.4zm.8 1.1l.2-.2s0-.1.1-.1l-.3.3zm1-5.5c0 .2-.1.2-.1.3-.1.1-.2.3-.3.5-.1.2-.3.4-.4.4h-.2c0-.5-.2-.8-.3-1v-.2c0-.1.1-.2.1-.3.3-.2.6-.5.5-1 .1 0 .2 0 .3-.1V72.7l.2.2c.1.1.2.3.3.4 0 0 0 .1-.1.5zm.7-17c-.1.2-.2.3-.2.5-.1-.4-.2-.8-.3-1.1-.1-.2-.1-.4-.1-.6.4.5.6.9.7 1.1l-.1.1zm.6 4v.4c0-.1 0-.2-.1-.2-.1-.3-.2-.8-.3-1.4.4.6.4 1 .4 1.2zm.3 13v-1.1c.1.4.1.7 0 1.1z"></path></g></switch></g><!----></svg>